<?xml version="1.0" encoding="utf-8"?>
<!-- Generator: Adobe Illustrator 27.7.0, SVG Export Plug-In . SVG Version: 6.00 Build 0)  -->
<svg version="1.1" xmlns="http://www.w3.org/2000/svg" xmlns:xlink="http://www.w3.org/1999/xlink" x="0px" y="0px"
	 viewBox="0 0 500 500" style="enable-background:new 0 0 500 500;" xml:space="preserve">
<style type="text/css">
	.st0{fill:#FFF8EB;}
	.st1{opacity:0.2;}
	.st2{fill:#FDBC2F;}
	.st3{fill:none;stroke:#FB1370;stroke-width:1.3802;stroke-miterlimit:10;}
	.st4{fill:#FB1370;}
	.st5{fill:none;stroke:#FEFEFE;stroke-width:1.4836;stroke-miterlimit:10;}
	.st6{fill:none;stroke:#FEFEFE;stroke-width:1.0259;stroke-miterlimit:10;}
	.st7{fill:#F85721;}
	.st8{fill:none;stroke:#FEFEFE;stroke-width:1.0658;stroke-miterlimit:10;}
	.st9{fill:#482480;}
	.st10{fill:#FEFEFE;}
	.st11{fill:none;stroke:#FFFFFF;stroke-width:0.5398;stroke-miterlimit:10;}
	.st12{fill:#8242E8;}
	.st13{fill:#03102A;}
	.st14{fill:#E8A171;}
	.st15{fill:#D4653A;}
	.st16{fill:#EA7E7C;}
	.st17{fill:#E17F57;}
	.st18{fill:none;stroke:#222B45;stroke-width:0.4847;stroke-miterlimit:10;}
	.st19{fill:#FFFFFF;}
	.st20{fill:#316AC2;}
	.st21{fill:#3F89FB;}
	.st22{clip-path:url(#SVGID_00000123403706276225891760000010770988303878139535_);fill:#FFFFFF;}
	.st23{fill:#E7F3FD;}
	.st24{fill:#CEDFFB;}
	.st25{fill:#030F2A;}
	.st26{fill:#ED7F5D;}
	.st27{fill:#BF5433;}
	.st28{fill:#EB6B54;}
	.st29{fill:none;stroke:#032F54;stroke-width:0.4395;stroke-miterlimit:10;}
	.st30{opacity:0.48;}
	.st31{fill:none;stroke:#FFFFFF;stroke-width:0.4181;stroke-miterlimit:10;}
	.st32{opacity:0.21;}
	.st33{fill:#23215F;}
	.st34{fill:none;stroke:#23215F;stroke-width:0.0582;stroke-miterlimit:10;}
	.st35{fill:none;stroke:#385887;stroke-width:0.1164;stroke-miterlimit:10;}
	.st36{fill:none;stroke:#FEFEFE;stroke-width:0.4041;stroke-miterlimit:10;}
	.st37{fill:none;stroke:#482480;stroke-width:1.1133;stroke-miterlimit:10;}
	.st38{font-family:'Poppins-SemiBold';}
	.st39{font-size:7.8961px;}
</style>
<g id="BACKGROUND">
	<rect class="st0" width="500" height="500"/>
</g>
<g id="OBJECTS">
	<g class="st1">
		<g>
			<g>
				<path class="st2" d="M401.22,109.36c0.61,0.61,1.12,1.29,1.72,1.91l-17.4,16.95c-0.53-0.54-0.97-1.14-1.51-1.67
					c-36.94-36.94-85.47-55.42-134-55.42c-48.53,0-97.06,18.47-134.01,55.42c-0.55,0.55-1.02,1.16-1.56,1.72l-17.4-16.95
					c0.62-0.63,1.15-1.33,1.77-1.95C182.21,25.97,317.83,25.97,401.22,109.36z"/>
				<path class="st2" d="M355.58,154.99c0.42,0.42,0.69,0.92,1.1,1.34l-17.39,16.94c-0.34-0.34-0.55-0.76-0.89-1.1
					c-24.36-24.36-56.37-36.54-88.4-36.54c-32.01,0-64.01,12.18-88.37,36.54c-0.35,0.35-0.58,0.78-0.92,1.13l-17.39-16.94
					c0.42-0.43,0.7-0.96,1.13-1.38C202.68,96.73,297.39,96.77,355.58,154.99z"/>
				<path class="st2" d="M312.7,197.9c0.22,0.22,0.36,0.49,0.58,0.71l-17.39,16.94c-0.14-0.14-0.23-0.32-0.38-0.46
					c-12.54-12.54-29.01-18.8-45.49-18.8c-16.48,0-32.96,6.27-45.49,18.8c-0.16,0.16-0.26,0.35-0.42,0.52l-17.39-16.94
					c0.23-0.24,0.39-0.53,0.62-0.76C221.91,163.33,278.14,163.33,312.7,197.9z"/>
			</g>
			<path class="st2" d="M230.17,260.28c0,10.94,8.87,19.81,19.81,19.81c10.94,0,19.81-8.87,19.81-19.81
				c0-10.94-8.87-19.81-19.81-19.81C239.04,240.47,230.17,249.34,230.17,260.28z"/>
		</g>
	</g>
	<g>
		<g>
			<path class="st3" d="M60.96,247.35c24.55,48.9,40.52,102.08,46.99,156.41"/>
			<g>
				<path class="st4" d="M69.37,263.78c-6.31-4.23-11.56-10.01-15.17-16.69c-2.04-3.78-3.59-8.08-2.89-12.32
					c0.31-1.91,1.29-3.94,3.13-4.52c1.73-0.55,3.58,0.38,5.04,1.46c4.77,3.53,7.9,8.97,9.45,14.71
					C70.47,252.15,70.52,258.19,69.37,263.78z"/>
				<path class="st4" d="M83.09,297.27c-6.57-1.7-12.84-4.52-18.48-8.3c-2.3-1.54-4.57-3.33-5.8-5.81c-1.23-2.48-1.15-5.81,0.87-7.7
					c2.64-2.47,6.98-1.41,10.06,0.49c5.94,3.67,10.16,10.02,11.24,16.92c-2.23-8.28-2.57-17.06-1.01-25.48
					c0.24-1.28,0.57-2.65,1.57-3.5c1.37-1.17,3.56-0.88,4.97,0.24s2.19,2.84,2.76,4.55C92.56,278.52,90.12,290.07,83.09,297.27z"/>
				<path class="st4" d="M91.42,326.23c-7.27-0.24-14.48-2.25-20.82-5.82c-3.5-1.97-7.14-5.35-6.34-9.29
					c0.54-2.62,3.06-4.52,5.7-4.95c2.64-0.43,5.34,0.36,7.74,1.54c6.34,3.11,11.22,9.05,13.04,15.87
					c-0.93-7.86-1.17-16.18,2.33-23.28c1.43-2.89,4.47-5.81,7.46-4.61c2.41,0.97,3.12,4.02,3.29,6.61
					c0.31,4.87-0.15,9.88-2.09,14.36C99.78,321.16,96.35,326.39,91.42,326.23z"/>
				<path class="st4" d="M99.45,362.46c-9.01,0.52-18.75-1.48-24.96-8.03c-1.97-2.08-3.58-5.05-2.56-7.73
					c0.75-1.94,2.74-3.17,4.77-3.63c4.58-1.03,9.18,1.2,13.34,3.37c3.71,1.93,7.76,4.25,9.02,8.24c-0.35-5.01,0.49-10.09,2.45-14.72
					c1.04-2.47,2.48-4.9,4.74-6.35c0.41-0.27,0.86-0.5,1.35-0.5c0.92-0.01,1.62,0.78,2.12,1.56c2.86,4.48,2.69,10.4,0.69,15.33
					C108.4,354.92,104.8,359.02,99.45,362.46z"/>
			</g>
		</g>
		<g>
			<path class="st2" d="M153.51,415.58c-13.15-46.18-46.24-86.32-89.06-108.04c-10.53,30.22-0.95,64.89,18.71,90.13
				c19.66,25.25,48.13,42.24,77.57,54.77C161.24,441.45,157.9,430.99,153.51,415.58z"/>
			<g>
				<path class="st5" d="M71.75,327.71c25.53,41.54,53.93,81.31,84.91,118.95"/>
				<path class="st5" d="M92.59,339.58c0.82,8.85,2.19,17.65,4.1,26.33c-8.66-5.38-17.53-10.43-26.58-15.14"/>
				<path class="st5" d="M116.33,362.51c-0.29,9.89-0.48,19.78-0.57,29.67c-11-4.19-21.81-8.85-32.4-13.99"/>
				<path class="st5" d="M136.07,391.6c-1.27,8.51-1.87,17.13-1.79,25.74c-10.18-2.78-20.29-5.84-30.3-9.19"/>
			</g>
		</g>
		<g>
			<path class="st2" d="M131.45,431.08c-22.78-24.17-55.86-38.27-89.07-37.98c3.15,21.9,20.07,40.14,40.17,49.38
				c20.11,9.24,42.99,10.61,65.05,8.94C144.43,444.5,139.05,439.14,131.45,431.08z"/>
			<g>
				<path class="st6" d="M53.28,403.16c28.9,17.37,58.99,32.75,89.99,46"/>
				<path class="st6" d="M69.85,403.81c3.32,5.17,6.96,10.14,10.9,14.86c-7.03-0.55-14.08-0.82-21.14-0.83"/>
				<path class="st6" d="M91.73,410.33c2.97,6.16,6,12.3,9.1,18.4c-8.08,0.93-16.21,1.51-24.34,1.73"/>
				<path class="st6" d="M113.11,421.91c1.93,5.63,4.3,11.11,7.09,16.37c-7.14,1.54-14.31,2.87-21.52,4"/>
			</g>
		</g>
		<g>
			<path class="st7" d="M406.42,442.46c18.88-13.85,37.73-31.02,42.25-53.99c0.93-4.75,0.81-10.54-3.14-13.33
				c-3.22-2.28-7.85-1.48-11.06,0.81c-3.21,2.3-5.31,5.79-7.33,9.17c10.44-12.91,19.05-27.3,25.5-42.6
				c3.95-9.39,7.14-19.54,5.81-29.64c-1.33-10.1-8.27-20.06-18.26-22.05c-12.56-2.5-23.99,7.77-31.16,18.38
				c-13.62,20.16-20.43,44.04-27.04,67.46c2.08-7.87,2.79-16.1,2.11-24.21c-0.2-2.32-0.56-4.77-2.02-6.59
				c-2.77-3.44-8.45-3.05-11.95-0.36c-3.5,2.7-5.34,6.96-7,11.06c-11.9,29.37-21.75,59.58-29.44,90.33
				C358.43,450.4,387.29,456.5,406.42,442.46z"/>
			<g>
				<path class="st8" d="M437.58,313.66c-24.8,43.96-47.25,89.23-67.25,135.57"/>
				<path class="st8" d="M447.31,333.18c-7.22,2.65-12.98,8.13-18.48,13.51c-6.4,6.27-12.75,12.59-19.03,18.98
					c2.63-13.26,3.01-26.97,1.12-40.36"/>
				<path class="st8" d="M368.69,358.76c5.69,22.62,9.17,45.8,10.38,69.1c16.27-12.82,33.39-26.05,53.74-29.92"/>
				<path class="st8" d="M359.62,409.35c0.39,4.28,1.47,8.5,3.2,12.44"/>
				<path class="st8" d="M356.55,412.94c0.3,2.64,0.6,5.28,0.9,7.92"/>
				<path class="st8" d="M429.13,366.2c-3.86,2.95-7.5,6.17-10.9,9.64"/>
				<path class="st8" d="M427.46,374.32c-2.51,1.42-4.86,3.11-7.01,5.04"/>
				<path class="st8" d="M424.96,305.54c-0.26,2.45-0.52,4.9-0.78,7.35"/>
				<path class="st8" d="M421.19,306.1c-0.26,2.64-0.52,5.27-0.78,7.91"/>
			</g>
		</g>
		<g>
			<path class="st2" d="M389.28,429.57c14.59-29.83,42-53.12,73.8-62.68c3.49,21.85-7.26,44.28-23.72,59.07
				c-16.46,14.79-37.91,22.88-59.48,27.82C380.86,446.24,384.41,439.52,389.28,429.57z"/>
			<g>
				<path class="st6" d="M455.65,379.73c-22.44,25.16-46.62,48.77-72.31,70.61"/>
				<path class="st6" d="M440.02,385.27c-1.64,5.92-3.64,11.75-6,17.42c6.55-2.61,13.21-4.96,19.94-7.07"/>
				<path class="st6" d="M421.06,397.98c-1.01,6.77-2.08,13.52-3.23,20.27c8-1.51,15.93-3.37,23.76-5.57"/>
				<path class="st6" d="M404.07,415.37c-0.17,5.95-0.81,11.89-1.92,17.74c7.27-0.65,14.52-1.5,21.74-2.56"/>
			</g>
		</g>
	</g>
	<path class="st9" d="M108.47,453.49c0-4.63,65.18-8.38,145.59-8.38c80.41,0,145.59,3.75,145.59,8.38s-65.18,8.38-145.59,8.38
		C173.66,461.86,108.47,458.11,108.47,453.49z"/>
	<g>
		<g>
			<g>
				<g>
					<path class="st7" d="M168.18,453.59l-0.86-31.35l-17.49-0.26c0,0-0.91,13.91-3.96,15.51c-3.05,1.6-20.31,4.76-20.42,16.95
						L168.18,453.59z"/>
					<g>
						<g>
							<path class="st10" d="M168.05,448.89c-3.47,0.21-6.94,0.41-10.41,0.57l-10.42,0.46l-10.42,0.36
								c-3.47,0.11-6.95,0.19-10.42,0.24c-0.28,0-0.52-0.22-0.52-0.51c0-0.28,0.21-0.51,0.49-0.52c3.47-0.17,6.94-0.32,10.42-0.44
								l10.42-0.32l10.42-0.22c3.48-0.06,6.95-0.1,10.43-0.11c0.14,0,0.25,0.11,0.25,0.25
								C168.29,448.77,168.18,448.88,168.05,448.89z"/>
						</g>
						<g>
							<path class="st10" d="M156.25,448.96c0.15-1.41,0.58-2.72,1.19-3.98c0.61-1.26,1.47-2.4,2.52-3.37
								c0.52-0.49,1.14-0.85,1.74-1.23c0.65-0.28,1.28-0.64,1.98-0.77c0.68-0.22,1.38-0.26,2.07-0.33c0.69-0.04,1.39,0.05,2.07,0.1
								c0.14,0.01,0.25,0.14,0.24,0.28c-0.01,0.13-0.11,0.23-0.24,0.24l-0.04,0c-1.31,0.11-2.62,0.21-3.81,0.68
								c-0.61,0.18-1.16,0.5-1.73,0.77c-0.52,0.36-1.05,0.7-1.49,1.15c-0.95,0.83-1.71,1.87-2.33,2.99
								c-0.62,1.12-1.12,2.35-1.46,3.58l-0.01,0.03c-0.05,0.19-0.25,0.3-0.44,0.25C156.34,449.29,156.23,449.13,156.25,448.96z"/>
						</g>
						<g>
							<path class="st10" d="M137.94,449.68c-0.51-1.38-0.87-2.79-1.2-4.2c-0.15-0.71-0.3-1.42-0.41-2.14
								c-0.12-0.72-0.22-1.44-0.28-2.17c-0.01-0.2,0.14-0.37,0.33-0.39c0.16-0.01,0.31,0.09,0.36,0.23
								c0.26,0.69,0.46,1.39,0.65,2.09c0.2,0.7,0.35,1.41,0.51,2.12c0.29,1.43,0.55,2.86,0.65,4.32c0.01,0.18-0.12,0.33-0.3,0.34
								C138.11,449.9,137.99,449.81,137.94,449.68z"/>
						</g>
						<g>
							<path class="st10" d="M150.4,439.54c-0.72-0.42-1.32-0.95-1.93-1.48c-0.58-0.56-1.16-1.11-1.63-1.78
								c-0.15-0.21-0.09-0.49,0.11-0.64c0.16-0.11,0.36-0.11,0.51-0.01c0.69,0.45,1.26,1.02,1.83,1.58c0.54,0.59,1.1,1.18,1.54,1.88
								c0.09,0.15,0.05,0.35-0.1,0.44C150.62,439.6,150.5,439.6,150.4,439.54z"/>
						</g>
						<g>
							<path class="st10" d="M146.37,442.41c-1.02-1.23-1.95-2.53-2.77-3.92c-0.11-0.19-0.05-0.43,0.14-0.54
								c0.16-0.09,0.35-0.06,0.48,0.06c1.14,1.13,2.18,2.35,3.12,3.64c0.2,0.27,0.14,0.66-0.14,0.86
								C146.94,442.71,146.57,442.66,146.37,442.41z"/>
						</g>
						<g>
							<path class="st10" d="M142.06,444.24c-0.45-0.72-0.74-1.51-1.05-2.29c-0.26-0.8-0.54-1.59-0.67-2.45
								c-0.02-0.16,0.09-0.32,0.25-0.34c0.11-0.02,0.22,0.03,0.29,0.12c0.51,0.7,0.86,1.46,1.23,2.22c0.32,0.77,0.66,1.54,0.85,2.37
								c0.06,0.27-0.11,0.53-0.37,0.59C142.38,444.51,142.16,444.41,142.06,444.24z"/>
						</g>
						<g>
							<path class="st10" d="M161.42,433.36c-0.48,0.06-0.92,0.32-1.19,0.71c-0.27,0.39-0.36,0.88-0.27,1.32
								c0.19,0.9,1.12,1.44,1.87,1.24c0.78,0,1.55-0.75,1.51-1.66c-0.02-0.45-0.23-0.9-0.58-1.21
								C162.4,433.45,161.9,433.3,161.42,433.36z M161.37,432.91c1.19-0.17,2.47,0.69,2.68,1.97c0.12,0.62-0.01,1.31-0.39,1.86
								c-0.38,0.55-0.99,0.96-1.68,1.07c-0.69,0.05-1.39-0.19-1.89-0.63c-0.5-0.44-0.8-1.08-0.83-1.71
								C159.15,434.19,160.17,433.03,161.37,432.91z"/>
						</g>
					</g>
				</g>
				<polygon class="st9" points="179.58,266 168.04,425.33 147.05,425.33 143.59,268.37 				"/>
				<g>
					<path class="st11" d="M160.62,424.1c0,0,1.58-91.38,4.44-158.1"/>
				</g>
			</g>
			<g>
				<g>
					<path class="st7" d="M212.18,400.68l-28.73-12.59l-7.69,15.71c0,0,12.2,6.75,12.35,10.19c0.15,3.44-4.35,20.4,6.63,25.7
						L212.18,400.68z"/>
					<g>
						<g>
							<path class="st10" d="M207.87,398.79c-1.28,3.23-2.59,6.45-3.92,9.66l-4.03,9.62l-4.12,9.58c-1.38,3.19-2.79,6.36-4.22,9.53
								c-0.12,0.26-0.42,0.37-0.68,0.26c-0.25-0.11-0.37-0.41-0.26-0.66c1.32-3.21,2.67-6.42,4.04-9.61l4.15-9.56l4.24-9.53
								c1.42-3.17,2.88-6.33,4.35-9.48c0.06-0.12,0.2-0.18,0.33-0.12C207.87,398.53,207.92,398.67,207.87,398.79z"/>
						</g>
						<g>
							<path class="st10" d="M202.91,409.5c-1.21-0.74-2.21-1.69-3.1-2.77c-0.88-1.09-1.55-2.36-1.97-3.71
								c-0.22-0.68-0.28-1.39-0.37-2.1c0.02-0.71-0.03-1.43,0.15-2.12c0.09-0.7,0.35-1.36,0.58-2.01c0.26-0.64,0.64-1.23,0.97-1.83
								c0.07-0.13,0.23-0.17,0.36-0.1c0.11,0.06,0.16,0.2,0.12,0.32l-0.01,0.03c-0.46,1.24-0.93,2.46-1.01,3.73
								c-0.1,0.63-0.05,1.26-0.04,1.89c0.11,0.62,0.18,1.25,0.4,1.84c0.35,1.21,0.96,2.34,1.71,3.39c0.75,1.04,1.65,2.01,2.62,2.85
								l0.02,0.02c0.15,0.13,0.17,0.35,0.04,0.5C203.25,409.56,203.05,409.59,202.91,409.5z"/>
						</g>
						<g>
							<path class="st10" d="M195.75,426.38c-1.46-0.12-2.89-0.4-4.31-0.71c-0.71-0.17-1.42-0.33-2.11-0.54
								c-0.7-0.2-1.4-0.41-2.08-0.68c-0.19-0.07-0.28-0.28-0.21-0.47c0.06-0.15,0.21-0.24,0.37-0.23c0.73,0.06,1.45,0.18,2.17,0.31
								c0.72,0.12,1.43,0.28,2.14,0.44c1.41,0.34,2.82,0.72,4.19,1.26c0.17,0.06,0.25,0.25,0.18,0.41
								C196.03,426.31,195.89,426.39,195.75,426.38z"/>
						</g>
						<g>
							<path class="st10" d="M191.89,410.78c-0.68,0.47-1.42,0.79-2.16,1.12c-0.75,0.28-1.5,0.58-2.31,0.72
								c-0.25,0.04-0.49-0.13-0.53-0.38c-0.03-0.19,0.06-0.37,0.21-0.47c0.7-0.43,1.45-0.7,2.21-0.99c0.77-0.24,1.54-0.49,2.36-0.59
								c0.18-0.02,0.34,0.11,0.36,0.28C192.04,410.6,191.99,410.72,191.89,410.78z"/>
						</g>
						<g>
							<path class="st10" d="M192.77,415.65c-1.55,0.4-3.12,0.68-4.72,0.84c-0.22,0.02-0.41-0.14-0.43-0.35
								c-0.02-0.18,0.09-0.35,0.26-0.41c1.51-0.55,3.06-0.97,4.62-1.27c0.33-0.06,0.65,0.15,0.72,0.49
								C193.28,415.26,193.08,415.57,192.77,415.65z"/>
						</g>
						<g>
							<path class="st10" d="M192.58,420.33c-0.85,0.09-1.68,0.03-2.52-0.02c-0.84-0.1-1.67-0.19-2.5-0.44
								c-0.16-0.05-0.25-0.22-0.2-0.37c0.03-0.11,0.12-0.19,0.23-0.21c0.85-0.16,1.69-0.16,2.53-0.17c0.84,0.04,1.68,0.06,2.51,0.24
								c0.27,0.06,0.43,0.32,0.37,0.59C192.96,420.16,192.79,420.3,192.58,420.33z"/>
						</g>
						<g>
							<path class="st10" d="M191,398.17c-0.15,0.46-0.1,0.97,0.14,1.39c0.24,0.41,0.64,0.7,1.08,0.81c0.89,0.21,1.78-0.4,1.92-1.16
								c0.33-0.7-0.01-1.72-0.86-2.07c-0.41-0.17-0.91-0.18-1.34,0.01C191.49,397.33,191.15,397.71,191,398.17z M190.57,398.03
								c0.35-1.15,1.68-1.94,2.93-1.59c0.61,0.15,1.18,0.57,1.52,1.15c0.34,0.58,0.44,1.31,0.25,1.98
								c-0.25,0.65-0.76,1.18-1.38,1.44c-0.61,0.27-1.32,0.27-1.9,0.03C190.78,400.59,190.17,399.17,190.57,398.03z"/>
						</g>
					</g>
				</g>
				<path class="st12" d="M112.76,266l-30.1,72.69c0,0-7.34,21.29,15.05,32.31c22.39,11.01,82.12,36.75,82.12,36.75l8.85-18.66
					l-67.84-40.85l32.53-72.74L112.76,266z"/>
				<g>
					<path class="st11" d="M185.08,396.68c0,0-76.7-41.97-77.76-46.19c-2.47-9.87,20.71-60.52,29.37-79.46"/>
				</g>
			</g>
		</g>
		<g>
			<g>
				<g>
					<path class="st13" d="M185.91,163.62c1.05-0.58,4.66-2.24,5.38-4.74c0.73-2.5-1.42-4.06-0.2-6.11c1.22-2.04,4.08-7.57-3.7-9.84
						c-7.78-2.27-6.8,1.15-9.49-2.14c-2.69-3.29-4.72-4.92-7.32-3.49c-2.61,1.43-1.09,6.25-2.53,5.83
						c-1.44-0.42-1.69-2.79-4.42-1.29c-2.73,1.5,0.2,3.45-1.23,4.23c-1.43,0.78-4.22,6.31-0.68,10.46
						C162.82,157.83,184.86,164.2,185.91,163.62z"/>
					<g>
						<g>
							<path class="st14" d="M187.45,165.99c0-0.98-0.54-1.9-1.55-2.35c0.67-1.77,1.27-3.75,1.74-6.03
								c0.31-1.49,0.46-3.03,0.28-4.53c-0.58-4.7-3.36-8.53-8.06-9.92c-6.47-1.91-11.48,0.42-15.49,6.6
								c-1.26,1.95-2.18,4.31-2.76,6.78c-0.87-0.18-1.65,0.06-2.22,0.54c-1.47,1.23-0.86,3.65,0.94,4.32
								c0.17,0.06,0.36,0.13,0.55,0.2c-0.19,3.43,0.24,6.62,1.28,8.71l-7.25,18.92c-0.94,2.45-0.22,5.26,1.83,6.89
								c4.97,3.93,10.06,4.02,13.31,3.47c2.04-0.34,3.65-1.91,4.04-3.94l3.95-20.71c0,0,2.93-1.84,5.71-6.69l0.49,0.1
								C185.85,168.7,187.45,167.64,187.45,165.99z"/>
							<path class="st15" d="M162.14,170.31c3.28,4.79,7.24,7.89,15.88,4.63C177.59,177.48,158.27,187.61,162.14,170.31
								L162.14,170.31z"/>
						</g>
						<g>
							<path class="st16" d="M185.05,167.26c0.25-0.4,0.56-0.68,0.72-1.01c0.1-0.15,0.14-0.29,0.13-0.45c0-0.16-0.12-0.34-0.23-0.55
								c0.22,0.05,0.46,0.17,0.58,0.44c0.13,0.27,0.04,0.58-0.07,0.8C185.91,166.91,185.52,167.19,185.05,167.26z"/>
						</g>
						<g>
							<path class="st16" d="M160.48,159.92c-0.36-0.32-0.53-0.76-0.54-1.27c0.03-0.25,0.13-0.55,0.38-0.7
								c0.25-0.16,0.51-0.13,0.73-0.05c-0.21,0.12-0.4,0.2-0.49,0.34c-0.09,0.13-0.14,0.27-0.13,0.45
								C160.38,159.05,160.49,159.46,160.48,159.92z"/>
						</g>
					</g>
				</g>
				<g>
					<path class="st13" d="M171.8,141.58c-4.82,1.47-10.63,6.41-10.49,10.94c0.29,1.05,0.46,2.35,0.25,3.99c0,0,2.14-6.28,4.49-7.12
						c2.27-0.81,3.39-2.23,5.08-4.73c0,0,5.08-0.44,7.67,4.28c3.78,6.89,8.53,5.55,8.53,5.55s-3.52,7.14-1.41,9.13
						C194.96,145.54,178.87,139.41,171.8,141.58z"/>
					<g>
						<g>
							<path class="st17" d="M167.32,159.97c1.57,0.55,2.39,2.26,1.84,3.83c-0.55,1.57-2.26,2.39-3.83,1.85
								c-1.57-0.55-2.39-2.26-1.84-3.83C164.04,160.25,165.76,159.42,167.32,159.97z"/>
							<path class="st17" d="M179.33,163.83c1.57,0.55,2.39,2.26,1.84,3.83c-0.55,1.57-2.26,2.39-3.83,1.84
								c-1.57-0.55-2.39-2.26-1.84-3.83C176.04,164.11,177.76,163.28,179.33,163.83z"/>
						</g>
						<g>
							<g>
								<path d="M166.46,156.13c-0.65,0.2,1.33-0.8,2.12-0.77c0.79,0.04,1.6,0.4,1.57,1.09
									C170.15,156.45,168.03,155.64,166.46,156.13z"/>
								<path d="M181.76,160.25c0.46,0.5-0.74-1.36-1.45-1.73c-0.7-0.36-1.59-0.46-1.9,0.15
									C178.41,158.67,180.65,159.04,181.76,160.25z"/>
							</g>
							<g>
								<g>
									<g>
										<g>
											<path class="st18" d="M172.66,159.64c-0.68,2.33-3.12,3.68-5.46,3c-2.33-0.68-3.68-3.12-3-5.46
												c0.68-2.33,3.12-3.68,5.46-3C172,154.86,173.34,157.3,172.66,159.64z"/>
											<path class="st18" d="M182.92,162.63c-0.68,2.33-3.12,3.68-5.46,3c-2.33-0.68-3.68-3.12-3-5.46
												c0.68-2.33,3.12-3.68,5.46-3C182.26,157.85,183.6,160.29,182.92,162.63z"/>
											<path class="st18" d="M172.88,157.25c0,0,1.17-0.28,2.76,0.8"/>
										</g>
									</g>
								</g>
								<path d="M168.74,158.75c-0.19,0.69-0.06,1.32,0.27,1.41c0.33,0.09,0.75-0.4,0.94-1.08c0.19-0.69,0.06-1.32-0.27-1.41
									C169.34,157.58,168.92,158.06,168.74,158.75z"/>
								<path d="M177.45,161.24c-0.18,0.66-0.06,1.26,0.26,1.34c0.32,0.09,0.72-0.38,0.9-1.03c0.18-0.66,0.06-1.26-0.26-1.34
									C178.03,160.12,177.63,160.58,177.45,161.24z"/>
							</g>
						</g>
						<polygon class="st15" points="174.07,159.29 174.68,165 172.01,164.39 						"/>
						<path class="st19" d="M169.64,165.78l5.05,1.18c0,0-1.89,2.55-3.38,1.66C169.82,167.73,169.64,165.78,169.64,165.78z"/>
					</g>
				</g>
			</g>
			<g>
				<g>
					<g>
						<path id="XMLID_8_" class="st20" d="M106.41,71.26L69.93,98.5c-0.75,0.56-1.81,0.4-2.37-0.34L49.58,74.06
							c-0.56-0.75-0.4-1.81,0.34-2.37l36.49-27.24c0.75-0.56,1.81-0.41,2.37,0.34l17.98,24.09
							C107.31,69.64,107.16,70.7,106.41,71.26z"/>
						<path id="XMLID_7_" class="st21" d="M104.72,69.11L68.23,96.34c-0.75,0.56-1.81,0.4-2.37-0.34L47.88,71.91
							c-0.56-0.75-0.4-1.81,0.34-2.37l36.49-27.24c0.75-0.56,1.81-0.41,2.37,0.34l17.98,24.09
							C105.62,67.49,105.47,68.55,104.72,69.11z"/>
						<g>
							<g>
								<path id="XMLID_6_" class="st10" d="M100.64,69.74l-29.38,21.9c-1.03,0.77-2.49,0.56-3.26-0.47L52.93,70.99
									c-0.77-1.03-0.56-2.49,0.47-3.26l29.38-21.9c1.03-0.77,2.49-0.56,3.26,0.47l15.06,20.18
									C101.88,67.51,101.67,68.97,100.64,69.74z"/>
							</g>
							<g>
								<path id="XMLID_5_" class="st10" d="M91.45,51.73c1.71,2.14,3.41,4.28,5.12,6.41c0.32,0.4,0.95-0.09,0.63-0.49
									c-1.71-2.14-3.41-4.28-5.12-6.41C91.76,50.83,91.12,51.32,91.45,51.73L91.45,51.73z"/>
								<path id="XMLID_4_" class="st10" d="M58.43,83.58c1.38,0.14,2.02-1.81,0.65-2.35c-1.37-0.54-2.25,1.32-1.14,2.16
									c0.41,0.31,0.9-0.33,0.48-0.64c-0.38-0.28-0.19-0.96,0.34-0.78c0.53,0.18,0.26,0.87-0.23,0.82
									C58.02,82.74,57.91,83.53,58.43,83.58L58.43,83.58z"/>
							</g>
						</g>
					</g>
					<path class="st14" d="M85.76,133.12c4.88,17.38,14.35,41.69,14.35,41.69l10.11-22.97c0,0-5.51-10.98-11.86-20.82
						c-0.32-6.17-2.25-16.02-7.72-31.77h0l0,0l-1.1-4.3c0,0-0.54-13.22-1-14.11c-0.46-0.89-1.02,4.13-1.02,4.13
						s-0.39-4.85-1.17-6.18c-0.62-1.06-1.26,5.43-1.26,5.43c-1.53-7.08-1.21-6.86-1.53-7.08c-0.82-0.59-0.38,7.7-0.38,7.7
						s-0.87-5.39-1.82-5.69c-0.94-0.3-0.4,10.11-0.4,10.11s-1.65-1.78-3.88-1.72c-0.57,0.02-1,0.63-1.06,1.05
						c2.75,0.88,5.48,7.36,5.48,7.37l0,0c0,0-0.17,13.29,1.63,25.53c0.08,0.62,0.19,1.29,0.31,2
						C84.03,126.96,84.79,130.29,85.76,133.12z"/>
				</g>
				<path class="st14" d="M296.8,234.26c0,0,8.27-0.75,7.57-1.48c-0.27-0.28,0,0-7.23-0.5c0,0,6.33-1.56,5.19-2.03
					c-1.43-0.58-6.28-0.27-6.28-0.27s4.88-1.27,3.94-1.6c-0.94-0.33-14.11,1.03-14.11,1.03l-4.41-0.47v0l0,0
					c-16.37-3.16-26.4-3.66-32.55-3.09c-10.65-4.88-22.3-8.76-22.3-8.76l-21.29,13.29c0,0,25.41,5.9,43.31,8.24
					c2.95,0.56,6.34,0.83,9.87,0.91c0.72,0.02,1.39,0.03,2.02,0.02c12.38,0.03,25.5-2.04,25.5-2.04s6.81,1.77,8.07,4.37
					c0.4-0.11,0.95-0.63,0.89-1.2c-0.26-2.21-2.25-3.6-2.25-3.6s10.38-0.95,9.94-1.84C302.26,234.35,296.8,234.26,296.8,234.26z"/>
				<path id="XMLID_3_" class="st2" d="M111.72,145.37c0,0,17.24,29.31,42.5,39.84c26.77,11.16,50.08,18.1,73.61,31.64l-9.46,24.82
					L191.2,233c0,0-3.44,24.61-6.44,45.62l-87.49-8.7c0,0,9.48-28.43,15.18-48.82c2.55-9.12,0.76-18.91-4.83-26.55l-21.86-29.92
					L111.72,145.37z"/>
			</g>
		</g>
		<path class="st2" d="M191.2,233l1.43-21.94c0,0,8.53,20.67,25.74,30.62L191.2,233z"/>
	</g>
	<g>
		<polygon class="st9" points="291.43,444.81 217.66,444.81 224.75,418.09 284.34,418.09 		"/>
		<path class="st20" d="M309.33,446.01H199.76l0.6-1.38c1.6-3.67,5.22-6.04,9.22-6.04h89.92c4,0,7.62,2.37,9.22,6.04L309.33,446.01z
			"/>
		<path class="st21" d="M366.63,422.06H142.68c-3.3,0-5.99-2.69-5.98-5.99l0.4-153.52c0.01-3.29,2.71-5.99,6.01-5.99h223.95
			c3.3,0,5.99,2.69,5.98,5.99l-0.4,153.52C372.63,419.37,369.93,422.06,366.63,422.06z"/>
		<path class="st20" d="M366.8,422.06H142.84c-3.3,0-5.99-2.69-5.98-5.99l0.07-25.3h235.95l-0.07,25.3
			C372.8,419.37,370.1,422.06,366.8,422.06z"/>
		<g>
			<defs>
				<polygon id="SVGID_1_" points="144.61,383.52 144.92,264.43 365.14,264.43 364.82,383.52 				"/>
			</defs>
			<clipPath id="SVGID_00000107584501756002261950000010568347669633100683_">
				<use xlink:href="#SVGID_1_"  style="overflow:visible;"/>
			</clipPath>
			<polygon style="clip-path:url(#SVGID_00000107584501756002261950000010568347669633100683_);fill:#FFFFFF;" points="
				144.61,383.52 144.92,264.43 365.14,264.43 364.82,383.52 			"/>
		</g>
		<g>
			<g>
				<g>
					<path class="st21" d="M251.23,371.06h-87.18c-3.21,0-5.8-2.6-5.8-5.8v-79.91c0-3.21,2.6-5.8,5.8-5.8h87.18
						c3.21,0,5.8,2.6,5.8,5.8v79.91C257.04,368.47,254.44,371.06,251.23,371.06z"/>
					<path class="st20" d="M257.04,291.81h-98.79v-6.46c0-3.21,2.6-5.8,5.8-5.8h87.18c3.21,0,5.8,2.6,5.8,5.8V291.81z"/>
					<g>
						<path class="st19" d="M231.99,286.09c0,1.55-1.26,2.81-2.81,2.81s-2.81-1.26-2.81-2.81s1.26-2.81,2.81-2.81
							S231.99,284.54,231.99,286.09z"/>
						<path class="st23" d="M241.65,286.09c0,1.55-1.26,2.81-2.81,2.81c-1.55,0-2.81-1.26-2.81-2.81s1.26-2.81,2.81-2.81
							C240.39,283.28,241.65,284.54,241.65,286.09z"/>
						<path class="st24" d="M251.31,286.09c0,1.55-1.26,2.81-2.81,2.81c-1.55,0-2.81-1.26-2.81-2.81s1.26-2.81,2.81-2.81
							C250.05,283.28,251.31,284.54,251.31,286.09z"/>
					</g>
				</g>
			</g>
		</g>
		<g>
			<path id="XMLID_84_" class="st7" d="M358.56,327.5h-90.42c-1,0-1.81-0.81-1.81-1.81v-43.85c0-1,0.81-1.81,1.81-1.81h90.42
				c1,0,1.81,0.81,1.81,1.81v43.85C360.37,326.68,359.56,327.5,358.56,327.5z"/>
			<g>
				
					<ellipse transform="matrix(0.7071 -0.7071 0.7071 0.7071 -123.4973 309.3699)" class="st19" cx="311.69" cy="303.76" rx="14.13" ry="14.13"/>
				<path class="st7" d="M308.32,301.92v4.5c0,1.74,1.89,2.83,3.4,1.96l3.9-2.25c1.51-0.87,1.51-3.05,0-3.92l-3.9-2.25
					C310.21,299.09,308.32,300.18,308.32,301.92z"/>
			</g>
		</g>
	</g>
	<g>
		<g>
			<g>
				<path class="st2" d="M405.44,186.41l5.07-5.07h19.07c3.88,0,7.03-3.15,7.03-7.03v-1.52c0-3.88-3.15-7.03-7.03-7.03h-17.11
					c-3.88,0-7.03,3.15-7.03,7.03V186.41z"/>
				<g>
					<path class="st19" d="M426.48,173.35c0,0.97,0.78,1.75,1.75,1.75c0.97,0,1.75-0.79,1.75-1.75c0-0.97-0.78-1.75-1.75-1.75
						C427.27,171.6,426.48,172.38,426.48,173.35z"/>
					<path class="st19" d="M420.05,173.35c0,0.97,0.79,1.75,1.75,1.75c0.97,0,1.75-0.79,1.75-1.75c0-0.97-0.79-1.75-1.75-1.75
						C420.84,171.6,420.05,172.38,420.05,173.35z"/>
					<path class="st19" d="M413.62,173.35c0,0.97,0.79,1.75,1.75,1.75c0.97,0,1.75-0.79,1.75-1.75c0-0.97-0.79-1.75-1.75-1.75
						C414.41,171.6,413.62,172.38,413.62,173.35z"/>
				</g>
			</g>
			<path class="st4" d="M437.95,165.59c0,2-1.62,3.63-3.63,3.63c-2,0-3.63-1.62-3.63-3.63c0-2,1.62-3.63,3.63-3.63
				C436.33,161.96,437.95,163.59,437.95,165.59z"/>
		</g>
		<g>
			<g>
				<g>
					<path class="st25" d="M356.62,188.85"/>
					<path class="st9" d="M385.53,166.29c4.36-8.66-0.42-11.83-1.9-13.62c-3.37-4.62-10.11-8.17-14.77-7.77
						c0,0-6.17-2.05-11.28,3.06c-0.81,0.81-14.11,10.11,4.5,28.62"/>
					<g>
						<g>
							<path class="st9" d="M359.94,148.16c2.07-0.52,2.34-2.56,1.64-4.18c-0.73-1.68-1.36-4.47-3.85-3.59
								c-0.77,0.27-1.38,0.88-1.79,1.58c-0.96,1.66-1.78,0.25-3-0.38c-1.52-0.78-3.33,0.29-4.52,1.52c-0.62,0.64-1.2,1.36-1.42,2.22
								c-0.45,1.7,0.56,3.41,1.53,4.87c0.82,1.24,1.75,2.57,3.18,2.96c1.11,0.3,2.28-0.03,3.38-0.36c0.97-0.29,1.97-0.6,2.81-1.16
								c0.85-0.56,1.55-1.44,1.65-2.45"/>
						</g>
						<g>
							<path class="st9" d="M372.59,145.79c0.89-1.64,1.05-3.87,2.67-4.81c1.05-0.61,2.36-0.44,3.56-0.25
								c1.42,0.23,2.99,0.53,3.88,1.66c0.5,0.64,0.72,1.45,0.89,2.24c0.23,1.05,0.4,2.19-0.04,3.16c-0.57,1.25-1.96,1.87-3.23,2.38
								c-0.52,0.21-1.09,0.42-1.63,0.25c-0.8-0.25-1.13-1.22-1.8-1.71"/>
						</g>
					</g>
					<path class="st26" d="M362.83,164.67c-0.1,0.29-0.41,0.44-0.7,0.33c-1.2-0.46-3.54-1.56-5.05,1.46
						c-0.77,1.53-0.14,3.45,1.1,4.23c0.98,0.61,2.49,1.22,3.28,1.08c0.65,1.6-0.42,12.99-1.32,13.9c-5.53,5.63-6.87,5.54-6.87,5.54
						s19.54,30.66,20.06,4.91c0,0,2.55-15.35,2.68-15.33c1.84,0.33,8.77,0.36,9.75-13.09c0.9-12.46-7.63-14.75-9.86-15.16
						C374.02,152.2,367.75,150.28,362.83,164.67z"/>
					<path class="st27" d="M375.97,180.82l-5.28-1.16l0.33,0.65C372,182.28,374.59,182.54,375.97,180.82L375.97,180.82z"/>
					<path class="st9" d="M382.33,152.39c1.36,2.55-1.55,9.58-7.49,5.58c-2.12-1.43-4.73,4.48-7.11,5.46
						c-4.21,1.73-5.71,0.79-6.43-0.97C361.3,162.46,373.64,136.06,382.33,152.39z"/>
					<path class="st9" d="M381.75,152.8c0,0,0.96,5.03,4.48,9.08C386.23,161.88,389.49,155.23,381.75,152.8z"/>
					<g>
						<path class="st27" d="M361.97,168.35c-1.57-5.16-3.75-1.41-3.75-1.41L361.97,168.35z"/>
						<path class="st28" d="M374.24,168.19c1.57,0.55,2.39,2.26,1.84,3.83c-0.55,1.57-2.26,2.39-3.83,1.84
							c-1.57-0.55-2.39-2.26-1.84-3.83C370.95,168.47,372.67,167.65,374.24,168.19z"/>
						<path class="st28" d="M384.09,175.26c-1.2-0.72-1.77-2.2-1.29-3.57c0.37-1.06,1.67-1.59,2.7-1.78
							C385.5,169.9,385.36,173.35,384.09,175.26z"/>
						<path d="M376.32,164.1c-0.65,0.2,1.33-0.8,2.12-0.77c0.79,0.04,1.6,0.4,1.57,1.09C380.01,164.42,377.89,163.61,376.32,164.1z"
							/>
						<path d="M385.65,166.6c0.41,0.54-0.03-0.91-0.7-1.34c-0.67-0.43-1.54-0.58-1.91-0.01
							C383.04,165.25,384.65,165.29,385.65,166.6z"/>
						<path d="M378.25,168.72c-0.19,0.69-0.06,1.32,0.27,1.41c0.33,0.09,0.75-0.4,0.94-1.08c0.19-0.69,0.06-1.32-0.27-1.41
							C378.85,167.55,378.43,168.04,378.25,168.72z"/>
						<path d="M382.51,169.67c-0.18,0.66-0.06,1.26,0.26,1.34c0.32,0.09,0.72-0.38,0.9-1.03c0.18-0.66,0.06-1.26-0.26-1.34
							C383.08,168.55,382.68,169.01,382.51,169.67z"/>
						<polygon class="st27" points="381.27,167.33 381.76,171.91 379.62,171.42 						"/>
						<path class="st19" d="M377.98,171.95l4.58,0.97c0,0-1.66,2.34-3.02,1.56C378.18,173.7,377.98,171.95,377.98,171.95z"/>
					</g>
					<g>
						<path class="st29" d="M361.3,146.19c0.48-0.6,0.51-1.44,0.47-2.21c-0.08-1.6-0.48-3.34-1.76-4.29
							c-0.77-0.57-1.79-0.77-2.71-0.53c-0.92,0.24-1.73,0.9-2.13,1.77c-0.22,0.48-0.33,1.03-0.64,1.46
							c-0.58,0.82-1.69,1.02-2.68,1.16"/>
						<path class="st29" d="M381.64,141.86c1.35,0.71,2.84,1.59,3.23,3.07c0.09,0.35,0.11,0.71,0.12,1.06
							c0.02,0.59,0,1.18-0.04,1.77c-0.04,0.55-0.12,1.12-0.4,1.59c-0.46,0.8-1.4,1.22-2.32,1.27c-0.92,0.06-1.82-0.2-2.7-0.46"/>
						<path class="st29" d="M383.14,155.06c0.19,1.54-0.52,3.16-1.77,4.07c-1.26,0.91-3.01,1.08-4.42,0.43
							c-1.3-0.6-2.22-1.8-3.45-2.54c-1.37-0.82-3.09-1.02-4.61-0.52"/>
						<path class="st29" d="M366.06,160.59c-1.11,0.52-2.24,1.11-3.01,2.06c-0.77,0.95-1.1,2.37-0.47,3.42
							c0.44,0.73,1.23,1.14,1.91,1.65c0.68,0.51,1.32,1.27,1.2,2.11c-0.16,1.09-1.43,1.57-2.28,2.27c-1.1,0.91-1.6,2.48-1.23,3.86
							c0.21,0.78,0.71,1.51,1.45,1.82c0.74,0.31,1.72,0.08,2.11-0.62"/>
					</g>
				</g>
				<g>
					<path class="st26" d="M371.21,428.45l2.4,20.73c0,0,5.65,6.22,8.6,2.6c1.48-1.81,6.19-3.86,6.9-4.93
						c-1.61-0.9-5.47-3.49-5.47-3.49l0.9-15.32L371.21,428.45z"/>
					<path class="st27" d="M378.94,428.97l-0.23,4.35c0,0-5.11,16.75-5.55,14.78l-1.63-18.11L378.94,428.97z"/>
					<path class="st4" d="M383.82,442.99l14.17,9.23c0.6,0.45,0.17,1.2-0.69,1.21c0,0-25.51-0.15-25.55-0.52
						c-0.23-2.31,0.87-7.16,0.87-7.49c0-1.21,3.69,2.3,6.2,3.02C380.17,447.98,383.42,442.7,383.82,442.99z"/>
				</g>
				<g>
					<path class="st26" d="M315.96,428.75l-4.97,18.55c0,0,5.91,8.1,8.87,4.48c1.48-1.81,6.19-3.86,6.9-4.93
						c-1.61-0.9-5.47-3.49-5.47-3.49l5.55-14.87L315.96,428.75z"/>
					<path class="st27" d="M320.12,428.48l-0.27,1.61c0,0-8.6,19.98-9.05,18.01l3.14-19.62H320.12z"/>
					<path class="st4" d="M321.47,442.99l14.17,9.23c0.6,0.45,0.17,1.2-0.69,1.21c0,0-27.55-0.4-27.59-0.77
						c1.21-2.96,2.59-9.18,4.07-11.6c0.16-0.26,2.02,4.15,4.53,4.86C317.3,445.47,321.06,442.7,321.47,442.99z"/>
				</g>
				<g>
					<path class="st9" d="M347.22,242.17c-5.41,9.57-8.27,16.57-11.38,28.73c-3.61,14.1-30.5,133.41-32.2,159.06
						c4.44,1.07,32.14,0.36,34.95,0.2c5.38-25.37,22.22-115.74,26.06-131.87c0.59-2.48,4.76-1.87,4.12,0.6
						c-5.72,21.92-9.43,103.8-11.58,131.75c7.26,0.4,27.63-0.71,30.32-1.05c2.93-31.59,17.86-149.44-5.59-188.21
						C371.19,239.92,358.1,241.85,347.22,242.17z"/>
					<g class="st30">
						<path class="st12" d="M351.52,364.26c0.95-4.91,1.89-9.81,2.82-14.61c-13.97,0.75-16.02,14.97-14.7,26.52
							c0.76,6.63,2.52,14.14,5.54,20.92c1.87-9.61,3.9-20.17,5.94-30.73C351.08,365.65,351.2,364.93,351.52,364.26z"/>
						<path class="st12" d="M389.92,294.68c1.33,4.25,2.82,8.46,4.77,12.45c-0.46-15.48-1.78-30.13-4.43-42.48
							C382.16,269.9,387.73,287.65,389.92,294.68z"/>
						<path class="st12" d="M372.74,340.36c2.67-8.95-1.16-16.93-6.99-23.43c-1.33,10.88-2.53,24.56-3.59,38.81
							C366.91,351.5,370.93,346.42,372.74,340.36z"/>
						<path class="st12" d="M375.48,394.44c0.34,10.48,5.69,20.56,12.71,28.2c1.22-11.99,3.16-30.21,4.64-50.79
							C382.09,375.09,375.11,382.83,375.48,394.44z"/>
						<path class="st12" d="M341.1,316.12c1.73-7.23,1.91-15.82,0.01-23.02c-1.33-5.07-3.99-9.45-7.42-13.22
							c-3.02,12.97-8.33,36.56-13.66,61.5C330.1,335.84,338.28,327.92,341.1,316.12z"/>
					</g>
					<path class="st31" d="M380.51,245.6c0,0,9.55,23.64,9.55,57.01s-9.74,117.5-9.74,117.5"/>
					<line class="st31" x1="314.95" y1="417.1" x2="352.51" y2="244.51"/>
					<path class="st31" d="M359.2,245.44c0,0-0.32,30.57-14.04,28.16"/>
					<path class="st32" d="M381.76,246.22l-44.16,33.25c0,0-1.84-17.95,6-32.67L381.76,246.22z"/>
					<path class="st31" d="M390.89,274.38c-13.72,2.41-14.74-27.39-14.74-27.39"/>
				</g>
				<line class="st31" x1="358.71" y1="419.11" x2="387.88" y2="420.11"/>
				<line class="st31" x1="304.48" y1="417.03" x2="341.6" y2="418.61"/>
				<g>
					<path class="st26" d="M403.71,223.25c0.14,0.59,13.88-13.89,13.88-13.89s12.24-16.18,13.09-15.26
						c1.24,1.34-3.51,8.56-3.51,8.56s0.31,0.82,1.24,1.24c0.93,0.41,1.44,1.03,1.75,2.27c0.31,1.24,1.55,1.96,1.75,2.68
						c0.21,0.72-4.4,6.15-7.01,8.04c0,0-4.45,6.17-10.41,13.63"/>
					<path class="st26" d="M418.01,209.27c0,0,2.47-7.01,3.51-6.8c1.03,0.21,5.57,2.16,5.46,3.92c-0.1,1.75-4.02,0.31-4.02,0.31
						s0.72,3.92-1.24,4.43C419.76,211.64,418.01,209.27,418.01,209.27z"/>
					<g>
						<path class="st27" d="M424.01,207.14c0,0-0.13,1.05,1.32,1.36c0,0,0.32,2.21,2.18,1.8c0,0-0.33,1.07,0.81,1.28
							C428.31,211.58,423.28,216.94,424.01,207.14z"/>
						<g>
							<path class="st27" d="M423.17,202.96c0.99,0.32,1.95,0.72,2.9,1.14c0.49,0.22,0.93,0.38,1.43,0.73
								c0.23,0.18,0.49,0.4,0.62,0.8c0.14,0.4-0.05,0.88-0.3,1.11c-0.52,0.45-1.05,0.6-1.61,0.72c-0.55,0.1-1.09,0.12-1.62,0.08
								c-0.26-0.02-0.56-0.04-0.57-0.02c-0.03-0.11-0.01,0.26,0.03,0.5c0.03,0.52,0.09,1.03,0.1,1.56l-0.05,0.01l-0.29-1.52
								l-0.07-0.38c-0.03-0.12-0.03-0.29,0.08-0.39c0.24-0.18,0.52-0.09,0.77-0.11c1.01,0,2.12-0.09,2.9-0.76
								c0.18-0.17,0.27-0.42,0.2-0.66c-0.07-0.24-0.25-0.43-0.45-0.58c-0.4-0.31-0.9-0.5-1.35-0.75l-2.75-1.42L423.17,202.96z"/>
						</g>
						<g>
							<path class="st27" d="M427.31,202.48c-0.01,0.24-0.09,0.43-0.17,0.61c-0.09,0.18-0.22,0.31-0.33,0.46
								c-0.16,0.11-0.29,0.25-0.47,0.34c-0.18,0.09-0.37,0.17-0.62,0.2l-0.03-0.03c0.51-0.55,1.04-1.09,1.59-1.61L427.31,202.48z"/>
						</g>
						<g>
							<path class="st27" d="M429.4,205.08c-0.23,0.52-0.55,0.97-0.91,1.4c-0.36,0.43-0.78,0.79-1.2,1.15
								c-0.47,0.31-0.89,0.63-1.44,0.88c-0.28,0.11-0.6,0.2-0.93,0.16c-0.31-0.06-0.63-0.24-0.73-0.53l0.04-0.03
								c0.35,0.44,1.01,0.36,1.45,0.08c0.46-0.27,0.9-0.6,1.32-0.93c0.86-0.65,1.65-1.4,2.36-2.21L429.4,205.08z"/>
						</g>
						<g>
							<path class="st27" d="M425.37,208.44c0.26,0.57,0.54,1.18,0.97,1.33c0.39,0.17,0.89-0.04,1.33-0.39
								c0.47-0.3,0.89-0.77,1.35-1.18c0.46-0.41,0.92-0.83,1.44-1.22l0.04,0.03c-0.39,0.49-0.79,0.97-1.21,1.43
								c-0.42,0.46-0.84,0.93-1.35,1.31c-0.49,0.35-1.19,0.67-1.78,0.33c-0.58-0.35-0.72-1.05-0.84-1.64L425.37,208.44z"/>
						</g>
						<g>
							<path class="st27" d="M427.66,210.1c0.15,0.33,0.32,0.61,0.51,0.75c0.13,0.07,0.12,0.07,0.27,0.09
								c0.12,0.02,0.25,0.01,0.39-0.01c0.28,0.01,0.54-0.09,0.92-0.14c0.18-0.01,0.32-0.01,0.45-0.05c0.15-0.01,0.3-0.1,0.47-0.16
								l0.03,0.03c-0.21,0.27-0.53,0.46-0.86,0.53c-0.32,0.09-0.64,0.23-0.99,0.25c-0.33,0.01-0.73-0.03-0.96-0.33
								c-0.21-0.28-0.3-0.63-0.29-0.97L427.66,210.1z"/>
						</g>
					</g>
				</g>
				<path class="st21" d="M375.52,190.76c0,0,9.62-0.73,12.48,5.12c2.86,5.85,8.72,28.33,8.72,28.33l19.08-15.05l9.41,15.59
					c0,0-27.72,31.27-34.94,29.03C383.05,251.53,375.44,198.74,375.52,190.76z"/>
				<path class="st26" d="M387.88,195.65c-3-5.6-12.36-4.89-12.36-4.89l5.38,8.49C383.23,198.05,385.55,196.85,387.88,195.65z"/>
				<g>
					<path class="st21" d="M374.57,189.23c1.46,1.46,14.17,25.63,14.48,33.06c0.34,8.21-1.51,28.17-1.51,28.17
						s-43.09,0.34-43.92,0.67c-2.42-22.04-1.92-50.73,3.99-54.22c0,0,9.72-9.86,11.4-10.89
						C359.01,186.01,373.41,194.34,374.57,189.23z"/>
				</g>
				<g>
					<path class="st20" d="M350.49,200.07c-1.07,1.07-2.87-3.17-2.87-3.17c-5.91,3.49-6.41,32.18-3.99,54.22
						c0.84-0.34,43.92-0.67,43.92-0.67s0.37-4,0.75-9.15C375.33,225.9,363.65,215.29,350.49,200.07z"/>
				</g>
			</g>
			<g>
				<path class="st19" d="M396.2,225.24l1.48-21.2c0.07-0.97,0.56-1.85,1.35-2.42l10.59-7.62c1.31-0.95,2.75,0.3,2.56,1.91
					l-1.64,17.51c-0.1,1.16-0.67,2.22-1.57,2.92l-11.17,9.06C397.45,225.68,396.16,225.7,396.2,225.24z"/>
				<path class="st2" d="M397.47,225.72l1.54-22.01c0.06-0.74,0.43-1.42,1.03-1.86l10.64-7.53c0.8-0.57,1.71,0.27,1.65,1.24
					l-1.74,18.18c-0.16,1.24-0.33,1.84-1.3,2.63C405.92,219.14,397.44,226.08,397.47,225.72z"/>
				<g>
					<path class="st33" d="M409.89,198.23c-0.07,0.3,0.04,0.59,0.25,0.63c0.21,0.05,0.43-0.16,0.5-0.46
						c0.07-0.3-0.04-0.59-0.25-0.63C410.18,197.73,409.96,197.93,409.89,198.23z"/>
					<path class="st34" d="M409.73,198.2c-0.1,0.43,0.06,0.83,0.36,0.9c0.29,0.07,0.61-0.22,0.71-0.65c0.1-0.43-0.06-0.83-0.36-0.9
						C410.15,197.48,409.83,197.77,409.73,198.2z"/>
				</g>
				<path class="st35" d="M398.39,204.86l-0.04-0.02c-0.2-0.1-0.43,0.03-0.45,0.25l-0.17,2.68c-0.01,0.12,0.06,0.24,0.17,0.29l0,0
					c0.19,0.1,0.43-0.03,0.44-0.25l0.21-2.66C398.56,205.03,398.5,204.92,398.39,204.86z"/>
				<path class="st35" d="M398.13,208.68l-0.04-0.02c-0.2-0.1-0.43,0.03-0.45,0.25l-0.17,2.68c-0.01,0.12,0.06,0.24,0.17,0.29l0,0
					c0.19,0.1,0.43-0.03,0.44-0.25l0.21-2.66C398.3,208.86,398.24,208.74,398.13,208.68z"/>
				<polygon class="st25" points="397.07,211.76 398.62,213.94 396.49,217.08 				"/>
			</g>
			<path class="st26" d="M391.15,238.73c11.17-12.19,17-21.07,18.13-22.66c0.65-0.91,2.31-3.85,2.03-4.22
				c-0.63-0.84-4.05,5-4.01,4.66c0.04-0.34,4.61-6.61,4.12-7.3c-0.74-1.04-5.71,6.04-5.8,6.16c-1.35,1.75,5.02-6.59,4.68-7.43
				c-0.34-0.84-3.5,2.77-3.62,2.89c0,0-2.53,3.25-2.81,3.11c-0.28-0.13,3.39-8.55,2.43-8.48c-0.97,0.07-4.23,5.88-5.08,7.15
				c-0.84,1.27-2.5,2.7-3.14,2.74c-0.54,0.04-1.49-2.11-1.24-3.38c0,0-1.99,3.38-2.25,5.88c-0.14,1.32-0.03,2.93-0.03,2.93l-9.48,10
				L391.15,238.73z"/>
			<path class="st21" d="M357.09,204.32c0,0-5.66-11.24-10.25-6.72c-7.77,7.64-3.51,34.76,19.27,58.58
				c7.4,7.74,36.35-25.61,36.35-25.61l-11.25-11.02l-16.09,16.05L357.09,204.32z"/>
			<path class="st26" d="M356.86,203.89c-1.1-2.01-5.98-10.27-10.02-6.29c-3.04,2.99-4.23,8.97-3.2,16.57
				C347.94,210.61,352.36,207.19,356.86,203.89z"/>
			<g>
				<line class="st36" x1="388.03" y1="445.68" x2="385.17" y2="450.52"/>
				<line class="st36" x1="386.24" y1="444.61" x2="383.38" y2="449.45"/>
			</g>
			<g>
				<line class="st36" x1="325.68" y1="445.68" x2="322.81" y2="450.52"/>
				<line class="st36" x1="323.89" y1="444.61" x2="321.02" y2="449.45"/>
			</g>
			<g>
				<g>
					<polygon class="st4" points="301.38,430.77 304.11,411.29 343.47,412.07 341.52,431.16 					"/>
					<path class="st4" d="M316.57,426.6c-5.85-3.89-10-9.06-12.51-15l-2.68,19.17l23.71,0.23
						C322.11,429.83,319.25,428.38,316.57,426.6z"/>
				</g>
				<g>
					<polygon class="st4" points="352.82,430.77 355.55,411.29 394.91,412.07 392.96,431.16 					"/>
					<path class="st4" d="M365.88,422.97c-3.69-3.15-6.46-7.21-8.55-11.64l-1.78-0.04l-2.68,19.36c2.06,0.41,28.74,0.4,28.74,0.4
						C375.89,429.39,370.41,426.83,365.88,422.97z"/>
				</g>
			</g>
		</g>
	</g>
	<g>
		<path class="st19" d="M330.49,361.85H194.88c-3.82,0-6.92-3.1-6.92-6.92l0,0c0-3.82,3.1-6.92,6.92-6.92h135.61
			c3.82,0,6.92,3.1,6.92,6.92l0,0C337.41,358.76,334.31,361.85,330.49,361.85z"/>
		<path class="st4" d="M330.49,348.02h-25.1c3.82,0,6.92,3.1,6.92,6.92c0,3.82-3.1,6.92-6.92,6.92h25.1c3.82,0,6.92-3.1,6.92-6.92
			C337.41,351.12,334.31,348.02,330.49,348.02z"/>
		<path class="st37" d="M330.49,361.85H194.88c-3.82,0-6.92-3.1-6.92-6.92l0,0c0-3.82,3.1-6.92,6.92-6.92h135.61
			c3.82,0,6.92,3.1,6.92,6.92l0,0C337.41,358.76,334.31,361.85,330.49,361.85z"/>
		<path class="st19" d="M327.33,357.63l-1.5-1.5c0.85-1.32,0.7-3.1-0.46-4.25c-1.33-1.33-3.49-1.33-4.82,0
			c-1.33,1.33-1.33,3.49,0,4.82c1.15,1.15,2.93,1.31,4.25,0.46l1.5,1.5c0.28,0.28,0.75,0.28,1.03,0
			C327.62,358.37,327.62,357.91,327.33,357.63z M321.4,355.86c-0.87-0.87-0.87-2.27,0-3.14c0.87-0.87,2.27-0.87,3.14,0
			c0.87,0.87,0.87,2.27,0,3.14C323.67,356.72,322.26,356.72,321.4,355.86z"/>
	</g>
</g>
<g id="TEXTS">
	<text transform="matrix(1 0 0 1 194.8047 356.7295)" class="st9 st38 st39">www.internetday.com</text>
</g>
</svg>
