<?xml version="1.0" encoding="utf-8"?>
<!-- Generator: Adobe Illustrator 27.7.0, SVG Export Plug-In . SVG Version: 6.00 Build 0)  -->
<svg version="1.1" xmlns="http://www.w3.org/2000/svg" xmlns:xlink="http://www.w3.org/1999/xlink" x="0px" y="0px"
	 viewBox="0 0 500 500" style="enable-background:new 0 0 500 500;" xml:space="preserve">
<style type="text/css">
	.st0{fill:#00394A;}
	.st1{fill:#CFD1D1;}
	.st2{fill:#BFBFBF;}
	.st3{fill:#99CEF2;}
	.st4{fill:#3061C4;}
	.st5{fill:#EFF3F4;}
	.st6{fill:#151E35;}
	.st7{fill:#555557;}
	.st8{opacity:0.54;fill:#F9B7BD;}
	.st9{opacity:0.26;fill:#EFF3F4;}
	.st10{fill:#FC3D3D;}
	.st11{fill:#FFFFFF;}
	.st12{opacity:0.37;fill:#420005;}
	.st13{fill:#1D70CC;}
	.st14{fill:#0F2A6B;}
	.st15{opacity:0.49;fill:#FCFAB6;}
	.st16{opacity:0.19;fill:#074289;}
	.st17{opacity:0.27;fill:#00264C;}
	.st18{fill:#7F3F35;}
	.st19{fill:#E59C61;}
	.st20{opacity:0.22;fill:#750606;}
	.st21{fill:#D14286;}
	.st22{opacity:0.28;fill:#04048E;}
	.st23{fill:#00D1B3;}
	.st24{opacity:0.51;}
	.st25{fill:none;stroke:#242442;stroke-linecap:round;stroke-linejoin:round;stroke-miterlimit:10;}
	.st26{opacity:0.28;fill:#5B068C;}
	.st27{opacity:0.31;}
	.st28{fill:#F90D2F;}
	.st29{fill:#F4B882;}
	.st30{opacity:0.22;fill:#FFFF57;}
	.st31{opacity:0.47;}
	.st32{opacity:0.58;}
	.st33{fill:#682702;}
	.st34{fill:none;stroke:#682702;stroke-width:2;stroke-linecap:round;stroke-linejoin:round;stroke-miterlimit:10;}
	.st35{fill:#770520;}
	.st36{fill:#FFF6CA;}
	.st37{fill:#FC5E9E;}
	.st38{fill:#FFCE00;}
	.st39{fill:#242442;}
	.st40{opacity:0.18;fill:#000038;}
	.st41{opacity:0.54;}
	.st42{opacity:0.3;fill:#FCF986;}
	.st43{opacity:0.49;}
	.st44{opacity:0.1;fill:#03FFD5;}
	.st45{opacity:0.15;fill:#FFFFFF;}
	.st46{opacity:0.28;fill:#10006B;}
	.st47{opacity:0.35;fill:#FFFF73;}
	.st48{fill:#894437;}
	.st49{opacity:0.39;}
	.st50{opacity:0.28;fill:#074289;}
	.st51{fill:#008584;}
	.st52{opacity:0.49;fill:#FFFF57;}
	.st53{fill:#10213F;}
	.st54{opacity:0.19;fill:#FFCE00;}
	.st55{fill:#FBCC0A;}
	.st56{fill:none;stroke:#28000C;stroke-width:1.4108;stroke-linecap:round;stroke-linejoin:round;stroke-miterlimit:10;}
	.st57{fill:#420005;}
	.st58{fill:none;stroke:#28000C;stroke-width:0.9366;stroke-linecap:round;stroke-linejoin:round;stroke-miterlimit:10;}
	.st59{fill:#260005;}
	.st60{fill:none;stroke:#28000C;stroke-width:1.2261;stroke-linecap:round;stroke-linejoin:round;stroke-miterlimit:10;}
	.st61{fill:none;stroke:#28000C;stroke-width:0.9787;stroke-linecap:round;stroke-linejoin:round;stroke-miterlimit:10;}
	.st62{fill:#28000C;}
	.st63{opacity:0.5;}
	.st64{fill:none;stroke:#720101;stroke-width:1.3511;stroke-linecap:round;stroke-linejoin:round;stroke-miterlimit:10;}
	.st65{fill:none;stroke:#720101;stroke-width:2.1094;stroke-linecap:round;stroke-linejoin:round;stroke-miterlimit:10;}
	.st66{opacity:0.49;fill:#FFFED4;}
	.st67{fill:none;stroke:#28000C;stroke-width:0.5431;stroke-linecap:round;stroke-linejoin:round;stroke-miterlimit:10;}
	.st68{fill:#3381FF;}
	.st69{opacity:0.21;fill:#420005;}
	.st70{opacity:0.28;fill:#08FCFC;}
</style>
<g id="BACKGROUND">
	<rect class="st0" width="500" height="500"/>
</g>
<g id="OBJECTS">
	<g>
		<g>
			<polygon class="st1" points="414.45,372.51 414.45,387.51 414.41,387.49 401.37,380.08 405.25,377.84 			"/>
			<polygon class="st1" points="102.56,379.15 102.56,364.15 110.81,374.01 			"/>
			<path class="st1" d="M414.45,386.81c0,0.23-0.01,0.45-0.04,0.68c-0.25,2.29-1.79,4.43-4.37,5.15c-3.8,1.06-8.48,2.37-13.87,3.87
				c-4.7,1.31-9.94,2.77-15.61,4.35c-4.45,1.24-9.17,2.55-14.09,3.92c-31.73,8.81-72.09,19.94-106.23,29.16
				c-1.84,0.49-3.66,0.99-5.46,1.47c-14.78,3.98-28.18,7.54-38.92,10.31c-4.17,1.07-7.94,2.03-11.23,2.84
				c-1.52,0.37-3.07,0.48-4.59,0.31c-2.1-0.21-4.13-0.91-5.94-2.08c-16.04-10.38-67.43-44.03-89.27-62.72
				c-1.57-1.34-2.29-3.14-2.28-4.92c0-2.82,1.81-5.58,4.97-6.35c0.61-0.15,1.24-0.3,1.89-0.46c0.36-0.09,0.73-0.18,1.11-0.27
				c0.02-0.01,0.05-0.02,0.08-0.02c9.87-2.42,24.34-5.91,41.76-10.02l5.53-1.3c32.05-7.52,72.96-16.81,113.59-25.23l12.23-2.5h0.01
				c4.54-0.93,9.05-1.83,13.54-2.72c6.86-1.35,13.65-2.66,20.34-3.92c3-0.56,6.06-0.42,8.94,0.38h0.01l13.58,7.78l0.08,0.05
				c13.7,8.45,34.26,21.49,54.48,35.7c3.54,2.49,7.08,5.02,10.56,7.57c2.92,2.12,5.81,4.27,8.64,6.42v0.01
				C414.27,385.08,414.45,385.95,414.45,386.81z"/>
		</g>
		<path class="st2" d="M414.45,372.51v15l-0.04-0.02c-0.25,2.29-1.79,4.43-4.37,5.15c-3.8,1.06-8.48,2.37-13.87,3.87
			c-4.7,1.31-9.94,2.77-15.61,4.35c-4.45,1.24-9.17,2.55-14.09,3.92c-31.73,8.81-72.09,19.94-106.23,29.16
			c-1.84,0.49-3.66,0.99-5.46,1.47c-14.78,3.98-28.18,7.54-38.92,10.31c-4.17,1.07-7.94,2.03-11.23,2.84
			c-1.52,0.37-3.07,0.48-4.59,0.31v-29.19l194.65-49.41c3.54,2.49,7.08,5.02,10.56,7.57L414.45,372.51z"/>
		<path class="st3" d="M410.04,377.66c-3.8,1.06-8.48,2.37-13.87,3.87c-4.7,1.31-9.94,2.77-15.61,4.35
			c-4.45,1.24-9.17,2.55-14.09,3.92c-31.73,8.81-72.09,19.94-106.23,29.16c-1.84,0.49-3.66,0.99-5.46,1.47
			c-14.78,3.98-28.18,7.54-38.92,10.31c-4.17,1.07-7.94,2.03-11.23,2.84c-3.61,0.89-7.41,0.25-10.53-1.77
			c-16.04-10.38-67.43-44.03-89.27-62.72c-4.04-3.45-2.46-10.01,2.69-11.27c0.95-0.23,1.94-0.48,3-0.73
			c0.02-0.01,0.05-0.02,0.08-0.02c9.87-2.42,24.34-5.91,41.76-10.02l5.53-1.3c32.05-7.52,72.96-16.81,113.59-25.23l12.23-2.5h0.01
			c4.54-0.93,9.05-1.83,13.54-2.72c6.86-1.35,13.65-2.66,20.34-3.92c3-0.56,6.06-0.42,8.94,0.38h0.01l13.58,7.78l0.08,0.05
			c18.11,11.17,48.23,30.38,73.68,49.69v0.01C415.38,372.47,413.84,376.6,410.04,377.66z"/>
		<path class="st4" d="M254.78,420.43c-14.78,3.98-28.18,7.54-38.92,10.31l-105.34-73.65l-0.51-0.36l0.09-0.01l0.5,0.35
			c9.87-2.42,24.34-5.91,41.76-10.02L254.78,420.43z"/>
		<path class="st5" d="M410.04,377.66c-3.8,1.06-8.48,2.37-13.87,3.87l-98.91-66.23c6.86-1.35,13.65-2.66,20.34-3.92
			c3-0.56,6.06-0.42,8.94,0.38h0.01l13.58,7.78l0.08,0.05c18.11,11.17,48.23,30.38,73.68,49.69v0.01
			C415.38,372.47,413.84,376.6,410.04,377.66z"/>
		<path class="st5" d="M215.86,430.74c-4.17,1.07-7.94,2.03-11.23,2.84c-3.61,0.89-7.41,0.25-10.53-1.77
			c-16.04-10.38-67.43-44.03-89.27-62.72c-4.04-3.45-2.46-10.01,2.69-11.27c0.95-0.23,1.94-0.48,3-0.73l-0.51-0.36l0.09-0.01
			l0.5,0.35L215.86,430.74z"/>
		<path class="st6" d="M260.24,418.96c-1.84,0.49-3.66,0.99-5.46,1.47l-102.42-73.38l5.53-1.3L260.24,418.96z"/>
		<path class="st4" d="M380.56,385.88c-4.45,1.24-9.17,2.55-14.09,3.92l-94.99-69.28l12.23-2.5h0.01L380.56,385.88z"/>
		<path class="st6" d="M396.17,381.53c-4.7,1.31-9.94,2.77-15.61,4.35l-96.84-67.86c4.54-0.93,9.05-1.83,13.54-2.72L396.17,381.53z"
			/>
		<g>
			<g>
				<path class="st7" d="M362.59,348.01c-0.37,0-0.75-0.1-1.08-0.32l-26.7-17.21c-0.93-0.6-1.2-1.84-0.6-2.76
					c0.6-0.93,1.83-1.2,2.76-0.6l26.7,17.21c0.93,0.6,1.2,1.84,0.6,2.76C363.89,347.69,363.25,348.01,362.59,348.01z"/>
			</g>
		</g>
		<path class="st8" d="M362.22,378.92c-0.72,1.5-2.92,1.95-4.9,1c-1.99-0.95-3.01-2.94-2.29-4.45c0.72-1.5,2.92-1.95,4.9-1
			C361.91,375.42,362.94,377.41,362.22,378.92z"/>
		<g>
			<ellipse class="st7" cx="381.37" cy="359.28" rx="3.38" ry="2.25"/>
			<ellipse class="st7" cx="388.87" cy="365.03" rx="3.38" ry="2.25"/>
		</g>
		<path class="st5" d="M144.04,368.68c0,0,2.95-7.21,6.2-7.93s2,3.97,2,3.97s5.75-1.94,6.25,2.56S144.04,368.68,144.04,368.68z"/>
		<g>
			<g>
				<path class="st5" d="M364.33,385.11c0,0.37-0.3,0.67-0.67,0.67s-0.67-0.3-0.67-0.67c0-0.37,0.3-0.67,0.67-0.67
					S364.33,384.74,364.33,385.11z"/>
				<path class="st5" d="M368.16,383.78c0,0.37-0.3,0.67-0.67,0.67c-0.37,0-0.67-0.3-0.67-0.67s0.3-0.67,0.67-0.67
					C367.86,383.11,368.16,383.41,368.16,383.78z"/>
				<circle class="st5" cx="370.83" cy="382.75" r="0.67"/>
			</g>
		</g>
		<g>
			<g>
				<circle class="st5" cx="173.44" cy="386.68" r="1.57"/>
				<path class="st5" d="M182.4,383.65c0,0.87-0.7,1.57-1.57,1.57c-0.87,0-1.57-0.7-1.57-1.57s0.7-1.57,1.57-1.57
					C181.7,382.09,182.4,382.79,182.4,383.65z"/>
				<path class="st5" d="M181.18,391.35c0,0.87-0.7,1.57-1.57,1.57c-0.87,0-1.57-0.7-1.57-1.57c0-0.87,0.7-1.57,1.57-1.57
					C180.48,389.79,181.18,390.49,181.18,391.35z"/>
			</g>
			<g>
				<path class="st5" d="M179,391.41c-0.1,0-0.2-0.03-0.29-0.09l-5.45-4.22c-0.14-0.1-0.22-0.27-0.21-0.44
					c0.01-0.17,0.11-0.33,0.27-0.41l7.07-2.73c0.25-0.13,0.55-0.03,0.67,0.21c0.13,0.25,0.03,0.55-0.21,0.67l-6.35,2.35l4.79,3.74
					c0.22,0.16,0.27,0.47,0.11,0.7C179.31,391.34,179.15,391.41,179,391.41z"/>
			</g>
		</g>
		<g>
			<g>
				<path class="st5" d="M172.8,379.55c-0.95,1.99-4.58,2.24-8.1,0.56c-3.52-1.68-5.59-4.67-4.64-6.66c0.95-1.99,4.58-2.24,8.1-0.56
					C171.68,374.58,173.75,377.56,172.8,379.55z"/>
				<polygon class="st5" points="159.98,375.42 158.19,378.19 162.16,377.97 				"/>
			</g>
		</g>
		<polygon class="st9" points="173.05,400 270.45,416.2 296.5,409.61 151.27,384.45 		"/>
		<polygon class="st9" points="114.86,361.53 335.78,400.22 375.07,387.51 145.18,348.01 110.52,357.09 		"/>
		<polygon class="st9" points="187.03,339.96 380.68,371.16 366.83,361.53 201.67,334.7 		"/>
	</g>
	<g>
		<g>
			<path class="st10" d="M350.34,240.91c-0.12,7.04-5.93,12.64-12.97,12.52c-7.04-0.12-12.64-5.93-12.52-12.97
				c0.12-7.04,5.93-12.64,12.97-12.52C344.86,228.07,350.46,233.87,350.34,240.91z"/>
			<path class="st11" d="M338.01,246.99c0,0-7.37-1.63-7.11-6.57c0.26-4.94,5.81-3.96,6.31-2.1c0,0,3.52-4.18,6.72-0.5
				C347.14,241.5,339.96,245.97,338.01,246.99z"/>
		</g>
		<g>
			<path class="st12" d="M336.6,253.92c7.19,0.61,13.51-4.73,14.11-11.92c0.41-4.89-1.94-9.4-5.77-11.95
				c0.47,0.61,5.69,7.56-1.96,14.67c-0.58,0.55-1.24,1.09-1.98,1.64c-0.91,0.66-1.77,1.18-2.58,1.6c-1.29,0.65-2.48,1.02-3.58,1.17
				c-0.64,0.11-1.25,0.12-1.82,0.07c-5.37-0.4-7.87-6.05-7.87-6.05s-0.02,0.55,0.03,1.47C326.66,249.61,331.09,253.45,336.6,253.92z
				"/>
		</g>
	</g>
	<g>
		<g>
			<path class="st10" d="M197.26,320.62c1.03,4.85-2.07,9.62-6.93,10.65c-4.85,1.03-9.62-2.07-10.65-6.93
				c-1.03-4.85,2.07-9.62,6.93-10.65C191.47,312.66,196.23,315.76,197.26,320.62z"/>
			<path class="st11" d="M189.76,326.74c0,0-5.32,0.05-5.92-3.39c-0.6-3.44,3.37-3.64,4-2.44c0,0,1.76-3.43,4.54-1.41
				C195.16,321.53,190.93,325.73,189.76,326.74z"/>
		</g>
		<g>
			<path class="st12" d="M189.1,331.45c-5.03,0.27-9.33-3.59-9.6-8.62c-0.18-3.42,1.56-6.52,4.28-8.22
				c-0.34,0.41-5.14,5.53,0.05,10.66c0.39,0.39,0.84,0.79,1.35,1.19c0.62,0.48,1.21,0.86,1.77,1.17c0.88,0.48,1.71,0.77,2.47,0.89
				c0.44,0.09,0.87,0.11,1.27,0.09c3.76-0.17,6.63-4.43,6.63-4.43s0,0.38-0.05,1.02C196.13,328.66,192.96,331.24,189.1,331.45z"/>
		</g>
	</g>
	<g>
		<g>
			<path class="st13" d="M170.82,263.73c-2.9,5.76-9.93,8.08-15.69,5.17c-5.76-2.9-8.08-9.93-5.17-15.69
				c2.9-5.76,9.93-8.08,15.69-5.17C171.41,250.95,173.72,257.97,170.82,263.73z"/>
			<g>
				<path class="st11" d="M158.37,256.65c0,0,1.03,0.15,1.91-1.31c0.89-1.46,1.12-1.35,2.23-0.64c1.11,0.71,0.82,1.44-0.21,2.46
					c-1.03,1.02-0.92,1.82,0.58,2.06c1.5,0.24,2.93,0.3,2.4,2.53c-0.54,2.23-2.24,3.13-3.97,2.48c-1.73-0.65-5.6-3.33-5.6-3.33
					L158.37,256.65z"/>
				<path class="st14" d="M155.25,261.47l-1.13-0.57c-0.3-0.15-0.42-0.52-0.27-0.82l2.61-5.18c0.15-0.3,0.52-0.42,0.82-0.27
					l1.13,0.57c0.3,0.15,0.42,0.52,0.27,0.82l-2.61,5.18C155.92,261.5,155.55,261.62,155.25,261.47z"/>
			</g>
		</g>
		<g>
			<path class="st12" d="M156.68,269.51c-6.16-1.93-9.6-8.49-7.67-14.65c1.31-4.19,4.79-7.13,8.82-7.95
				c-0.6,0.35-8.65,4.34-4.71,12.82c0.29,0.65,0.66,1.33,1.09,2.03c0.53,0.85,1.07,1.58,1.6,2.2c0.84,0.98,1.71,1.68,2.57,2.18
				c0.49,0.3,0.99,0.52,1.49,0.68c4.59,1.48,9.94-2.36,9.94-2.36s-0.17,0.46-0.52,1.21C166.38,269.3,161.41,270.99,156.68,269.51z"
				/>
			<path class="st15" d="M164.11,249.95c2.84-0.62,6.84,7.46,2.93,9.42C163.12,261.33,159.94,250.87,164.11,249.95z"/>
		</g>
	</g>
	<g>
		<g>
			<ellipse class="st16" cx="261.3" cy="378.61" rx="67.59" ry="23.73"/>
			<ellipse class="st16" cx="261.3" cy="378.61" rx="48.66" ry="17.08"/>
			<ellipse class="st17" cx="261.3" cy="377.61" rx="40.76" ry="14.31"/>
		</g>
		<g>
			<path class="st18" d="M219.75,225.76c0,0,0.17,10.5-8.33,24.75c-8.5,14.25-11,33.25-9.5,42.75c0,0,6.29-17.66,10.64-15.33l0,0
				c4.36,2.33-0.64,15.22-12.64,33.27c-12,18.06-6.25,35.06-6.25,35.06s-1.25-11.5,10-21c0,0-3.79,24.75,10.73,38
				c0,0-0.25-19,4.26-17.25c4.51,1.75,5.01,28-7.74,41.5c0,0,11.5-2.5,19.75-15.25s56,7.5,69,1.75s16.5-25.75,18-36.75
				c0,0,4,20-0.75,31.5c0,0,21.5-21,12.5-49.5s-16.25-35.25-13-53s1-32,1-32s-23.48-24.18-52.74-24.46
				C235.41,209.51,219.75,225.76,219.75,225.76z"/>
			<path class="st19" d="M275.66,295.39c0,0-1.37,11.75-13,11.75c-9.17,0-12.04-6.31-12.83-8.97c-0.22-0.71-0.29-1.16-0.29-1.16
				s3.87-1.62,3.87-5.25v-7.72c0-0.26,0-0.4,0-0.4c0.12,0.01,0.24,0.02,0.36,0.03c11.39,0.92,17.27-1.28,17.27-1.28
				s-0.38,5.62,0,8.75C271.41,294.26,275.66,295.39,275.66,295.39z"/>
			<path class="st20" d="M275.66,295.39c0,0-1.37,11.75-13,11.75c-9.17,0-12.04-6.31-12.83-8.97c0.05,0.04,0.11,0.08,0.17,0.12
				c11,7.78,18,2.96,16.56-1.82c-1.45-4.78,1.94-9.72-0.85-9.18c-1.96,0.38-8.56-0.03-12.3-0.31v-2.94
				c0.12-0.12,0.24-0.24,0.36-0.37c11.39,0.92,17.27-1.28,17.27-1.28s-0.38,5.62,0,8.75C271.41,294.26,275.66,295.39,275.66,295.39z
				"/>
			<path class="st21" d="M282.59,386.09c-2.09,0.47-4.12,0.86-6.11,1.18c-0.42,0.07-0.83,0.13-1.24,0.19
				c-4.43,0.65-8.6,0.95-12.43,1.02c-7.45,0.11-13.63-0.66-17.98-1.48c-4.53-0.85-7.1-1.75-7.1-1.75s0,0,0-0.01
				c-0.06-0.52-1.8-15.26-0.82-44.59c1-29.86,7.25-44.64,7.25-44.64l1.04,0.19l4.34,0.81c0,0,2.62,7.25,12.58,8.75
				c0.51,0.08,1,0.12,1.48,0.12c8.83,0.19,12.06-10.49,12.06-10.49s0,0.01,0.01,0.02C288.2,322.44,282.59,386.09,282.59,386.09z"/>
			<path class="st22" d="M282.59,386.09c-2.09,0.47-4.12,0.86-6.11,1.18c-0.42,0.07-0.83,0.13-1.24,0.19
				c6.93-36.72,0.42-78.71,0.42-78.71c-3.28,2.97-7.12,4.33-10.95,4.75c-9.72,1.11-19.35-3.81-19.35-3.81
				c-9.17,24.07-2.53,66.14-0.53,77.31c-4.53-0.85-7.1-1.75-7.1-1.75s0,0,0-0.01c-0.06-0.52-1.8-15.26-0.82-44.59
				c1-29.86,7.25-44.64,7.25-44.64l1.04,0.19l4.34,0.81c0,0,2.62,7.25,12.58,8.75c0.51,0.08,1,0.12,1.48,0.12
				c8.83,0.19,12.06-10.49,12.06-10.49s0,0.01,0.01,0.02C288.2,322.44,282.59,386.09,282.59,386.09z"/>
			<path class="st21" d="M335.16,302.51c0,0-13.05,18.33-34.15,27.92c0,0-14.86-8.34-13.48-34.5c0,0,3.77-1.96,7.85-4.69
				c2.77-1.86,5.68-4.08,7.66-6.28c2.13-2.37,3.89-4.44,5.2-6.02c1.71-2.05,2.67-3.27,2.67-3.27S319.91,293.01,335.16,302.51z"/>
			<path class="st22" d="M335.16,302.51c0,0-13.05,18.33-34.15,27.92c0,0-14.86-8.34-13.48-34.5c0,0,3.77-1.96,7.85-4.69
				c-4.51,10.52,2.7,27.79,5.63,28.76c3.01,1,25.99-15.25,19.49-22.82c-5-5.82-10.15-14.53-12.26-18.24
				c1.71-2.05,2.67-3.27,2.67-3.27S319.91,293.01,335.16,302.51z"/>
			<path class="st21" d="M220.5,327.59c0,0-14.09-4.83-27.34-26.08c0,0,11.43-5.87,17.96-11.25c6.54-5.37,7.53-9.38,7.53-9.38
				s0.51,0.8,1.45,2.05c1.94,2.58,5.7,7.04,10.48,10.12c1.22,0.79,2.5,1.49,3.83,2.04C234.41,295.09,235.33,317.3,220.5,327.59z"/>
			<path class="st22" d="M220.5,327.59c0,0-14.09-4.83-27.34-26.08c0,0,11.43-5.87,17.96-11.25c6.54-5.37,7.53-9.38,7.53-9.38
				s0.51,0.8,1.45,2.05c-0.64,3.16-2.55,8.23-8.98,13.07c-9.62,7.25,3.46,18.04,8.42,19.64c4.39,1.42,9.33-13.85,11.04-22.59
				c1.22,0.79,2.5,1.49,3.83,2.04C234.41,295.09,235.33,317.3,220.5,327.59z"/>
			<path class="st23" d="M342.75,299.26c-0.43,2.29-2.15,4.41-5.42,4.32c-3.17-0.07-7.78-2.19-14.08-8.19
				c-8.3-7.9-12-13.51-12.84-17.57v-0.01c-0.46-2.21-0.07-3.97,0.89-5.38c0.53-0.78,1.13-1.31,1.75-1.68
				c1.49-0.87,3.11-0.72,4.22-0.44h0.01c0.79,0.19,1.31,0.46,1.31,0.46l19.16,20.29C337.75,291.06,343.58,294.76,342.75,299.26z"/>
			<g class="st24">
				<path class="st25" d="M317.02,273.76c0,0-3.04-2.03-6.8,2.32"/>
				<path class="st25" d="M317.15,277.16c0,0-3.17,0.54-5.85,3.94"/>
				<path class="st25" d="M319.31,281.4c0,0-2.18-0.06-4.73,4.51"/>
				<path class="st25" d="M322.66,285.91c0,0-1.52,0.36-4.32,4.5"/>
				<path class="st25" d="M326.11,289.26c0,0-1.28,2.95-3.88,5.15"/>
				<path class="st25" d="M330.68,292.48c0,0,0.02,3.15-4.16,5.81"/>
				<path class="st25" d="M334.56,292.98c0,0,0.71,5.51-2.22,9.18"/>
				<path class="st25" d="M336.38,292.01c0,0,5.54,5.12,4.18,10.15"/>
			</g>
			<path class="st26" d="M342.75,299.26c-0.43,2.29-2.15,4.41-5.42,4.32c-3.17-0.07-7.78-2.19-14.08-8.19
				c-8.3-7.9-12-13.51-12.84-17.57c17.76,27.54,28.09,21.18,16.76,14.01c-11.34-7.16-10.15-18.07-10.15-18.07s0.07-1.41,0.25-3.45
				h0.01c0.79,0.19,1.31,0.46,1.31,0.46l19.16,20.29C337.75,291.06,343.58,294.76,342.75,299.26z"/>
			<path class="st23" d="M210.78,292.42c-7.47,7.01-19.89,12.58-23.71,7.8c-1.96-2.45-1.34-4.94-0.28-6.79
				c1.02-1.76,2.45-2.93,2.45-2.93l19.46-17.15c0,0,5.36-4.06,8.95,0C221.23,277.41,218.24,285.41,210.78,292.42z"/>
			<path class="st19" d="M300.58,243.43c0,0,14.1-4.14,13.17,7.5c-0.83,10.33-12.83,12.68-18,11.09
				C295.75,262.02,299.53,250.57,300.58,243.43z"/>
			<path class="st19" d="M226.52,263.89c-0.99-0.05-1.94-0.17-2.86-0.36h-0.01c-8.03-1.61-13.23-7.92-10.24-13.6
				c1.1-2.08,2.56-3.09,4.03-3.49c3.02-0.84,6.07,0.82,6.07,0.82C223.93,251.26,226.52,263.89,226.52,263.89z"/>
			<g class="st27">
				<path class="st28" d="M300.58,248.59c0,0,5.33-1.83,5.83,2.17s-3.5,5.67-7.83,6L300.58,248.59z"/>
				<path class="st28" d="M224.67,252.18c0,0-4.06-2.32-5.65,0.72c-1.59,3.04,2.24,6.45,6.56,6.48L224.67,252.18z"/>
			</g>
			<path class="st29" d="M301.54,247.46c-1.45,8.28-4.41,15.93-9,22.13c-6.4,8.65-15.98,14.49-29.07,15.27
				c-3.73,0.23-7.75,0.05-12.06-0.6c-0.48-0.07-0.95-0.15-1.41-0.24c-10.42-1.94-16.94-7.44-20.89-14.42
				c-4.01-7.07-5.4-15.65-5.59-23.59c-0.19-8.11,0.89-15.54,1.72-19.98c0.5-2.68,0.92-4.27,0.92-4.27
				c2.06-5.66,7.13-10.3,13.72-13.67c21.37-10.93,58.78-8.48,62.03,16.17C302.94,232.1,302.85,240.04,301.54,247.46z"/>
			<path class="st30" d="M250,284.02c-10.42-1.94-16.94-7.44-20.89-14.42c-4.01-7.07-5.4-15.65-5.59-23.59
				c-0.19-8.11,0.89-15.54,1.72-19.98c0.5-2.68,0.92-4.27,0.92-4.27c2.06-5.66,7.13-10.3,13.72-13.67l1.81,0.34
				C241.69,208.43,220.33,260.71,250,284.02z"/>
			<path class="st20" d="M301.54,247.46c-1.45,8.28-4.41,15.93-9,22.13c-6.4,8.65-15.98,14.49-29.07,15.27
				c24.84-10.21,17.23-62.98-2.02-66.36c-14.15-2.49-28.88,3.73-36.21,7.53c0.5-2.68,0.92-4.27,0.92-4.27
				c8.75-24,71.5-29.75,75.75,2.5C302.94,232.1,302.85,240.04,301.54,247.46z"/>
			<g class="st31">
				<g>
					<path class="st28" d="M301.54,247.46c-1.45,8.28-4.41,15.93-9,22.13c-5.44-1.19-9.51-6.03-9.51-11.83
						c0-6.7,5.43-12.12,12.13-12.12C297.5,245.64,299.69,246.3,301.54,247.46z"/>
					<path class="st28" d="M238.64,257.76c0,5.81-4.08,10.66-9.53,11.84c-4.01-7.07-5.4-15.65-5.59-23.59
						c0.96-0.24,1.96-0.37,3-0.37C233.21,245.64,238.64,251.06,238.64,257.76z"/>
				</g>
			</g>
			<g class="st32">
				<path class="st33" d="M262.58,228.59c0.33,2.46,0.43,4.94,0.35,7.43c-0.04,1.25-0.14,2.49-0.38,3.77
					c-0.15,0.64-0.26,1.27-0.78,2.01c-0.09,0.1-0.15,0.19-0.28,0.29c-0.13,0.09-0.29,0.19-0.38,0.21c-0.22,0.08-0.45,0.15-0.67,0.15
					c-0.46,0.04-0.86-0.08-1.22-0.2c-0.7-0.28-1.22-0.67-1.73-1.02c-0.5-0.35-1-0.7-1.43-0.9c-0.22-0.11-0.39-0.13-0.48-0.11
					c-0.09-0.01-0.17,0.07-0.3,0.23c-0.22,0.35-0.36,0.89-0.39,1.43c-0.12,2.23,1.46,4.39,3.73,5.39c-1.22-0.22-2.42-0.8-3.33-1.76
					c-0.47-0.47-0.81-1.05-1.11-1.65c-0.26-0.62-0.42-1.29-0.46-1.97c-0.02-0.69,0.04-1.41,0.45-2.13c0.11-0.18,0.25-0.36,0.42-0.52
					c0.2-0.16,0.42-0.3,0.68-0.35c0.51-0.13,0.98-0.01,1.32,0.13c0.71,0.28,1.21,0.67,1.73,1.01c0.5,0.34,1,0.66,1.45,0.83
					c0.22,0.08,0.43,0.14,0.58,0.12c0.09,0.01,0.15-0.03,0.22-0.04c0.06-0.01,0.02-0.01,0.02,0c0,0.02,0.02-0.03,0.04-0.04
					c0.21-0.26,0.4-0.87,0.54-1.41c0.29-1.13,0.43-2.35,0.6-3.55L262.58,228.59z"/>
			</g>
			<g>
				<path class="st34" d="M273.41,239.43c0,0,0.67-7.33,6.17-7c5.5,0.33,5.67,7.5,5.67,7.5"/>
				<path class="st34" d="M234.57,239.43c0,0,0.67-7.33,6.17-7c5.5,0.33,5.67,7.5,5.67,7.5"/>
			</g>
			<path class="st35" d="M270.59,272.63c-3.17,0.95-6.84,1.58-11.01,1.8c-4.22,0.22-7.87-0.17-10.98-0.97
				c-11.25-2.89-15.26-11.24-12.52-16.2c0.81-1.47,1.65-2.53,2.65-3.26c3.28-2.45,8.22-1.43,19.35-0.41c12.4,1.15,17-6,22.35-3.5
				c0.9,0.41,1.83,1.11,2.82,2.17C288.82,258.24,284.64,268.44,270.59,272.63z"/>
			<g>
				<path class="st34" d="M233.95,225.18c0,0,3.86-3.23,8.57-0.29"/>
				<path class="st34" d="M278.94,224.93c0,0,4.97-4.17,8.8,1.5"/>
			</g>
			<path class="st36" d="M281.34,253.81v0.12c0.02,1.66-0.97,3.19-2.49,3.89c-11.94,5.47-29.52,3.28-36.4,2.12
				c-1.71-0.3-3.07-1.57-3.5-3.21c-0.05-0.2-0.09-0.4-0.11-0.6c-0.09-0.81-0.11-1.55-0.11-2.13c3.28-2.45,8.22-1.43,19.35-0.41
				c12.4,1.15,17-6,22.35-3.5C281.1,251.43,281.31,252.73,281.34,253.81z"/>
			<path class="st37" d="M270.59,272.63c-3.17,0.95-6.84,1.58-11.01,1.8c-4.22,0.22-7.87-0.17-10.98-0.97c0.31-0.49,1.01-1.49,2-2.4
				c1.86-1.72,4.76-3.13,8.02-0.17c0,0,1.87-2.59,4.98-2.55C265.52,268.36,267.89,269.39,270.59,272.63z"/>
			<path class="st38" d="M220.63,260.35c-0.82,2.83-1.55,5.69-2.04,8.54c-0.23,1.42-0.4,2.85-0.37,4.23
				c0.03,1.35,0.31,2.73,1.05,3.36c0.33,0.3,0.93,0.49,1.27,0.45c0.18,0,0.32-0.1,0.5-0.21c0.16-0.15,0.34-0.33,0.48-0.6
				c0.61-1.03,0.92-2.47,1.13-3.86c0.4-2.83,0.54-5.79,0.62-8.74l0.47-0.05c0.55,2.94,0.84,5.93,0.61,8.98
				c-0.05,0.76-0.16,1.53-0.32,2.3c-0.18,0.77-0.39,1.56-0.83,2.34c-0.21,0.39-0.52,0.78-0.9,1.12c-0.41,0.32-0.94,0.62-1.51,0.66
				c-1.13,0.11-2.04-0.26-2.82-0.92c-0.75-0.68-1.15-1.57-1.37-2.39c-0.22-0.84-0.27-1.65-0.25-2.44c0.03-1.59,0.29-3.1,0.66-4.57
				c0.73-2.94,1.83-5.73,3.19-8.39L220.63,260.35z"/>
			<path class="st39" d="M253.41,287.76c0,0,7.67,2.62,17.46,0v-1.75c0,0,3.04,1.13,2.54,3.25s-5.12,4-15.12,3.25
				c-10-0.75-8.25-6.26-4.87-6.5V287.76z"/>
			<g>
				<path class="st39" d="M245.36,295.69c0,0-4.11-2.1-10.95-0.6c0,0-0.5,22.5-13.92,32.5c0,0,1.58,32.33,7.08,53.5
					c0,0,3.83,3,13.83,5c0,0-4.33-22.83-2.67-48.83C240.41,311.26,245.36,295.69,245.36,295.69z"/>
				<path class="st39" d="M301.01,330.43c-0.56,16.33-5.1,48.16-5.1,48.16c-3.56,3.93-9.07,6.23-13.32,7.5
					c-3.52,1.06-6.18,1.42-6.18,1.42s0.03-0.08,0.07-0.24c0.56-1.88,4.13-14.8,4.43-39.68c0.33-26.59-5.08-51.44-5.24-52.18
					c-0.01-0.01-0.01-0.02-0.01-0.02c6.09-3.88,11.87,0.54,11.87,0.54C287.48,322.76,301.01,330.43,301.01,330.43z"/>
			</g>
			<path class="st40" d="M301.01,330.43c-0.56,16.33-5.1,48.16-5.1,48.16c-3.56,3.93-9.07,6.23-13.32,7.5
				c-3.52,1.06-6.18,1.42-6.18,1.42s0.03-0.08,0.07-0.24c-0.42,0.07-0.83,0.13-1.24,0.19c-4.43,0.65-8.6,0.95-12.43,1.02
				c6.24-28.38,4.13-57.84,1.9-74.98c-0.38-2.92-0.77-5.48-1.11-7.62c8.83,0.19,12.06-10.49,12.06-10.49
				c6.09-3.88,11.87,0.54,11.87,0.54C287.48,322.76,301.01,330.43,301.01,330.43z"/>
			<g class="st41">
				<ellipse class="st39" cx="260" cy="349.71" rx="13.75" ry="9.39"/>
				<g>
					<g>
						<polygon class="st39" points="247.98,345.15 250.76,334.76 257.08,340.65 						"/>
						<polygon class="st39" points="272.08,345.15 269.29,334.76 262.98,340.65 						"/>
					</g>
				</g>
			</g>
			<path class="st29" d="M397.78,203.62c-3.9,5.36-15.59,24.6-29.72,44.82c-11.06,15.82-25.25,35.11-30.89,42.74
				c-1.51,2.04-4.31,2.58-6.49,1.3c-8.23-4.85-11.98-11.54-13.53-15.32c-0.04-0.09-0.07-0.19-0.1-0.28
				c-0.56-1.6-0.26-3.38,0.82-4.71c0.13-0.16,0.27-0.33,0.41-0.51c8.34-10.33,38.8-48.56,41.75-59.27
				c3.41-12.43-1.71-22.41,0.97-23.88c0.45-0.24,0.9-0.24,1.35-0.07c2.27,0.85,4.54,5.96,5.96,6.16c1.7,0.25,11.2-14.61,12.91-12.66
				c1.7,1.95-7.07,13.88-4.39,14.86c2.68,0.97,10.96-15.11,14.37-12.43c3.42,2.68-9.5,17.05-7.06,16.81
				c1.9-0.19,7.19-8.49,10.59-10.67c0.97-0.63,1.78-0.75,2.32-0.05c2.44,3.17-9.26,14.37-8.04,14.73s5.12-3.77,7.31-6.61
				S401.68,198.26,397.78,203.62z"/>
			<path class="st42" d="M361.19,217.29c-6.37,13.04-35.43,48.95-44.14,59.59c-0.56-1.6-0.26-3.38,0.82-4.71
				c0.13-0.16,0.27-0.33,0.41-0.51c8.34-10.33,38.8-48.56,41.75-59.27c3.41-12.43-1.71-22.41,0.97-23.88
				c0.45-0.24,0.9-0.24,1.35-0.07C364.16,194.36,366.57,206.31,361.19,217.29z"/>
			<polygon class="st39" points="354.91,220.51 357.9,215.31 382.68,230.25 379.76,234.71 			"/>
			<path class="st29" d="M210.76,279.92c-1.53,3.71-5.18,9.34-14.28,13.03c-2.31,0.94-4.89,0.73-6.37-1.27
				c-5.54-7.49-18.48-24.43-29.33-39.96c-13.87-19.85-25.35-38.74-29.18-44c-3.82-5.26-0.72-7.74,1.44-4.95
				c2.15,2.79,5.97,6.84,7.17,6.49c1.2-0.35-10.28-11.35-7.89-14.46c0.11-0.14,0.23-0.24,0.36-0.32
				c2.73-1.61,10.03,10.62,12.31,10.85c2.39,0.23-10.28-13.87-6.93-16.5c3.35-2.64,11.48,13.15,14.11,12.19
				c2.63-0.96-5.98-12.67-4.31-14.59c1.68-1.91,11,12.68,12.68,12.44c1.42-0.21,3.71-5.42,5.98-6.09c0.4-0.13,0.8-0.1,1.19,0.11
				c2.63,1.44-2.39,11.24,0.96,23.44c2.71,9.88,29.3,43.64,39.28,56.08c0.82,1.02,1.53,1.9,2.1,2.61c0.46,0.57,0.78,1.22,0.94,1.9
				C211.23,277.9,211.15,278.95,210.76,279.92z"/>
			<path class="st42" d="M210.99,276.92l-1.7,2.97c0,0-33.96-41.89-41.84-57.22c-5.78-11.25-2.88-23.93-0.93-29.89
				c0.4-0.13,0.8-0.1,1.19,0.11c2.63,1.44-2.39,11.24,0.96,23.44c2.71,9.88,29.3,43.64,39.28,56.08c0.82,1.02,1.53,1.9,2.1,2.61
				C210.51,275.59,210.83,276.24,210.99,276.92z"/>
			<polygon class="st39" points="173.69,224.3 170.75,219.2 146.43,233.86 149.3,238.24 			"/>
			<g class="st43">
				<path class="st25" d="M190.76,292.39c0,0-4.17,3.39-1.42,9.32"/>
				<path class="st25" d="M194.1,293.49c0,0-1.54,4.13,1.23,8.22"/>
				<path class="st25" d="M199.16,291.22c0,0-0.61,3.35,2.76,7.97"/>
				<path class="st25" d="M204.82,287.99c-0.14,0.12,1.4,4.22,3.86,6.56"/>
				<path class="st25" d="M209.29,282.79c0,0,3.75,1.36,5.1,5.97"/>
				<path class="st25" d="M211.12,277.93c0,0,6.3,0.08,7.53,3.92"/>
				<path class="st25" d="M210.05,275.02c0,0,5.07-3.45,8.6,1.3"/>
			</g>
			
				<ellipse transform="matrix(0.161 -0.9869 0.9869 0.161 -36.0658 430.094)" class="st44" cx="234.95" cy="236.26" rx="17.29" ry="17.29"/>
			
				<ellipse transform="matrix(0.2315 -0.9728 0.9728 0.2315 -9.7558 456.1727)" class="st44" cx="283.84" cy="234.26" rx="17.29" ry="17.29"/>
			<g>
				<polygon class="st45" points="267.93,240.94 284.79,217.03 288.87,217.31 269.38,243.58 				"/>
				<path class="st45" d="M272.92,247.94l21.24-28.48c0,0,4.11,2.56,5.59,5.47l-19.38,26.56
					C280.38,251.49,275.33,249.98,272.92,247.94z"/>
			</g>
			<g>
				<polygon class="st45" points="217.7,243 234.57,219.09 238.64,219.37 219.16,245.64 				"/>
				<path class="st45" d="M222.7,250l21.24-28.48c0,0,4.11,2.56,5.59,5.47l-19.38,26.56C230.16,253.55,225.11,252.04,222.7,250z"/>
			</g>
			<path class="st23" d="M262.06,311.51c-2.75,0.04-5.18-0.31-7.32-0.96h-0.01c-10.32-3.06-13.78-12.64-11.82-15.54
				c2.38-3.5,5.63,0,5.63,0c0.36,2.18,3.19,9.43,12.26,10.09c0.28,0.02,0.57,0.03,0.86,0.04c9.75,0.25,12.38-8,13-11.75
				c0.63-3.75,6.13-3,6.29-0.4C281.1,295.6,278.04,311.26,262.06,311.51z"/>
			<g class="st24">
				<path class="st25" d="M249.01,296.65c0,0-2.8-1.39-6.35,3.51"/>
				<path class="st25" d="M251.24,300.42c0,0-3.41,0.98-4.91,5.06"/>
				<path class="st25" d="M254.61,303.57c0,0-3.17,2.45-3.08,6.12"/>
				<path class="st25" d="M258.5,305.14c0,0-0.48,3.09-0.49,6.13"/>
				<path class="st25" d="M264.4,304.96c0,0,1.57,3.26,0.65,6.3"/>
				<path class="st25" d="M270.45,302.01c0,0,3.37,3.34,2.6,6.19"/>
				<path class="st25" d="M273.91,297.18c0,0,4.16,1.82,4.19,5.06"/>
				<path class="st25" d="M274.66,293.39c0,0,4.49-1.19,6.29,2.19"/>
			</g>
			<path class="st20" d="M397.78,203.62c-3.9,5.36-15.59,24.6-29.72,44.82c-11.06,15.82-25.25,35.11-30.89,42.74
				c-1.51,2.04-4.31,2.58-6.49,1.3c-8.23-4.85-11.98-11.54-13.53-15.32c-0.69-1.67-0.42-3.58,0.72-4.99
				c0.13-0.16,0.27-0.33,0.41-0.51c1.14,3.15,3.38,7.1,7.74,9.22c7.3,3.54,56.87-72.09,68.71-90.37c0.97-0.63,1.78-0.75,2.32-0.05
				c2.44,3.17-9.26,14.37-8.04,14.73s5.12-3.77,7.31-6.61S401.68,198.26,397.78,203.62z"/>
			<path class="st26" d="M281.34,253.81c-2.26-1.06-5.42-1.68-8.42-0.26c-4.33,2.05-17.17,3.7-23.91,1.91
				c-4.58-1.22-8.21,0.23-10.06,1.27c-0.05-0.2-0.09-0.4-0.11-0.6c-0.09-0.81-0.11-1.55-0.11-2.13c3.28-2.45,8.22-1.43,19.35-0.41
				c12.4,1.15,17-6,22.35-3.5C281.1,251.43,281.31,252.73,281.34,253.81z"/>
			<path class="st46" d="M270.59,272.63c-3.17,0.95-6.84,1.58-11.01,1.8c-4.22,0.22-7.87-0.17-10.98-0.97c0.31-0.49,1.01-1.49,2-2.4
				c-0.09,1.04,0.6,2.11,3.7,2.22c5.87,0.21,12.43-1.22,9.3-4.94C265.52,268.36,267.89,269.39,270.59,272.63z"/>
			<path class="st26" d="M262.06,311.51c-2.75,0.04-5.18-0.31-7.32-0.96c20.98,1.31,23.01-12.55,18.18-8.84
				c-4.83,3.71-12.31,3.77-12.31,3.77s0.07-0.13,0.19-0.38c0.28,0.02,0.57,0.03,0.86,0.04c9.75,0.25,12.38-8,13-11.75
				c0.63-3.75,6.13-3,6.29-0.4C281.1,295.6,278.04,311.26,262.06,311.51z"/>
			<path class="st20" d="M210.76,279.92c-1.53,3.71-5.18,9.34-14.28,13.03c-2.31,0.94-4.89,0.73-6.37-1.27
				c-5.54-7.49-18.48-24.43-29.33-39.96c-13.87-19.85-25.35-38.74-29.18-44c-3.82-5.26-0.72-7.74,1.44-4.95
				c2.15,2.79,5.97,6.84,7.17,6.49c1.2-0.35-10.28-11.35-7.89-14.46c0.11-0.14,0.23-0.24,0.36-0.32c5.46,9.51,21.19,36.7,29.57,49.1
				c10.25,15.17,25.96,40.15,35.21,41.38c6.37,0.84,9.29-7.37,10.49-12.55c0.82,1.02,1.53,1.9,2.1,2.61
				C211.17,276.4,211.43,278.27,210.76,279.92z"/>
			<path class="st47" d="M223.65,263.53c-8.03-1.61-13.23-7.92-10.24-13.6c1.1-2.08,2.56-3.09,4.03-3.49
				c-1.53,1.61-2.78,4.21-1.58,8.19C217.04,258.49,220.46,261.49,223.65,263.53z"/>
			<path class="st48" d="M292.41,290.43c-9.92,20.77-2.7,39.51-1.76,41.77c0.05,0.11,0.08,0.17,0.09,0.21
				c-0.11-0.14-0.21-0.27-0.31-0.41c-0.12-0.16-0.25-0.33-0.37-0.5c-0.01-0.01-0.02-0.03-0.03-0.04v-0.01
				c-21.44-29.43,1.53-48.2-0.62-78.86c-1.3-18.68-6.61-28.91-10.63-34.08c-2.65-3.41-4.73-4.63-4.73-4.63
				c0.37-0.24,0.74-0.47,1.12-0.67c8.78-4.74,21.08,0.55,21.08,0.55C309.44,233.26,302.99,268.27,292.41,290.43z"/>
			<path class="st12" d="M292.41,290.43c-9.92,20.77-2.7,39.51-1.76,41.77c-0.08-0.06-0.15-0.12-0.22-0.2
				c-0.13-0.14-0.26-0.3-0.37-0.5c-0.01-0.01-0.02-0.03-0.03-0.04v-0.01c-6.31-10.89-6.31-37.96,1.47-50.05
				c4.77-7.4,11-43.9,6.18-51.09c-3.37-5.02-13.24-9.53-18.9-11.8c-2.65-3.41-4.73-4.63-4.73-4.63c8.81-5.88,22.2-0.12,22.2-0.12
				C309.44,233.26,302.99,268.27,292.41,290.43z"/>
			<path class="st23" d="M322.91,224.93c-1.93,7.72-2.08,11.01-2.09,11.23v0.01c0,0-4.26-3.48-10.9-7.91
				c-0.55-0.37-1.12-0.74-1.71-1.13c-3.57-2.32-7.73-4.84-12.21-7.21c-0.59-0.32-1.19-0.63-1.8-0.94c-5.65-2.89-11.76-5.5-17.87-7.2
				c-0.69-0.19-1.37-0.37-2.06-0.54c-3.67-0.9-7.33-1.44-10.86-1.48c-0.95-0.01-1.9-0.01-2.83,0.02c-0.67,0.01-1.33,0.04-1.98,0.08
				c-4.08,0.21-7.96,0.76-11.61,1.52c-0.53,0.11-1.07,0.22-1.59,0.34c-5.83,1.32-10.99,3.15-15.2,4.95c-0.6,0.25-1.17,0.5-1.73,0.75
				c-3.86,1.74-6.77,3.38-8.48,4.41c-1.13,0.69-1.74,1.1-1.74,1.1c0-0.75-0.03-1.48-0.09-2.19c-0.07-1.02-0.18-2.01-0.27-2.98
				c-0.3-3.11-0.45-6.07,1.19-9.67c2.5-5.5,7.67-11.66,13-19.5c2.08-3.05,5.79-6.68,10.86-9.95c1.38-0.89,2.87-1.76,4.45-2.58
				c2.6-1.35,5.46-2.58,8.55-3.58c0.84-0.28,1.69-0.54,2.56-0.78h0.01c0.3-0.08,0.61-0.17,0.92-0.24c0.65-0.18,1.31-0.34,1.97-0.48
				h0.01c2.51-0.57,5.15-0.98,7.9-1.2c0.89-0.08,1.79-0.14,2.7-0.17c1.17-0.04,2.36-0.05,3.57-0.02c0.77,0.02,1.53,0.06,2.28,0.12
				l2.05,0.21c2.43,0.31,4.78,0.82,7.05,1.49c0.87,0.26,1.72,0.53,2.56,0.83c3.61,1.29,6.96,2.96,9.98,4.79
				c1.22,0.75,2.39,1.52,3.5,2.31c7.51,5.33,12.32,11.36,12.91,13.92c1.17,5-1.66,6.33,1.84,12.33S324.91,216.93,322.91,224.93z"/>
			<g class="st49">
				<g>
					<path class="st39" d="M247.39,176.06c-2.69,2.7-3.63,5.41-4.75,8.67c-1.22,3.53-2.61,7.54-6.61,12.35
						c-8.08,9.71-5.88,19.28-5.86,19.38c0.02,0.07,0.03,0.14,0.03,0.21c0.01,0.47-0.3,0.91-0.78,1.02
						c-0.08,0.02-0.16,0.03-0.24,0.03c-0.27,0-0.52-0.11-0.71-0.3c-0.13-0.12-0.23-0.29-0.28-0.48c-0.11-0.43-2.45-10.68,6.27-21.16
						c3.77-4.53,5.09-8.35,6.25-11.72c0.64-1.85,1.26-3.65,2.23-5.42C244.32,177.75,245.81,176.88,247.39,176.06z"/>
				</g>
				<g>
					<path class="st39" d="M261.4,170.98c-1.18,1.59-3,4.84-5.19,11.4c-1.58,4.73-3.42,8.24-5.04,11.33
						c-2.91,5.53-5.01,9.53-4.08,17.11c0.02,0.2-0.01,0.39-0.1,0.56c-0.14,0.31-0.43,0.53-0.79,0.58c-0.04,0-0.09,0.01-0.13,0.01
						c-0.25,0-0.49-0.09-0.67-0.25c-0.18-0.16-0.3-0.39-0.34-0.65c-1-8.21,1.34-12.67,4.3-18.31c1.59-3.02,3.39-6.45,4.92-11.02
						c1.59-4.76,3.02-7.93,4.22-10.04h0.01C259.45,171.44,260.42,171.19,261.4,170.98z"/>
				</g>
				<g>
					<path class="st39" d="M265.22,184.6c-5.03,16.71-6.04,20.4-4.67,24.67c0.05,0.17,0.06,0.35,0.03,0.51
						c-0.07,0.36-0.32,0.65-0.69,0.78c-0.1,0.03-0.21,0.04-0.31,0.04c-0.43,0-0.83-0.27-0.97-0.7c0-0.01-0.01-0.03-0.01-0.04
						c-1.59-5.01-0.26-9.45,4.67-25.84c2.23-7.42,4.34-11.74,6.04-14.24c0.89-0.08,1.79-0.14,2.7-0.17
						C270.49,171.33,268,175.35,265.22,184.6z"/>
				</g>
				<g>
					<path class="st39" d="M279.91,169.92c0.1,3.24,0.14,9.63-0.65,18.98c-0.41,4.93-0.34,8.55-0.28,11.46
						c0.11,4.99,0.17,8.06-2.65,11.42c-0.1,0.13-0.21,0.26-0.33,0.39c-0.2,0.22-0.47,0.34-0.75,0.34c-0.25,0-0.49-0.09-0.68-0.26
						c-0.29-0.27-0.4-0.66-0.3-1.01c0.03-0.16,0.1-0.31,0.22-0.43c2.61-2.91,2.56-5.26,2.45-10.4c-0.06-2.96-0.13-6.65,0.29-11.68
						c0.8-9.46,0.74-15.94,0.63-19.02L279.91,169.92z"/>
				</g>
				<g>
					<path class="st39" d="M296,219.92c-0.06,0.14-0.13,0.27-0.21,0.4c-0.19,0.32-0.53,0.5-0.88,0.5c-0.17,0-0.35-0.05-0.52-0.14
						c-0.48-0.29-0.64-0.91-0.35-1.4c0.06-0.1,0.11-0.2,0.16-0.3c2.73-4.99,1.06-12.16-0.87-20.44c-0.87-3.76-1.78-7.64-2.42-11.82
						c-1.35-8.72-2.98-13.22-3.95-15.31c0.87,0.26,1.72,0.53,2.56,0.83c1.03,2.68,2.3,7.11,3.4,14.16c0.63,4.11,1.53,7.96,2.4,11.68
						C297.33,206.74,299.09,214.25,296,219.92z"/>
				</g>
				<g>
					<path class="st39" d="M309.92,228.26c-0.01,0-0.01,0.01-0.01,0.01c-0.2,0.29-0.52,0.44-0.84,0.44c-0.2,0-0.4-0.05-0.57-0.17
						c-0.47-0.31-0.59-0.94-0.29-1.41c0.01,0,0.01-0.01,0.01-0.01c4.12-6.09,2.21-12.8,0.19-19.91c-0.99-3.47-2.01-7.07-2.35-10.69
						c-0.75-8.28-4.82-16.36-6.56-19.49c1.22,0.75,2.39,1.52,3.5,2.31c1.99,4.12,4.49,10.43,5.09,16.99
						c0.32,3.44,1.31,6.94,2.28,10.32C312.43,213.89,314.56,221.37,309.92,228.26z"/>
				</g>
			</g>
			<path class="st50" d="M322.91,224.93c-2,8-2.09,11.24-2.09,11.24s-4.26-3.48-10.9-7.91c-0.55-0.37-1.12-0.74-1.71-1.13
				c-3.57-2.32-7.73-4.84-12.21-7.21c-0.59-0.32-1.19-0.63-1.8-0.94c-5.65-2.89-11.76-5.5-17.87-7.2c-0.69-0.19-1.37-0.37-2.06-0.54
				c-3.67-0.9-7.33-1.44-10.86-1.48c-0.95-0.01-1.9-0.01-2.83,0.02c-0.67,0.01-1.33,0.04-1.98,0.08c-4.08,0.21-7.96,0.76-11.61,1.52
				c-0.53,0.11-1.07,0.22-1.59,0.34c-5.83,1.32-10.99,3.15-15.2,4.95c-0.6,0.25-1.17,0.5-1.73,0.75c-6.42,2.9-10.22,5.51-10.22,5.51
				c0-1.84-0.2-3.53-0.36-5.17c5.18-3.77,14.53-7.79,33.95-11.51c26.09-5,47.66,7.75,54.04,11.84c6.37,4.1,11.87-4.84,5.42-10.72
				c-6.45-5.89,3.45-8.37-17.05-24.62c-13.71-10.86-29.41-11.22-38.31-10.27c0.84-0.28,1.69-0.54,2.56-0.78h0.01
				c0.94-0.26,1.91-0.51,2.89-0.72h0.01c2.51-0.57,5.15-0.98,7.9-1.2c0.89-0.08,1.79-0.14,2.7-0.17c1.17-0.04,2.36-0.05,3.57-0.02
				c0.77,0.02,1.53,0.06,2.28,0.12l2.05,0.21c2.43,0.31,4.78,0.82,7.05,1.49c0.87,0.26,1.72,0.53,2.56,0.83
				c3.61,1.29,6.96,2.96,9.98,4.79c1.22,0.75,2.39,1.52,3.5,2.31c7.51,5.33,12.32,11.36,12.91,13.92c1.17,5-1.66,6.33,1.84,12.33
				S324.91,216.93,322.91,224.93z"/>
			<path class="st51" d="M319.08,241.59c-2.5,0.67-25.83-28.33-54.17-28.83c-25.45-0.45-41.62,10.4-44.64,12.61
				c-0.35,0.25-0.52,0.39-0.52,0.39c-1.74,1.24-3.84,2.67-4.67,0.17c-0.49-1.47,0.58-3.18,3.08-5.19c1.04-0.83,2.32-1.72,3.84-2.66
				c1.03-0.63,2.17-1.3,3.41-1.99c7.5-4.16,44.5-18.16,73.84,1.5c13.9,9.32,19.64,15.05,21.57,18.57v0.01
				C322.95,240.06,320.39,241.24,319.08,241.59z"/>
			<path class="st52" d="M259.43,171.46c-3.72,2.2-19.2,11.64-22.82,17.79c-4.11,7-10.61,12.48-13.11,18.12
				c-1.92,4.32-1.71,8.83-1.5,10.71c0.06,0.57,0.12,0.89,0.12,0.89s-1.73,0.52-2.13,2.86c-0.16,0.89-0.12,2.05,0.28,3.54
				c-0.35,0.25-0.52,0.39-0.52,0.39c-1.74,1.24-3.84,2.67-4.67,0.17c-0.49-1.47,0.58-3.18,3.08-5.19c-0.07-1.02-0.18-2.01-0.27-2.98
				c-0.3-3.11-0.45-6.07,1.19-9.67c2.5-5.5,7.67-11.66,13-19.5c2.08-3.05,5.79-6.68,10.86-9.95c1.38-0.89,2.87-1.76,4.45-2.58
				c2.6-1.35,5.46-2.58,8.55-3.58c0.84-0.28,1.69-0.54,2.56-0.78h0.01C258.81,171.62,259.12,171.53,259.43,171.46z"/>
			<path class="st38" d="M301.94,259.77c-0.41,2.5-0.79,4.99-0.93,7.45c-0.04,1.23-0.07,2.45,0.12,3.6c0.15,1.14,0.54,2.22,1.2,2.75
				c0.16,0.12,0.33,0.23,0.36,0.22c0.03,0-0.03,0.04,0.08-0.03c0.2-0.17,0.47-0.68,0.65-1.2c0.39-1.07,0.59-2.3,0.77-3.51
				c0.16-1.22,0.29-2.47,0.36-3.71c0.07-1.24,0.14-2.53-0.03-3.7l0.47-0.17c0.54,1.27,0.65,2.56,0.8,3.85
				c0.11,1.29,0.14,2.59,0.07,3.89c-0.06,1.31-0.22,2.61-0.61,3.96c-0.23,0.67-0.46,1.38-1.19,2.08c-0.37,0.36-1.09,0.62-1.68,0.49
				c-0.61-0.1-0.97-0.38-1.32-0.64c-0.65-0.55-1.07-1.27-1.33-1.96c-0.27-0.7-0.42-1.4-0.48-2.09c-0.13-1.37-0.06-2.7,0.13-4
				c0.37-2.59,1.09-5.07,2.11-7.44L301.94,259.77z"/>
			<g>
				<g>
					<path class="st53" d="M251.57,233.57l0.18-0.1c0.15-0.08,3.64-1.95,8.21-1.95c2.73,0,5.29,0.66,7.63,1.96l0.18,0.1l-0.68,1.22
						l-0.17-0.1c-2.1-1.17-4.42-1.76-6.91-1.76c-4.3,0-7.55,1.74-7.58,1.76l-0.18,0.1L251.57,233.57z"/>
					<path class="st53" d="M252.32,234.53l-0.48-0.88c0.32-0.18,8-4.25,15.65,0l-0.49,0.87
						C259.83,230.54,252.39,234.49,252.32,234.53z"/>
				</g>
				<g>
					<g>
						<path class="st53" d="M284.08,252.63c-10.13,0-18.37-8.24-18.37-18.37c0-10.13,8.24-18.37,18.37-18.37
							c10.13,0,18.37,8.24,18.37,18.37C302.45,244.39,294.21,252.63,284.08,252.63z M284.08,217.29c-9.36,0-16.97,7.61-16.97,16.97
							c0,9.36,7.61,16.97,16.97,16.97c9.36,0,16.97-7.61,16.97-16.97C301.05,224.91,293.44,217.29,284.08,217.29z"/>
						<path class="st53" d="M284.08,252.43c-10.02,0-18.17-8.15-18.17-18.17s8.15-18.17,18.17-18.17c10.02,0,18.17,8.15,18.17,18.17
							S294.1,252.43,284.08,252.43z M284.08,217.09c-9.47,0-17.17,7.7-17.17,17.17c0,9.47,7.7,17.17,17.17,17.17
							s17.17-7.7,17.17-17.17C301.25,224.8,293.55,217.09,284.08,217.09z"/>
					</g>
					<g>
						<path class="st53" d="M234.57,254.63c-10.13,0-18.37-8.24-18.37-18.37c0-10.13,8.24-18.37,18.37-18.37
							c10.13,0,18.37,8.24,18.37,18.37C252.94,246.39,244.7,254.63,234.57,254.63z M234.57,219.29c-9.36,0-16.97,7.61-16.97,16.97
							c0,9.36,7.61,16.97,16.97,16.97c9.36,0,16.97-7.61,16.97-16.97C251.54,226.91,243.93,219.29,234.57,219.29z"/>
						<path class="st53" d="M234.57,254.43c-10.02,0-18.17-8.15-18.17-18.17s8.15-18.17,18.17-18.17c10.02,0,18.17,8.15,18.17,18.17
							S244.59,254.43,234.57,254.43z M234.57,219.09c-9.47,0-17.17,7.7-17.17,17.17c0,9.47,7.7,17.17,17.17,17.17
							c9.47,0,17.17-7.7,17.17-17.17C251.74,226.8,244.04,219.09,234.57,219.09z"/>
					</g>
				</g>
			</g>
			<path class="st54" d="M291.75,259.39C290,292,273.86,304.75,290.43,332c-0.12-0.16-0.25-0.33-0.37-0.5
				c-0.01-0.01-0.02-0.03-0.03-0.04v-0.01c-21.44-29.43,1.53-48.2-0.62-78.86c-1.3-18.68-6.61-28.91-10.63-34.08
				c-2.65-3.41-4.73-4.63-4.73-4.63c0.37-0.24,0.74-0.47,1.12-0.67c0.16,0.15,0.32,0.34,0.49,0.55
				C275.66,213.76,293.5,226.77,291.75,259.39z"/>
			<path class="st26" d="M210.78,292.42c-7.47,7.01-19.89,12.58-23.71,7.8c-1.96-2.45-1.34-4.94-0.28-6.79
				c-0.35,2.01-0.22,6.4,8.21,4.89c10.81-1.94,23.96-15.96,22.65-24.97C221.23,277.41,218.24,285.41,210.78,292.42z"/>
		</g>
	</g>
	<g>
		<g>
			<circle class="st55" cx="343.49" cy="145.21" r="20.93"/>
			<g>
				<path class="st56" d="M325.98,147.44c0,0,4-2.94,6.82,1.53"/>
				<path class="st56" d="M353.6,150.73c0,0,5.41-3.06,7.17,2"/>
			</g>
			<path class="st57" d="M332.44,150.91c3.35-0.66,11.74-1.62,20.51,2.89c0.82,0.42,1.06,1.5,0.47,2.21
				c-1.66,2-5.41,5.38-11.46,4.71c-7.01-0.77-9.67-5.41-10.6-7.89C331.06,152,331.57,151.08,332.44,150.91z"/>
			<path class="st37" d="M335.09,158.03c0,0,6.87-4.84,13.11,1.87C348.19,159.9,343.03,163.1,335.09,158.03z"/>
		</g>
		<g>
			<path class="st55" d="M116.46,122.62c-6.8,3.56-15.2,0.93-18.76-5.87c-2.42-4.63-1.97-10.02,0.73-14.1
				c1.24-1.9,2.98-3.52,5.14-4.65c6.8-3.56,15.19-0.93,18.75,5.86c0.83,1.58,1.32,3.25,1.5,4.92
				C124.43,114.3,121.67,119.89,116.46,122.62z"/>
			<g>
				<path class="st58" d="M100.4,117.02c0,0,1.45-2.96,4.48-1.2"/>
				<path class="st58" d="M117.66,110.45c0,0,2.24-3.46,4.83-1.03"/>
			</g>
			<path class="st57" d="M105.27,117.07c1.76-1.42,6.4-4.57,12.96-4.61c0.61,0,1.08,0.56,0.96,1.16c-0.36,1.69-1.53,4.83-5.29,6.3
				c-4.36,1.71-7.35-0.21-8.66-1.38C104.79,118.13,104.81,117.44,105.27,117.07z"/>
			<path class="st37" d="M109.02,120.44c0,0,2.55-4.96,8.28-2.94C117.3,117.5,115.25,120.98,109.02,120.44z"/>
		</g>
		<g>
			
				<ellipse transform="matrix(0.228 -0.9737 0.9737 0.228 -176.3599 388.5323)" class="st55" cx="156.83" cy="305.48" rx="18.19" ry="18.19"/>
			<circle class="st57" cx="155.14" cy="315.64" r="4.34"/>
			<g>
				<g>
					<path class="st59" d="M146.1,308.65c0,0.73-0.41,1.33-0.92,1.33s-0.92-0.59-0.92-1.33c0-0.73,0.41-1.33,0.92-1.33
						S146.1,307.91,146.1,308.65z"/>
					<path class="st59" d="M168.71,310.78c-0.18,0.71-0.73,1.18-1.22,1.06c-0.49-0.13-0.74-0.81-0.56-1.52
						c0.18-0.71,0.73-1.18,1.22-1.06C168.64,309.4,168.89,310.07,168.71,310.78z"/>
				</g>
			</g>
			<g>
				<path class="st60" d="M142.93,303.64c0,0,1.23-1.63,3.17-0.31"/>
				<path class="st60" d="M167.45,305.48c0,0,1.94-0.82,2.86,1.12"/>
			</g>
		</g>
		<g>
			<circle class="st55" cx="385.49" cy="228.28" r="14.52"/>
			<path class="st57" d="M387.61,236.39c0,1.91-1.55,3.47-3.47,3.47c-1.91,0-3.47-1.55-3.47-3.47c0-1.91,1.55-3.47,3.47-3.47
				C386.06,232.93,387.61,234.48,387.61,236.39z"/>
			<g>
				<g>
					<ellipse class="st59" cx="376.2" cy="230.81" rx="0.73" ry="1.06"/>
					<path class="st59" d="M394.97,232.51c-0.15,0.57-0.58,0.94-0.98,0.84c-0.39-0.1-0.59-0.64-0.45-1.21
						c0.15-0.57,0.58-0.94,0.98-0.84C394.92,231.41,395.12,231.95,394.97,232.51z"/>
				</g>
			</g>
			<g>
				<path class="st61" d="M374.4,226.81c0,0,0.98-1.3,2.53-0.24"/>
				<path class="st61" d="M393.97,228.28c0,0,1.55-0.65,2.28,0.9"/>
			</g>
		</g>
		<g>
			<circle class="st10" cx="239.39" cy="144.08" r="8.65"/>
			<path class="st11" d="M239.75,148.35c0,0-5.03-1.02-4.91-4.38c0.12-3.36,3.9-2.76,4.26-1.5c0,0,2.34-2.88,4.56-0.42
				C245.88,144.51,241.06,147.63,239.75,148.35z"/>
		</g>
		<g>
			<path class="st10" d="M193.34,93.29c-2.05,5.76-8.38,8.76-14.14,6.71c-5.76-2.05-8.76-8.38-6.71-14.14
				c2.05-5.76,8.38-8.76,14.14-6.71C192.39,81.2,195.39,87.53,193.34,93.29z"/>
			<path class="st11" d="M180.98,96.54c0,0-6.59-4.21-4.48-9.59c2.11-5.38,7.16-2.49,6.95-0.27c0,0,5-3.48,6.75,1.64
				C191.95,93.44,183.26,96.04,180.98,96.54z"/>
		</g>
		<g>
			
				<ellipse transform="matrix(0.7071 -0.7071 0.7071 0.7071 33.0862 312.9141)" class="st10" cx="394.26" cy="116.52" rx="15.95" ry="15.95"/>
			<path class="st11" d="M392.3,124.18c0,0-8.13-4.82-5.88-10.6c2.25-5.77,8.46-2.44,8.32-0.03c0,0,5.82-3.59,8.19,2.03
				C405.3,121.22,395,123.72,392.3,124.18z"/>
		</g>
		<g>
			<path class="st10" d="M376.95,312.49c-1.61,2.84-5.22,3.85-8.06,2.24c-2.84-1.61-3.85-5.22-2.24-8.06
				c1.61-2.84,5.22-3.85,8.06-2.24C377.56,306.03,378.56,309.64,376.95,312.49z"/>
			<path class="st11" d="M370.57,312.24c0,0-2.65-2.3-1.45-4.26c1.2-1.96,3.25-0.33,3.04,0.54c0,0,2.36-0.93,2.85,1.28
				C375.52,312.02,371.59,312.25,370.57,312.24z"/>
		</g>
		<g>
			
				<ellipse transform="matrix(0.7256 -0.6881 0.6881 0.7256 -143.545 148.6037)" class="st10" cx="114.54" cy="254.28" rx="18.27" ry="18.27"/>
			<path class="st11" d="M115.3,263.31c0,0-10.61-2.15-10.35-9.24c0.25-7.09,8.23-5.82,8.99-3.17c0,0,4.94-6.08,9.62-0.89
				C128.25,255.2,118.06,261.79,115.3,263.31z"/>
		</g>
		<g>
			
				<ellipse transform="matrix(0.4899 -0.8718 0.8718 0.4899 42.3512 248.4331)" class="st55" cx="233.47" cy="88.03" rx="20.83" ry="20.83"/>
			<g>
				<g>
					<path class="st62" d="M217.59,95.73c1.47-0.14,2.91-0.21,4.34-0.26c1.43-0.06,2.86-0.08,4.28-0.11l0.04,0
						c0.42-0.01,0.76,0.32,0.77,0.74c0,0.2-0.07,0.39-0.2,0.53c-0.51,0.56-1,1.03-1.57,1.47c-0.56,0.43-1.13,0.84-1.75,1.18
						c-1.22,0.7-2.59,1.18-3.98,1.28c0.6-0.37,1.18-0.69,1.73-1.08c0.55-0.37,1.08-0.77,1.59-1.18c0.5-0.42,1-0.84,1.47-1.29
						c0.46-0.45,0.95-0.91,1.33-1.37l0.61,1.27c-1.46,0.03-2.92-0.02-4.37-0.2C220.43,96.52,218.98,96.24,217.59,95.73z"/>
				</g>
				<g>
					<path class="st62" d="M251.03,86.96c-1.08,1.17-2.3,2.18-3.61,3.07c-0.65,0.46-1.34,0.85-2.05,1.24
						c-0.72,0.36-1.47,0.7-2.32,0.92l0.05-1.49c0.67,0.22,1.41,0.39,2.12,0.56c0.72,0.18,1.44,0.31,2.17,0.45
						c1.46,0.25,2.91,0.43,4.46,0.37c-1.41,0.68-3.02,0.85-4.58,0.82c-0.78-0.01-1.56-0.11-2.33-0.22c-0.77-0.12-1.52-0.3-2.3-0.51
						c-0.41-0.11-0.65-0.53-0.53-0.94c0.08-0.28,0.3-0.48,0.56-0.54l0.02,0c0.67-0.16,1.36-0.44,2.05-0.74
						c0.7-0.28,1.37-0.64,2.07-0.96C248.19,88.3,249.58,87.6,251.03,86.96z"/>
				</g>
			</g>
			<path class="st57" d="M226.11,100.78c0,0,10.75-5.16,20.81-5.52c0,0-0.31,6.43-9.23,8.8
				C228.76,106.42,226.11,100.78,226.11,100.78z"/>
			<path class="st37" d="M231.9,104.49c0,0,3.92-6.02,11.49-3.01C243.39,101.48,238.82,105.06,231.9,104.49z"/>
		</g>
		<g>
			
				<ellipse transform="matrix(0.5263 -0.8503 0.8503 0.5263 -115.0997 270.4523)" class="st55" cx="185.18" cy="238.53" rx="13.25" ry="13.25"/>
			<g>
				<g>
					<path class="st62" d="M175.01,243.29c1.87-0.14,3.67-0.15,5.49-0.16l0.02,0c0.27,0,0.48,0.21,0.48,0.48
						c0,0.13-0.05,0.25-0.13,0.33c-0.33,0.35-0.65,0.65-1.01,0.92c-0.36,0.27-0.73,0.53-1.13,0.74c-0.78,0.43-1.66,0.73-2.54,0.78
						c0.77-0.43,1.47-0.89,2.13-1.41c0.32-0.26,0.65-0.52,0.95-0.81c0.3-0.28,0.61-0.57,0.86-0.86l0.38,0.81
						c-0.93,0.01-1.86-0.04-2.78-0.17C176.81,243.82,175.89,243.63,175.01,243.29z"/>
				</g>
				<g>
					<path class="st62" d="M196.36,238c-0.7,0.73-1.48,1.36-2.33,1.92c-0.85,0.56-1.73,1.05-2.8,1.33l0.04-0.95
						c0.87,0.28,1.8,0.49,2.72,0.68c0.93,0.17,1.85,0.3,2.83,0.28c-0.9,0.42-1.93,0.52-2.92,0.48c-1-0.04-1.96-0.22-2.94-0.5
						c-0.26-0.08-0.41-0.35-0.33-0.61c0.05-0.17,0.19-0.29,0.35-0.34l0.02-0.01c0.86-0.21,1.75-0.64,2.63-1.05
						C194.54,238.83,195.43,238.39,196.36,238z"/>
				</g>
			</g>
			<path class="st57" d="M180.39,246.58c0,0,6.88-3.19,13.29-3.33c0,0-0.25,4.09-5.95,5.52
				C182.02,250.19,180.39,246.58,180.39,246.58z"/>
			<path class="st37" d="M184.04,248.99c0,0,2.54-3.8,7.34-1.82C191.37,247.17,188.44,249.41,184.04,248.99z"/>
		</g>
		<g>
			<circle class="st55" cx="406.49" cy="168.94" r="10.32"/>
			<g class="st63">
				<line class="st64" x1="403.89" y1="163.1" x2="403.89" y2="174.91"/>
				<line class="st64" x1="412.79" y1="166.43" x2="400.98" y2="166.43"/>
				<line class="st64" x1="412.79" y1="171.58" x2="400.98" y2="171.58"/>
				<line class="st64" x1="409.45" y1="163.1" x2="409.45" y2="174.91"/>
			</g>
		</g>
		<g>
			<circle class="st55" cx="122.35" cy="163.1" r="16.11"/>
			<g class="st63">
				<path class="st65" d="M125.86,156.41c0,0-10.2,0.35-9.14,5.1c1.05,4.75,12.05-2.74,13.06,3.81c1,6.56-9.37,6.21-10.25,5.85"/>
				<line class="st65" x1="119.35" y1="154.3" x2="124.45" y2="173.23"/>
			</g>
		</g>
		<g>
			<circle class="st13" cx="433.86" cy="225.06" r="22.64"/>
			<g>
				<path class="st11" d="M428.77,223.66c0,0,1.91-0.63,2.16-3.94c0.25-3.31,0.76-3.31,3.31-3.05c2.54,0.25,2.67,1.78,1.78,4.45
					s0,3.94,2.8,3.05c2.8-0.89,5.34-2.03,6.36,2.29c1.02,4.32-1.14,7.38-4.71,7.76c-3.56,0.38-12.59-0.89-12.59-0.89L428.77,223.66z
					"/>
				<path class="st14" d="M427.3,234.72h-1.89c-0.81,0-1.47-0.66-1.47-1.47v-10.66c0-0.81,0.66-1.47,1.47-1.47h1.89
					c0.81,0,1.47,0.66,1.47,1.47v10.66C428.77,234.06,428.11,234.72,427.3,234.72z"/>
			</g>
		</g>
		<g>
			<circle class="st13" cx="160.55" cy="130.54" r="16.75"/>
			<g>
				<path class="st11" d="M156.79,129.5c0,0,1.41-0.47,1.6-2.91c0.19-2.45,0.56-2.45,2.45-2.26c1.88,0.19,1.98,1.32,1.32,3.29
					c-0.66,1.98,0,2.92,2.07,2.26c2.07-0.66,3.95-1.51,4.71,1.69c0.75,3.2-0.85,5.46-3.48,5.74c-2.63,0.28-9.32-0.66-9.32-0.66
					L156.79,129.5z"/>
				<path class="st14" d="M155,137.69L155,137.69c-0.98,0-1.79-0.8-1.79-1.79v-6.49c0-0.98,0.8-1.79,1.79-1.79l0,0
					c0.98,0,1.79,0.8,1.79,1.79v6.49C156.79,136.89,155.99,137.69,155,137.69z"/>
			</g>
		</g>
		<g>
			<path class="st13" d="M339.97,197.23c-1.34,4.47-6.04,7-10.51,5.67c-4.47-1.34-7-6.04-5.67-10.51c1.34-4.47,6.04-7,10.51-5.67
				C338.76,188.05,341.3,192.76,339.97,197.23z"/>
			<g>
				<path class="st11" d="M330.21,193.76c0,0,0.75-0.02,1.19-1.18c0.44-1.15,0.63-1.1,1.51-0.74s0.76,0.92,0.16,1.78
					c-0.6,0.86-0.42,1.41,0.67,1.39c1.09-0.02,2.13-0.16,2.03,1.5c-0.1,1.65-1.2,2.51-2.51,2.27c-1.31-0.24-4.4-1.66-4.4-1.66
					L330.21,193.76z"/>
				<path class="st14" d="M328.32,197.5l-0.31-0.09c-0.39-0.12-0.61-0.53-0.5-0.92l1.03-3.45c0.12-0.39,0.53-0.61,0.92-0.5
					l0.31,0.09c0.39,0.12,0.61,0.53,0.5,0.92l-1.03,3.45C329.12,197.4,328.71,197.62,328.32,197.5z"/>
			</g>
		</g>
		<g>
			
				<ellipse transform="matrix(0.7071 -0.7071 0.7071 0.7071 16.4884 236.0804)" class="st13" cx="293.22" cy="98.14" rx="17.01" ry="17.01"/>
			<g>
				<path class="st11" d="M289.4,97.08c0,0,1.43-0.47,1.62-2.96c0.19-2.48,0.57-2.48,2.48-2.29s2.01,1.34,1.34,3.34
					c-0.67,2.01,0,2.96,2.1,2.29s4.01-1.53,4.78,1.72c0.76,3.25-0.86,5.54-3.54,5.83c-2.68,0.29-9.46-0.67-9.46-0.67L289.4,97.08z"
					/>
				<path class="st14" d="M287.58,105.4L287.58,105.4c-1,0-1.82-0.82-1.82-1.82v-6.59c0-1,0.82-1.82,1.82-1.82l0,0
					c1,0,1.82,0.82,1.82,1.82v6.59C289.4,104.58,288.58,105.4,287.58,105.4z"/>
			</g>
		</g>
		<g>
			
				<ellipse transform="matrix(0.9939 -0.1104 0.1104 0.9939 -21.5811 10.1261)" class="st13" cx="80.63" cy="199.91" rx="19.39" ry="19.39"/>
			<g>
				<path class="st11" d="M76.14,200.38c0,0,1.32-1.1,0.5-3.81c-0.83-2.72-0.42-2.88,1.68-3.47c2.11-0.59,2.69,0.59,2.81,2.99
					c0.12,2.41,1.23,3.14,3.18,1.56c1.95-1.58,3.63-3.29,5.79-0.16c2.16,3.13,1.39,6.24-1.33,7.66c-2.72,1.42-10.32,3.22-10.32,3.22
					L76.14,200.38z"/>
				<path class="st14" d="M77.66,209.96L77.66,209.96c-1.06,0.41-2.27-0.11-2.68-1.17l-2.74-7c-0.41-1.06,0.11-2.27,1.17-2.68l0,0
					c1.06-0.41,2.27,0.11,2.68,1.17l2.74,7C79.25,208.34,78.72,209.55,77.66,209.96z"/>
			</g>
		</g>
		<g>
			<path class="st12" d="M116.46,122.62c-6.8,3.56-15.2,0.93-18.76-5.87c-2.42-4.63-1.97-10.02,0.73-14.1
				c-0.21,0.79-2.46,9.76,7.97,13.58c0.79,0.3,1.67,0.56,2.62,0.79c1.16,0.27,2.22,0.43,3.19,0.5c1.53,0.11,2.85-0.02,3.99-0.33
				c0.67-0.16,1.27-0.4,1.82-0.68c5.1-2.61,5.22-9.18,5.22-9.18s0.25,0.53,0.58,1.45C124.43,114.3,121.67,119.89,116.46,122.62z"/>
			<path class="st52" d="M106.26,99.94c1.86-2.91,12.02,0.52,10.38,5.46C115,110.33,103.53,104.22,106.26,99.94z"/>
		</g>
		<g>
			<path class="st12" d="M242.88,106.5c-10.11,5.29-22.61,1.38-27.9-8.73c-3.6-6.89-2.93-14.9,1.09-20.97
				c-0.31,1.18-3.66,14.52,11.85,20.2c1.17,0.45,2.48,0.83,3.9,1.17c1.73,0.4,3.3,0.64,4.74,0.74c2.28,0.16,4.24-0.03,5.93-0.49
				c1-0.24,1.89-0.59,2.71-1.01c7.59-3.88,7.76-13.65,7.76-13.65s0.37,0.79,0.86,2.16C254.74,94.13,250.63,102.44,242.88,106.5z"/>
			<path class="st52" d="M227.72,72.77c2.77-4.33,17.87,0.78,15.43,8.12C240.71,88.23,223.65,79.13,227.72,72.77z"/>
		</g>
		<g>
			<path class="st12" d="M333.51,163.71c10.36,5.42,23.15,1.42,28.57-8.94c3.69-7.05,3-15.26-1.11-21.47
				c0.32,1.2,3.75,14.86-12.14,20.68c-1.2,0.46-2.54,0.85-3.99,1.2c-1.77,0.41-3.38,0.65-4.86,0.76c-2.33,0.17-4.34-0.03-6.08-0.5
				c-1.02-0.24-1.93-0.61-2.77-1.04c-7.77-3.98-7.95-13.98-7.95-13.98s-0.38,0.81-0.88,2.21
				C321.37,151.04,325.57,159.56,333.51,163.71z"/>
			<path class="st52" d="M349.04,129.18c-2.84-4.43-18.3,0.8-15.8,8.31C335.73,145,353.2,135.69,349.04,129.18z"/>
		</g>
		<g>
			<path class="st12" d="M401.35,177.88c5.17,2.71,11.56,0.71,14.26-4.46c1.84-3.52,1.5-7.62-0.55-10.72
				c0.16,0.6,1.87,7.42-6.06,10.32c-0.6,0.23-1.27,0.43-1.99,0.6c-0.88,0.21-1.69,0.33-2.43,0.38c-1.16,0.08-2.17-0.02-3.03-0.25
				c-0.51-0.12-0.97-0.3-1.38-0.52c-3.88-1.98-3.97-6.98-3.97-6.98s-0.19,0.4-0.44,1.1C395.29,171.55,397.39,175.8,401.35,177.88z"
				/>
			<path class="st52" d="M409.1,160.64c-1.42-2.21-9.14,0.4-7.89,4.15C402.46,168.54,411.18,163.89,409.1,160.64z"/>
		</g>
		<g>
			<path class="st12" d="M378.7,240.77c7.05,3.69,15.77,0.96,19.46-6.09c2.51-4.8,2.04-10.39-0.76-14.63
				c0.22,0.82,2.55,10.12-8.27,14.09c-0.82,0.31-1.73,0.58-2.72,0.82c-1.2,0.28-2.3,0.45-3.31,0.52c-1.59,0.11-2.96-0.02-4.14-0.34
				c-0.7-0.17-1.32-0.42-1.89-0.71c-5.29-2.71-5.42-9.52-5.42-9.52s-0.26,0.55-0.6,1.5C370.43,232.14,373.29,237.93,378.7,240.77z"
				/>
			<path class="st52" d="M389.27,217.24c-1.93-3.02-12.46,0.54-10.76,5.66C380.21,228.02,392.11,221.68,389.27,217.24z"/>
		</g>
		<g>
			<path class="st12" d="M430.32,247.57c12.5,1.8,24.08-6.88,25.88-19.38c1.22-8.51-2.43-16.62-8.86-21.47
				c0.76,1.11,9.16,13.79-4.92,25.43c-1.06,0.9-2.28,1.78-3.63,2.66c-1.65,1.05-3.21,1.88-4.67,2.52c-2.31,1.01-4.43,1.53-6.37,1.67
				c-1.13,0.12-2.19,0.08-3.2-0.06c-9.34-1.25-13.12-11.38-13.12-11.38s-0.1,0.96-0.11,2.57
				C413.4,239.03,420.74,246.19,430.32,247.57z"/>
			<path class="st66" d="M433.71,206.81c-4.48-3.49-18.35,7.39-13.1,14.15C425.85,227.71,440.29,211.94,433.71,206.81z"/>
		</g>
		<g>
			<path class="st12" d="M290.73,114.65c9.26,1.33,17.84-5.1,19.17-14.36c0.9-6.3-1.8-12.31-6.56-15.9
				c0.56,0.82,6.79,10.21-3.65,18.84c-0.79,0.67-1.69,1.32-2.69,1.97c-1.22,0.78-2.38,1.39-3.46,1.87
				c-1.71,0.75-3.28,1.13-4.72,1.24c-0.83,0.09-1.62,0.06-2.37-0.04c-6.92-0.93-9.72-8.43-9.72-8.43s-0.07,0.71-0.08,1.9
				C278.19,108.33,283.63,113.63,290.73,114.65z"/>
			<path class="st66" d="M293.24,84.46c-3.32-2.59-13.59,5.48-9.71,10.48C287.42,99.94,298.12,88.26,293.24,84.46z"/>
		</g>
		<g>
			<path class="st12" d="M330.63,202.95c4.38,0.63,8.44-2.41,9.07-6.79c0.43-2.98-0.85-5.82-3.1-7.52c0.27,0.39,3.21,4.83-1.72,8.91
				c-0.37,0.31-0.8,0.62-1.27,0.93c-0.58,0.37-1.12,0.66-1.64,0.88c-0.81,0.35-1.55,0.54-2.23,0.59c-0.39,0.04-0.77,0.03-1.12-0.02
				c-3.27-0.44-4.6-3.99-4.6-3.99s-0.03,0.34-0.04,0.9C324.7,199.96,327.28,202.47,330.63,202.95z"/>
			<path class="st66" d="M331.82,188.67c-1.57-1.22-6.43,2.59-4.59,4.96C329.07,196,334.13,190.47,331.82,188.67z"/>
		</g>
		<g>
			<g>
				<path class="st55" d="M291.16,146.56c2.11,3.92,0.64,8.8-3.27,10.91s-8.8,0.64-10.91-3.27c-2.11-3.92-0.64-8.8,3.27-10.91
					S289.05,142.64,291.16,146.56z"/>
				<path class="st57" d="M287.23,153.79c0.5,0.94,0.15,2.1-0.78,2.61c-0.94,0.5-2.1,0.15-2.61-0.78c-0.5-0.94-0.15-2.1,0.78-2.61
					C285.56,152.5,286.73,152.85,287.23,153.79z"/>
				<g>
					<g>
						<path class="st59" d="M280.54,153.87c0.15,0.29,0.12,0.6-0.08,0.71c-0.2,0.11-0.48-0.04-0.64-0.32
							c-0.15-0.29-0.12-0.6,0.08-0.71C280.1,153.44,280.39,153.58,280.54,153.87z"/>
						<path class="st59" d="M289.81,149.96c0.08,0.32-0.04,0.62-0.25,0.67c-0.22,0.05-0.46-0.16-0.54-0.47
							c-0.08-0.32,0.04-0.61,0.25-0.67C289.49,149.43,289.73,149.64,289.81,149.96z"/>
					</g>
				</g>
				<g>
					<path class="st67" d="M278.26,152.58c0,0,0.13-0.9,1.17-0.78"/>
					<path class="st67" d="M288.21,148.15c0,0,0.59-0.73,1.35-0.16"/>
				</g>
			</g>
			<g>
				<path class="st12" d="M280.05,157.4c4,2.1,8.95,0.55,11.05-3.46c1.43-2.73,1.16-5.9-0.43-8.3c0.12,0.47,1.45,5.75-4.69,8
					c-0.47,0.18-0.98,0.33-1.54,0.47c-0.68,0.16-1.31,0.25-1.88,0.29c-0.9,0.06-1.68-0.01-2.35-0.19c-0.39-0.09-0.75-0.24-1.07-0.4
					c-3-1.54-3.07-5.41-3.07-5.41s-0.15,0.31-0.34,0.85C275.35,152.5,276.98,155.79,280.05,157.4z"/>
				<path class="st52" d="M286.05,144.04c-1.1-1.71-7.08,0.31-6.11,3.21C280.91,150.16,287.66,146.56,286.05,144.04z"/>
			</g>
		</g>
		<g>
			<path class="st12" d="M235.34,152.17c4.27,2.24,9.55,0.58,11.79-3.69c1.52-2.91,1.24-6.3-0.46-8.86c0.13,0.5,1.55,6.13-5.01,8.53
				c-0.5,0.19-1.05,0.35-1.65,0.5c-0.73,0.17-1.39,0.27-2,0.31c-0.96,0.07-1.79-0.01-2.51-0.21c-0.42-0.1-0.8-0.25-1.14-0.43
				c-3.2-1.64-3.28-5.77-3.28-5.77s-0.16,0.33-0.36,0.91C230.33,146.94,232.07,150.45,235.34,152.17z"/>
		</g>
		<g>
			<path class="st12" d="M391.52,132.26c8.72,1.41,16.93-4.52,18.35-13.24c0.96-5.94-1.5-11.66-5.93-15.13
				c0.52,0.79,6.24,9.76-3.76,17.73c-0.75,0.62-1.62,1.22-2.57,1.82c-1.17,0.72-2.27,1.28-3.3,1.71c-1.63,0.68-3.12,1.02-4.48,1.09
				c-0.79,0.07-1.53,0.03-2.23-0.08c-6.52-0.99-9.04-8.12-9.04-8.12s-0.08,0.67-0.11,1.79
				C379.79,126.08,384.84,131.18,391.52,132.26z"/>
		</g>
		<g>
			<path class="st12" d="M370.73,315.27c3.26,0.53,6.33-1.69,6.86-4.95c0.36-2.22-0.56-4.36-2.22-5.66
				c0.19,0.29,2.33,3.65-1.41,6.63c-0.28,0.23-0.61,0.46-0.96,0.68c-0.44,0.27-0.85,0.48-1.23,0.64c-0.61,0.25-1.17,0.38-1.67,0.41
				c-0.3,0.03-0.57,0.01-0.84-0.03c-2.44-0.37-3.38-3.04-3.38-3.04s-0.03,0.25-0.04,0.67C366.35,312.96,368.23,314.87,370.73,315.27
				z"/>
		</g>
		<g>
			<path class="st12" d="M155.73,146.58c-8.96-2.8-13.94-12.34-11.14-21.29c1.91-6.1,6.96-10.37,12.82-11.56
				c-0.86,0.5-12.56,6.31-6.85,18.63c0.42,0.94,0.96,1.93,1.58,2.95c0.77,1.24,1.55,2.29,2.33,3.19c1.23,1.42,2.48,2.45,3.73,3.16
				c0.72,0.44,1.44,0.75,2.16,0.99c6.67,2.15,14.45-3.42,14.45-3.42s-0.24,0.67-0.75,1.76
				C169.81,146.28,162.59,148.73,155.73,146.58z"/>
			<path class="st15" d="M166.52,118.16c4.13-0.91,9.94,10.84,4.25,13.69C165.09,134.7,160.46,119.49,166.52,118.16z"/>
		</g>
		<g>
			<g>
				<path class="st13" d="M126.59,292.37c1.45,2.82,0.34,6.29-2.48,7.74c-2.82,1.45-6.29,0.34-7.74-2.48
					c-1.45-2.82-0.34-6.29,2.48-7.74C121.68,288.43,125.14,289.55,126.59,292.37z"/>
				<g>
					<path class="st11" d="M120.17,295.27c0,0,0.36-0.36,0.03-1.14c-0.33-0.78-0.21-0.84,0.39-1.07c0.6-0.24,0.81,0.09,0.92,0.8
						c0.11,0.71,0.46,0.89,0.99,0.36c0.53-0.53,0.97-1.08,1.7-0.22c0.73,0.86,0.6,1.8-0.16,2.3c-0.76,0.5-2.95,1.26-2.95,1.26
						L120.17,295.27z"/>
					<path class="st14" d="M120.91,298.05L120.91,298.05c-0.3,0.15-0.67,0.04-0.83-0.26l-1.02-1.98c-0.15-0.3-0.04-0.67,0.26-0.83
						l0,0c0.3-0.15,0.67-0.04,0.83,0.27l1.02,1.98C121.33,297.53,121.21,297.9,120.91,298.05z"/>
				</g>
			</g>
			<g>
				<path class="st12" d="M119.81,300.63c-3.02-0.94-4.7-4.15-3.75-7.17c0.64-2.05,2.34-3.49,4.32-3.89
					c-0.29,0.17-4.23,2.12-2.31,6.27c0.14,0.32,0.32,0.65,0.53,0.99c0.26,0.42,0.52,0.77,0.78,1.07c0.41,0.48,0.84,0.82,1.26,1.07
					c0.24,0.15,0.49,0.25,0.73,0.33c2.24,0.72,4.86-1.15,4.86-1.15s-0.08,0.23-0.25,0.59C124.55,300.52,122.12,301.35,119.81,300.63
					z"/>
				<path class="st15" d="M123.44,291.06c1.39-0.31,3.35,3.65,1.43,4.61C122.96,296.62,121.4,291.5,123.44,291.06z"/>
			</g>
		</g>
		<g>
			<path class="st12" d="M117.55,178.64c-8.74-2.73-13.6-12.03-10.87-20.77c1.86-5.94,6.79-10.11,12.5-11.27
				c-0.84,0.49-12.25,6.16-6.68,18.17c0.41,0.92,0.94,1.88,1.54,2.88c0.75,1.21,1.51,2.23,2.27,3.11c1.2,1.38,2.42,2.39,3.64,3.09
				c0.7,0.43,1.41,0.73,2.11,0.96c6.5,2.1,14.09-3.34,14.09-3.34s-0.24,0.66-0.73,1.71C131.29,178.34,124.25,180.73,117.55,178.64z"
				/>
			<path class="st15" d="M128.08,150.92c4.03-0.88,9.69,10.57,4.15,13.35C126.68,167.05,122.17,152.22,128.08,150.92z"/>
		</g>
		<g>
			<path class="st12" d="M74.47,218.41c-10.13-3.17-15.77-13.95-12.6-24.07c2.16-6.89,7.87-11.72,14.5-13.07
				c-0.98,0.57-14.21,7.14-7.74,21.06c0.48,1.07,1.08,2.18,1.79,3.33c0.87,1.4,1.75,2.59,2.63,3.61c1.39,1.6,2.81,2.77,4.22,3.58
				c0.81,0.5,1.63,0.85,2.44,1.11c7.54,2.43,16.34-3.87,16.34-3.87s-0.27,0.76-0.85,1.98C90.39,218.07,82.23,220.84,74.47,218.41z"
				/>
			<path class="st15" d="M86.67,186.28c4.67-1.02,11.23,12.26,4.81,15.48C85.05,204.98,79.81,187.79,86.67,186.28z"/>
		</g>
		<g>
			<path class="st12" d="M108.98,271.55c-9.63-3.01-14.99-13.27-11.98-22.9c2.05-6.55,7.48-11.15,13.79-12.43
				c-0.93,0.54-13.51,6.79-7.37,20.03c0.46,1.01,1.03,2.07,1.7,3.17c0.83,1.33,1.66,2.46,2.5,3.43c1.32,1.52,2.67,2.63,4.02,3.4
				c0.77,0.47,1.55,0.81,2.32,1.06c7.17,2.31,15.54-3.68,15.54-3.68s-0.26,0.73-0.81,1.89
				C124.12,271.22,116.36,273.85,108.98,271.55z"/>
		</g>
		<g>
			<path class="st12" d="M151.29,322.72c-9.63-3.01-14.99-13.27-11.98-22.9c2.05-6.55,7.48-11.15,13.79-12.43
				c-0.93,0.54-13.51,6.79-7.37,20.03c0.46,1.01,1.03,2.07,1.7,3.17c0.83,1.33,1.66,2.46,2.5,3.43c1.32,1.52,2.67,2.63,4.02,3.4
				c0.77,0.47,1.55,0.81,2.32,1.06c7.17,2.31,15.54-3.68,15.54-3.68s-0.26,0.73-0.81,1.89C166.44,322.4,158.67,325.03,151.29,322.72
				z"/>
			<path class="st15" d="M162.9,292.16c4.44-0.97,10.68,11.66,4.57,14.72C161.36,309.94,156.38,293.6,162.9,292.16z"/>
		</g>
		<g>
			<path class="st12" d="M181.26,251.38c-7.07-2.21-11.01-9.74-8.8-16.82c1.51-4.81,5.5-8.19,10.12-9.13
				c-0.68,0.4-9.92,4.98-5.41,14.71c0.33,0.74,0.76,1.52,1.25,2.33c0.61,0.98,1.22,1.81,1.84,2.52c0.97,1.12,1.96,1.93,2.95,2.5
				c0.57,0.35,1.14,0.59,1.71,0.78c5.26,1.7,11.41-2.7,11.41-2.7s-0.19,0.53-0.59,1.39C192.38,251.14,186.68,253.07,181.26,251.38z"
				/>
			<path class="st15" d="M189.78,228.93c3.26-0.72,7.85,8.56,3.36,10.81C188.65,241.99,184.99,229.98,189.78,228.93z"/>
		</g>
		<g>
			<path class="st12" d="M188.01,99.3c-5.37,2.81-12,0.73-14.81-4.63c-1.91-3.65-1.56-7.91,0.58-11.13
				c-0.17,0.62-1.94,7.7,6.29,10.72c0.62,0.24,1.32,0.44,2.07,0.62c0.92,0.21,1.75,0.34,2.52,0.39c1.21,0.09,2.25-0.02,3.15-0.26
				c0.53-0.13,1-0.32,1.44-0.54c4.03-2.06,4.12-7.25,4.12-7.25s0.2,0.42,0.46,1.14C194.3,92.73,192.12,97.15,188.01,99.3z"/>
		</g>
		<g>
			<g>
				<path class="st68" d="M222.62,194.49l-11.06,0.6c0,0-0.34,2.21-0.95,4.21c-0.34,1.1-1.54,1.85-2.88,1.8
					c-5.61-0.21-20.74-0.85-28.15-1.73c-1.09-0.13-1.98-0.78-2.31-1.64c0,0-0.01-0.03-0.03-0.09c-0.05-0.15-0.08-0.3-0.1-0.47
					c-0.53-5.93-1.96-24.43-0.12-35.12c0.16-0.96,1-1.73,2.1-1.96c5.05-1.09,19.99-3.53,36.44,0.94c0.21,0.05,0.41,0.1,0.62,0.16
					c0.87,0.24,1.53,0.82,1.8,1.52c0.11,0.28,0.16,0.59,0.14,0.9c-0.28,4.15-1.18,14.63-3.37,23.51L222.62,194.49z"/>
				<path class="st69" d="M222.62,194.49l-11.06,0.6c0,0-0.34,2.21-0.95,4.21c-0.34,1.1-1.54,1.85-2.88,1.8
					c-5.61-0.21-20.74-0.85-28.15-1.73c-1.09-0.13-1.98-0.78-2.31-1.64c7.48,0.52,29.74,2,30.98,1.09c1.5-1.08,1.93-5.33,1.93-5.33
					h9.22l-6.87-5.99c4.58-16.64,3.12-25.97,3.03-26.47c0.21,0.05,0.41,0.1,0.62,0.16c1.22,0.34,2.02,1.34,1.94,2.42
					c-0.28,4.15-1.18,14.63-3.37,23.51L222.62,194.49z"/>
				<path class="st70" d="M217.98,162.71c0-0.01-0.01-0.01-0.01-0.01c-6.04-2.97-23.97-1.7-33.3,0.4c-9.34,2.1-7.4,34.63-7.4,34.63
					s-0.01-0.03-0.03-0.09c-0.05-0.15-0.08-0.3-0.1-0.47c-0.53-5.93-1.96-24.43-0.12-35.12c0.16-0.96,1-1.73,2.1-1.96
					c5.05-1.09,19.99-3.53,36.44,0.94c0.21,0.05,0.41,0.1,0.62,0.16C217.05,161.43,217.71,162.01,217.98,162.71z"/>
			</g>
			<g>
				<path class="st68" d="M400.11,293.98c-0.28,1.05-1.18,1.81-2.26,1.93c-4.85,0.53-19.17,1.85-33.3,0.73c0,0-0.3-1.16-0.58-2.43
					c-0.14-0.64-0.28-1.3-0.38-1.86c0,0-5.48,1.13-9.73-0.35l8.53-5.69c0,0-0.75-14.75-0.64-21.6c0.02-1.32,1.02-2.42,2.33-2.57
					c6.28-0.74,24.4-2.54,35.39-0.34c0.18,0.03,0.35,0.06,0.52,0.1c1.2,0.26,2.06,1.3,2.09,2.53
					C402.19,269.99,402.29,285.7,400.11,293.98z"/>
				<path class="st70" d="M402.08,264.43c-7.26-0.57-33.08-0.43-36.24,0.01c-3.15,0.43-1.42,21.33-1.42,21.33s-3.42,4.56-3.64,4.65
					c0.25-0.07,3.64-1.08,3.64-1.08l0.13,7.3c0,0-0.67-2.61-0.96-4.29c0,0-5.48,1.13-9.73-0.35l8.53-5.69c0,0-0.75-14.75-0.64-21.6
					c0.02-1.32,1.02-2.42,2.33-2.57c6.38-0.75,24.98-2.6,35.91-0.24C401.19,262.16,402.05,263.2,402.08,264.43z"/>
				<path class="st69" d="M400.11,293.98c-0.28,1.05-1.18,1.81-2.26,1.93c-4.85,0.53-19.17,1.85-33.3,0.73c0,0-0.3-1.16-0.58-2.43
					c12.9,1.14,32.53,2.04,34.2-2.79c1.96-5.67,1.56-22.54,1.3-29.62c0.18,0.03,0.35,0.06,0.52,0.1c1.2,0.26,2.06,1.3,2.09,2.53
					C402.19,269.99,402.29,285.7,400.11,293.98z"/>
			</g>
		</g>
	</g>
</g>
<g id="DESIGNED_BY_FREEPIK">
</g>
</svg>
