<?xml version="1.0" encoding="utf-8"?>
<!-- Generator: Adobe Illustrator 27.5.0, SVG Export Plug-In . SVG Version: 6.00 Build 0)  -->
<svg version="1.1" xmlns="http://www.w3.org/2000/svg" xmlns:xlink="http://www.w3.org/1999/xlink" x="0px" y="0px"
	 viewBox="0 0 500 500" style="enable-background:new 0 0 500 500;" xml:space="preserve">
<g id="Background_Simple">
	<g>
		<path style="fill:#92E3A9;" d="M466.365,182.274c-3.952-52.192-39.086-96.138-82.704-122.437
			c-42.113-25.392-92.69-36.462-141.559-30.984C174.448,36.437,84.31,79.783,88.985,159.621c0.846,14.44,4.91,28.867,2.795,43.176
			c-3.816,25.807-26.103,44.14-40.954,65.588c-15.695,22.666-23.544,50.658-21.922,78.18c1.817,30.826,17.821,62.924,46.474,74.438
			c28.745,11.552,61.159,0.073,92.117,1.22c50.15,1.858,93.404,36.585,142.839,45.225c36.435,6.367,75.281-2.414,105.434-23.835
			c14.098-10.015,26.565-23.037,33.082-39.055c16.409-40.333-8.241-86.232-1.749-129.289c4.466-29.613,20.344-55.465,19.607-86.116
			C466.652,186.844,466.537,184.55,466.365,182.274z"/>
		<path style="opacity:0.7;fill:#FFFFFF;" d="M466.365,182.274c-3.952-52.192-39.086-96.138-82.704-122.437
			c-42.113-25.392-92.69-36.462-141.559-30.984C174.448,36.437,84.31,79.783,88.985,159.621c0.846,14.44,4.91,28.867,2.795,43.176
			c-3.816,25.807-26.103,44.14-40.954,65.588c-15.695,22.666-23.544,50.658-21.922,78.18c1.817,30.826,17.821,62.924,46.474,74.438
			c28.745,11.552,61.159,0.073,92.117,1.22c50.15,1.858,93.404,36.585,142.839,45.225c36.435,6.367,75.281-2.414,105.434-23.835
			c14.098-10.015,26.565-23.037,33.082-39.055c16.409-40.333-8.241-86.232-1.749-129.289c4.466-29.613,20.344-55.465,19.607-86.116
			C466.652,186.844,466.537,184.55,466.365,182.274z"/>
	</g>
</g>
<g id="Floor">
	<g>
		
			<line style="fill:none;stroke:#263238;stroke-linecap:round;stroke-linejoin:round;stroke-miterlimit:10;" x1="464.416" y1="465" x2="477" y2="465"/>
		
			<line style="fill:none;stroke:#263238;stroke-linecap:round;stroke-linejoin:round;stroke-miterlimit:10;" x1="31" y1="465" x2="457.29" y2="465"/>
	</g>
</g>
<g id="Plants">
	<g>
		<g>
			
				<line style="fill:none;stroke:#263238;stroke-width:2;stroke-miterlimit:10;" x1="43.037" y1="288.705" x2="56.942" y2="421.946"/>
			<g>
				<g>
					
						<line style="fill:none;stroke:#263238;stroke-width:2;stroke-miterlimit:10;" x1="54.701" y1="396.447" x2="48.397" y2="389.789"/>
					<path style="fill:#92E3A9;stroke:#263238;stroke-miterlimit:10;" d="M50.312,391.784c0,0,0.18-2.945-2.509-5.347
						c-1.618-1.445-10.134-5.028-10.942-2.028C35.983,387.671,44.699,394.077,50.312,391.784z"/>
					
						<line style="fill:none;stroke:#263238;stroke-width:0.5;stroke-miterlimit:10;" x1="50.312" y1="391.784" x2="42.205" y2="386.732"/>
				</g>
				<g>
					
						<line style="fill:none;stroke:#263238;stroke-width:2;stroke-miterlimit:10;" x1="56.282" y1="411.601" x2="49.979" y2="404.943"/>
					<path style="fill:#92E3A9;stroke:#263238;stroke-miterlimit:10;" d="M51.894,406.937c0,0,0.18-2.945-2.509-5.347
						c-1.618-1.445-10.134-5.027-10.942-2.028C37.564,402.824,46.28,409.23,51.894,406.937z"/>
					
						<line style="fill:none;stroke:#263238;stroke-width:0.5;stroke-miterlimit:10;" x1="51.894" y1="406.937" x2="43.787" y2="401.885"/>
				</g>
				<g>
					
						<line style="fill:none;stroke:#263238;stroke-width:2;stroke-miterlimit:10;" x1="50.842" y1="359.47" x2="44.538" y2="352.812"/>
					<path style="fill:#92E3A9;stroke:#263238;stroke-miterlimit:10;" d="M46.453,354.807c0,0,0.18-2.945-2.509-5.347
						c-1.618-1.445-10.134-5.028-10.942-2.028C32.124,350.694,40.84,357.1,46.453,354.807z"/>
					
						<line style="fill:none;stroke:#263238;stroke-width:0.5;stroke-miterlimit:10;" x1="46.453" y1="354.807" x2="38.346" y2="349.755"/>
				</g>
				<g>
					
						<line style="fill:none;stroke:#263238;stroke-width:2;stroke-miterlimit:10;" x1="52.423" y1="374.624" x2="46.119" y2="367.965"/>
					<path style="fill:#92E3A9;stroke:#263238;stroke-miterlimit:10;" d="M48.035,369.96c0,0,0.18-2.945-2.509-5.347
						c-1.618-1.445-10.134-5.027-10.942-2.028C33.705,365.847,42.421,372.253,48.035,369.96z"/>
					
						<line style="fill:none;stroke:#263238;stroke-width:0.5;stroke-miterlimit:10;" x1="48.035" y1="369.96" x2="39.928" y2="364.908"/>
				</g>
				<g>
					
						<line style="fill:none;stroke:#263238;stroke-width:2;stroke-miterlimit:10;" x1="48.273" y1="334.855" x2="41.969" y2="328.197"/>
					<path style="fill:#92E3A9;stroke:#263238;stroke-miterlimit:10;" d="M43.884,330.191c0,0,0.18-2.945-2.509-5.347
						c-1.618-1.445-10.134-5.028-10.942-2.028C29.555,326.078,38.271,332.484,43.884,330.191z"/>
					
						<line style="fill:none;stroke:#263238;stroke-width:0.5;stroke-miterlimit:10;" x1="43.884" y1="330.191" x2="35.777" y2="325.139"/>
				</g>
				<g>
					
						<line style="fill:none;stroke:#263238;stroke-width:2;stroke-miterlimit:10;" x1="45.693" y1="310.132" x2="39.389" y2="303.474"/>
					<path style="fill:#92E3A9;stroke:#263238;stroke-miterlimit:10;" d="M41.304,305.469c0,0,0.18-2.945-2.509-5.347
						c-1.618-1.445-10.134-5.027-10.942-2.028C26.975,301.355,35.691,307.761,41.304,305.469z"/>
					
						<line style="fill:none;stroke:#263238;stroke-width:0.5;stroke-miterlimit:10;" x1="41.304" y1="305.469" x2="33.197" y2="300.417"/>
				</g>
				<g>
					
						<line style="fill:none;stroke:#263238;stroke-width:2;stroke-miterlimit:10;" x1="53.641" y1="387.482" x2="58.435" y2="379.665"/>
					<path style="fill:#92E3A9;stroke:#263238;stroke-miterlimit:10;" d="M56.972,382.013c0,0-0.785-2.844,1.351-5.75
						c1.285-1.748,8.877-7.012,10.287-4.244C70.144,375.029,62.939,383.097,56.972,382.013z"/>
					
						<line style="fill:none;stroke:#263238;stroke-width:0.5;stroke-miterlimit:10;" x1="56.972" y1="382.013" x2="64.272" y2="375.035"/>
				</g>
				<g>
					
						<line style="fill:none;stroke:#263238;stroke-width:2;stroke-miterlimit:10;" x1="49.48" y1="347.605" x2="54.273" y2="339.789"/>
					<path style="fill:#92E3A9;stroke:#263238;stroke-miterlimit:10;" d="M52.811,342.136c0,0-0.785-2.845,1.351-5.75
						c1.285-1.748,8.877-7.012,10.287-4.244C65.983,335.153,58.777,343.221,52.811,342.136z"/>
					
						<line style="fill:none;stroke:#263238;stroke-width:0.5;stroke-miterlimit:10;" x1="52.811" y1="342.136" x2="60.111" y2="335.159"/>
				</g>
				<g>
					
						<line style="fill:none;stroke:#263238;stroke-width:2;stroke-miterlimit:10;" x1="47.651" y1="330.081" x2="52.444" y2="322.265"/>
					<path style="fill:#92E3A9;stroke:#263238;stroke-miterlimit:10;" d="M50.982,324.612c0,0-0.785-2.845,1.351-5.75
						c1.285-1.748,8.877-7.012,10.287-4.244C64.154,317.629,56.948,325.697,50.982,324.612z"/>
					
						<line style="fill:none;stroke:#263238;stroke-width:0.5;stroke-miterlimit:10;" x1="50.982" y1="324.612" x2="58.282" y2="317.635"/>
				</g>
				<g>
					
						<line style="fill:none;stroke:#263238;stroke-width:2;stroke-miterlimit:10;" x1="44.97" y1="304.391" x2="49.763" y2="296.574"/>
					<path style="fill:#92E3A9;stroke:#263238;stroke-miterlimit:10;" d="M48.301,298.922c0,0-0.785-2.844,1.351-5.75
						c1.285-1.748,8.877-7.012,10.287-4.244C61.473,291.938,54.267,300.006,48.301,298.922z"/>
					
						<line style="fill:none;stroke:#263238;stroke-width:0.5;stroke-miterlimit:10;" x1="48.301" y1="298.922" x2="55.601" y2="291.944"/>
					<path style="fill:#92E3A9;stroke:#263238;stroke-miterlimit:10;" d="M42.92,287.965c0,0-0.785-2.844,1.351-5.75
						c1.285-1.748,8.877-7.012,10.287-4.244C56.091,280.982,48.886,289.05,42.92,287.965z"/>
					
						<line style="fill:none;stroke:#263238;stroke-width:0.5;stroke-miterlimit:10;" x1="42.92" y1="287.965" x2="50.22" y2="280.988"/>
					<path style="fill:#92E3A9;stroke:#263238;stroke-miterlimit:10;" d="M43.343,288.266c0,0-2.911,0.482-5.577-1.947
						c-1.604-1.461-6.042-9.564-3.142-10.676C37.779,274.435,45.047,282.447,43.343,288.266z"/>
					
						<line style="fill:none;stroke:#263238;stroke-width:0.5;stroke-miterlimit:10;" x1="43.343" y1="288.266" x2="37.169" y2="280.275"/>
				</g>
			</g>
		</g>
		<g>
			
				<line style="fill:none;stroke:#263238;stroke-width:2;stroke-miterlimit:10;" x1="79.712" y1="307.055" x2="65.886" y2="440.304"/>
			<g>
				<g>
					
						<line style="fill:none;stroke:#263238;stroke-width:2;stroke-miterlimit:10;" x1="68.943" y1="414.89" x2="64.145" y2="407.077"/>
					<path style="fill:#92E3A9;stroke:#263238;stroke-miterlimit:10;" d="M65.608,409.423c0,0,0.783-2.845-1.354-5.749
						c-1.286-1.747-8.881-7.007-10.29-4.238C52.432,402.447,59.643,410.511,65.608,409.423z"/>
					
						<line style="fill:none;stroke:#263238;stroke-width:0.5;stroke-miterlimit:10;" x1="65.608" y1="409.423" x2="58.715" y2="402.81"/>
				</g>
				<g>
					
						<line style="fill:none;stroke:#263238;stroke-width:2;stroke-miterlimit:10;" x1="72.78" y1="377.911" x2="67.982" y2="370.097"/>
					<path style="fill:#92E3A9;stroke:#263238;stroke-miterlimit:10;" d="M69.446,372.444c0,0,0.783-2.845-1.354-5.749
						c-1.286-1.747-8.881-7.006-10.29-4.238C56.27,365.468,63.48,373.532,69.446,372.444z"/>
					
						<line style="fill:none;stroke:#263238;stroke-width:0.5;stroke-miterlimit:10;" x1="69.446" y1="372.444" x2="62.552" y2="365.831"/>
				</g>
				<g>
					
						<line style="fill:none;stroke:#263238;stroke-width:2;stroke-miterlimit:10;" x1="71.207" y1="393.065" x2="66.41" y2="385.251"/>
					<path style="fill:#92E3A9;stroke:#263238;stroke-miterlimit:10;" d="M67.873,387.598c0,0,0.783-2.845-1.354-5.749
						c-1.286-1.747-8.881-7.006-10.29-4.238C54.697,380.622,61.908,388.686,67.873,387.598z"/>
					
						<line style="fill:none;stroke:#263238;stroke-width:0.5;stroke-miterlimit:10;" x1="67.873" y1="387.598" x2="60.98" y2="380.985"/>
				</g>
				<g>
					
						<line style="fill:none;stroke:#263238;stroke-width:2;stroke-miterlimit:10;" x1="75.334" y1="353.294" x2="70.536" y2="345.48"/>
					<path style="fill:#92E3A9;stroke:#263238;stroke-miterlimit:10;" d="M72,347.827c0,0,0.783-2.845-1.354-5.749
						c-1.286-1.747-8.882-7.006-10.29-4.238C58.824,340.851,66.035,348.915,72,347.827z"/>
					
						<line style="fill:none;stroke:#263238;stroke-width:0.5;stroke-miterlimit:10;" x1="72" y1="347.827" x2="65.107" y2="341.214"/>
				</g>
				<g>
					
						<line style="fill:none;stroke:#263238;stroke-width:2;stroke-miterlimit:10;" x1="77.9" y1="328.569" x2="73.102" y2="320.756"/>
					<path style="fill:#92E3A9;stroke:#263238;stroke-miterlimit:10;" d="M74.565,323.102c0,0,0.783-2.845-1.354-5.749
						c-1.286-1.747-8.882-7.006-10.29-4.238C61.39,316.126,68.6,324.19,74.565,323.102z"/>
					
						<line style="fill:none;stroke:#263238;stroke-width:0.5;stroke-miterlimit:10;" x1="74.565" y1="323.102" x2="67.672" y2="316.489"/>
				</g>
				<g>
					
						<line style="fill:none;stroke:#263238;stroke-width:2;stroke-miterlimit:10;" x1="69.752" y1="405.898" x2="76.052" y2="399.236"/>
					<path style="fill:#92E3A9;stroke:#263238;stroke-miterlimit:10;" d="M74.138,401.232c0,0-0.182-2.945,2.506-5.349
						c1.617-1.446,10.131-5.034,10.941-2.035C88.465,397.11,79.753,403.522,74.138,401.232z"/>
					
						<line style="fill:none;stroke:#263238;stroke-width:0.5;stroke-miterlimit:10;" x1="74.138" y1="401.232" x2="82.718" y2="395.907"/>
				</g>
				<g>
					
						<line style="fill:none;stroke:#263238;stroke-width:2;stroke-miterlimit:10;" x1="73.89" y1="366.019" x2="80.19" y2="359.357"/>
					<path style="fill:#92E3A9;stroke:#263238;stroke-miterlimit:10;" d="M78.276,361.353c0,0-0.182-2.945,2.506-5.349
						c1.617-1.446,10.131-5.034,10.941-2.035C92.603,357.232,83.891,363.643,78.276,361.353z"/>
					
						<line style="fill:none;stroke:#263238;stroke-width:0.5;stroke-miterlimit:10;" x1="78.276" y1="361.353" x2="86.856" y2="356.029"/>
				</g>
				<g>
					
						<line style="fill:none;stroke:#263238;stroke-width:2;stroke-miterlimit:10;" x1="75.709" y1="348.494" x2="82.008" y2="341.832"/>
					<path style="fill:#92E3A9;stroke:#263238;stroke-miterlimit:10;" d="M80.094,343.828c0,0-0.182-2.945,2.506-5.349
						c1.617-1.446,10.131-5.034,10.941-2.035C94.422,339.706,85.709,346.118,80.094,343.828z"/>
					
						<line style="fill:none;stroke:#263238;stroke-width:0.5;stroke-miterlimit:10;" x1="80.094" y1="343.828" x2="88.674" y2="338.504"/>
				</g>
				<g>
					
						<line style="fill:none;stroke:#263238;stroke-width:2;stroke-miterlimit:10;" x1="78.374" y1="322.802" x2="84.674" y2="316.14"/>
					<path style="fill:#92E3A9;stroke:#263238;stroke-miterlimit:10;" d="M82.76,318.136c0,0-0.182-2.945,2.506-5.349
						c1.617-1.446,10.131-5.034,10.941-2.035C97.088,314.014,88.375,320.426,82.76,318.136z"/>
					
						<line style="fill:none;stroke:#263238;stroke-width:0.5;stroke-miterlimit:10;" x1="82.76" y1="318.136" x2="91.34" y2="312.811"/>
					<path style="fill:#92E3A9;stroke:#263238;stroke-miterlimit:10;" d="M79.75,306.306c0,0-0.182-2.945,2.506-5.349
						c1.617-1.446,10.131-5.034,10.941-2.035C94.077,302.185,85.365,308.596,79.75,306.306z"/>
					
						<line style="fill:none;stroke:#263238;stroke-width:0.5;stroke-miterlimit:10;" x1="79.75" y1="306.306" x2="88.33" y2="300.982"/>
					<path style="fill:#92E3A9;stroke:#263238;stroke-miterlimit:10;" d="M80.102,306.688c0,0-2.948-0.128-5.056-3.053
						c-1.269-1.76-3.943-10.603-0.876-11.094C77.506,292.008,82.968,301.344,80.102,306.688z"/>
					
						<line style="fill:none;stroke:#263238;stroke-width:0.5;stroke-miterlimit:10;" x1="80.102" y1="306.688" x2="75.707" y2="297.597"/>
				</g>
			</g>
		</g>
		
			<line style="fill:none;stroke:#263238;stroke-width:2;stroke-miterlimit:10;" x1="63.867" y1="252.795" x2="63.867" y2="421.297"/>
		<g>
			<g>
				
					<line style="fill:none;stroke:#263238;stroke-width:2;stroke-miterlimit:10;" x1="64.002" y1="395.962" x2="58.423" y2="388.685"/>
				<path style="fill:#92E3A9;stroke:#263238;stroke-miterlimit:10;" d="M60.121,390.868c0,0,0.485-2.911-1.94-5.579
					c-1.459-1.605-9.557-6.052-10.672-3.153C46.295,385.289,54.299,392.566,60.121,390.868z"/>
				
					<line style="fill:none;stroke:#263238;stroke-width:0.5;stroke-miterlimit:10;" x1="60.121" y1="390.868" x2="52.582" y2="385.002"/>
			</g>
			<g>
				
					<line style="fill:none;stroke:#263238;stroke-width:2;stroke-miterlimit:10;" x1="64.002" y1="364.296" x2="58.423" y2="357.019"/>
				<path style="fill:#92E3A9;stroke:#263238;stroke-miterlimit:10;" d="M60.121,359.202c0,0,0.485-2.911-1.94-5.579
					c-1.459-1.605-9.557-6.052-10.672-3.153C46.295,353.623,54.299,360.9,60.121,359.202z"/>
				
					<line style="fill:none;stroke:#263238;stroke-width:0.5;stroke-miterlimit:10;" x1="60.121" y1="359.202" x2="52.582" y2="353.336"/>
			</g>
			<g>
				
					<line style="fill:none;stroke:#263238;stroke-width:2;stroke-miterlimit:10;" x1="64.002" y1="327.118" x2="58.423" y2="319.841"/>
				<path style="fill:#92E3A9;stroke:#263238;stroke-miterlimit:10;" d="M60.121,322.024c0,0,0.485-2.911-1.94-5.579
					c-1.459-1.605-9.557-6.052-10.672-3.153C46.295,316.446,54.299,323.722,60.121,322.024z"/>
				
					<line style="fill:none;stroke:#263238;stroke-width:0.5;stroke-miterlimit:10;" x1="60.121" y1="322.024" x2="52.582" y2="316.158"/>
			</g>
			<g>
				
					<line style="fill:none;stroke:#263238;stroke-width:2;stroke-miterlimit:10;" x1="64.002" y1="302.369" x2="58.423" y2="295.092"/>
				<path style="fill:#92E3A9;stroke:#263238;stroke-miterlimit:10;" d="M60.121,297.275c0,0,0.485-2.911-1.94-5.579
					c-1.459-1.605-9.557-6.052-10.672-3.153C46.295,291.696,54.299,298.973,60.121,297.275z"/>
				
					<line style="fill:none;stroke:#263238;stroke-width:0.5;stroke-miterlimit:10;" x1="60.121" y1="297.275" x2="52.582" y2="291.409"/>
			</g>
			<g>
				
					<line style="fill:none;stroke:#263238;stroke-width:2;stroke-miterlimit:10;" x1="64.002" y1="277.511" x2="58.423" y2="270.235"/>
				<path style="fill:#92E3A9;stroke:#263238;stroke-miterlimit:10;" d="M60.121,272.418c0,0,0.485-2.911-1.94-5.579
					c-1.459-1.605-9.557-6.052-10.672-3.153C46.295,266.839,54.299,274.116,60.121,272.418z"/>
				
					<line style="fill:none;stroke:#263238;stroke-width:0.5;stroke-miterlimit:10;" x1="60.121" y1="272.418" x2="52.582" y2="266.552"/>
			</g>
			<g>
				
					<line style="fill:none;stroke:#263238;stroke-width:2;stroke-miterlimit:10;" x1="63.878" y1="405.631" x2="69.457" y2="398.355"/>
				<path style="fill:#92E3A9;stroke:#263238;stroke-miterlimit:10;" d="M67.759,400.538c0,0-0.485-2.911,1.94-5.579
					c1.459-1.605,9.557-6.052,10.672-3.153C81.585,394.959,73.58,402.236,67.759,400.538z"/>
				
					<line style="fill:none;stroke:#263238;stroke-width:0.5;stroke-miterlimit:10;" x1="67.759" y1="400.538" x2="75.744" y2="394.356"/>
			</g>
			<g>
				
					<line style="fill:none;stroke:#263238;stroke-width:2;stroke-miterlimit:10;" x1="63.878" y1="355.268" x2="69.457" y2="347.992"/>
				<path style="fill:#92E3A9;stroke:#263238;stroke-miterlimit:10;" d="M67.759,350.175c0,0-0.485-2.911,1.94-5.579
					c1.459-1.605,9.557-6.052,10.672-3.153C81.585,344.596,73.58,351.872,67.759,350.175z"/>
				
					<line style="fill:none;stroke:#263238;stroke-width:0.5;stroke-miterlimit:10;" x1="67.759" y1="350.175" x2="75.744" y2="343.993"/>
			</g>
			<g>
				
					<line style="fill:none;stroke:#263238;stroke-width:2;stroke-miterlimit:10;" x1="63.878" y1="330.411" x2="69.457" y2="323.134"/>
				<path style="fill:#92E3A9;stroke:#263238;stroke-miterlimit:10;" d="M67.759,325.317c0,0-0.485-2.911,1.94-5.579
					c1.459-1.605,9.557-6.052,10.672-3.153C81.585,319.739,73.58,327.015,67.759,325.317z"/>
				
					<line style="fill:none;stroke:#263238;stroke-width:0.5;stroke-miterlimit:10;" x1="67.759" y1="325.317" x2="75.744" y2="319.136"/>
			</g>
			<g>
				
					<line style="fill:none;stroke:#263238;stroke-width:2;stroke-miterlimit:10;" x1="63.878" y1="297.556" x2="69.457" y2="290.28"/>
				<path style="fill:#92E3A9;stroke:#263238;stroke-miterlimit:10;" d="M67.759,292.463c0,0-0.485-2.911,1.94-5.579
					c1.459-1.605,9.557-6.052,10.672-3.153C81.585,286.884,73.58,294.16,67.759,292.463z"/>
				
					<line style="fill:none;stroke:#263238;stroke-width:0.5;stroke-miterlimit:10;" x1="67.759" y1="292.463" x2="75.744" y2="286.281"/>
			</g>
			<g>
				
					<line style="fill:none;stroke:#263238;stroke-width:2;stroke-miterlimit:10;" x1="63.878" y1="271.726" x2="69.457" y2="264.45"/>
				<path style="fill:#92E3A9;stroke:#263238;stroke-miterlimit:10;" d="M67.759,266.633c0,0-0.485-2.911,1.94-5.579
					c1.459-1.605,9.557-6.052,10.672-3.153C81.585,261.054,73.58,268.33,67.759,266.633z"/>
				
					<line style="fill:none;stroke:#263238;stroke-width:0.5;stroke-miterlimit:10;" x1="67.759" y1="266.633" x2="75.744" y2="260.451"/>
				<path style="fill:#92E3A9;stroke:#263238;stroke-miterlimit:10;" d="M63.544,255.177c0,0-0.485-2.911,1.94-5.579
					c1.459-1.605,9.557-6.052,10.672-3.153C77.37,249.598,69.366,256.875,63.544,255.177z"/>
				
					<line style="fill:none;stroke:#263238;stroke-width:0.5;stroke-miterlimit:10;" x1="63.544" y1="255.177" x2="71.529" y2="248.995"/>
				<path style="fill:#92E3A9;stroke:#263238;stroke-miterlimit:10;" d="M63.934,255.52c0,0-2.945,0.177-5.344-2.515
					c-1.443-1.62-5.017-10.139-2.017-10.944C59.836,241.186,66.233,249.909,63.934,255.52z"/>
				
					<line style="fill:none;stroke:#263238;stroke-width:0.5;stroke-miterlimit:10;" x1="63.934" y1="255.52" x2="58.623" y2="246.931"/>
			</g>
		</g>
		<polygon style="fill:#263238;stroke:#263238;stroke-miterlimit:10;" points="70.8,465 52.954,465 50.724,419.932 73.03,419.932 		
			"/>
	</g>
</g>
<g id="Clouds">
	<g>
		<path style="fill:none;stroke:#263238;stroke-linecap:round;stroke-linejoin:round;stroke-miterlimit:10;" d="M171.419,31.886
			c-1.428,2.392-2.46,5.048-3.007,7.877c-1.067-0.142-2.153-0.222-3.258-0.222c-13.558,0-24.548,10.991-24.548,24.548
			c0,4.278,1.095,8.3,3.019,11.802"/>
		<path style="fill:none;stroke:#263238;stroke-linecap:round;stroke-linejoin:round;stroke-miterlimit:10;" d="M227.404,53.795
			c-3.094-2.27-6.891-3.64-11.003-3.723c0.423-1.806,0.654-3.686,0.654-5.621c0-13.558-10.991-24.548-24.548-24.548
			c-7.728,0-14.621,3.572-19.119,9.155"/>
		<path style="fill:none;stroke:#263238;stroke-linecap:round;stroke-linejoin:round;stroke-miterlimit:10;" d="M145.889,79.303
			c3.309,4.182,7.951,7.261,13.284,8.597h62.108c8.086-2.296,14.01-9.729,14.01-18.551c0-4.314-1.417-8.297-3.811-11.509"/>
		<path style="fill:none;stroke:#263238;stroke-linecap:round;stroke-linejoin:round;stroke-miterlimit:10;" d="M269.206,43.733
			c-6.53,4.412-10.823,11.882-10.823,20.356c0,11.494,7.901,21.14,18.568,23.811h62.108c2.22-0.631,4.277-1.648,6.094-2.976"/>
		<path style="fill:none;stroke:#263238;stroke-linecap:round;stroke-linejoin:round;stroke-miterlimit:10;" d="M332.838,34.74
			c-3.763-8.728-12.444-14.838-22.553-14.838c-11.954,0-21.907,8.546-24.096,19.861c-1.067-0.142-2.153-0.222-3.258-0.222
			c-3.086,0-6.038,0.569-8.758,1.608"/>
		<path style="fill:none;stroke:#263238;stroke-linecap:round;stroke-linejoin:round;stroke-miterlimit:10;" d="M348.45,81.869
			c2.88-3.368,4.619-7.74,4.619-12.52c0-10.519-8.422-19.065-18.89-19.278c0.423-1.806,0.654-3.686,0.654-5.621
			c0-2.066-0.255-4.073-0.736-5.99"/>
		<g>
			
				<line style="fill:none;stroke:#263238;stroke-linecap:round;stroke-linejoin:round;stroke-miterlimit:10;" x1="188" y1="208.397" x2="188" y2="106"/>
			
				<line style="fill:#FFFFFF;stroke:#263238;stroke-linecap:round;stroke-linejoin:round;stroke-miterlimit:10;" x1="239" y1="64" x2="249" y2="64"/>
			
				<line style="fill:#FFFFFF;stroke:#263238;stroke-linecap:round;stroke-linejoin:round;stroke-miterlimit:10;" x1="305" y1="90" x2="305" y2="113.475"/>
		</g>
	</g>
	<g>
		
			<rect x="168.968" y="134.019" style="fill:#263238;stroke:#263238;stroke-linecap:round;stroke-linejoin:round;stroke-miterlimit:10;" width="36.065" height="35.963"/>
		<polygon style="fill:#FFFFFF;stroke:#263238;stroke-linecap:round;stroke-linejoin:round;stroke-miterlimit:10;" points="
			196.668,153.888 179.046,143.713 179.046,164.063 		"/>
		
			<rect x="168.968" y="134.019" style="fill:#FFFFFF;stroke:#263238;stroke-linecap:round;stroke-linejoin:round;stroke-miterlimit:10;" width="36.065" height="6.593"/>
		<g>
			<polygon style="fill:#263238;stroke:#263238;stroke-linecap:round;stroke-linejoin:round;stroke-miterlimit:10;" points="
				168.982,140.611 174.153,140.611 177.348,134.019 172.177,134.019 			"/>
			<polygon style="fill:#263238;stroke:#263238;stroke-linecap:round;stroke-linejoin:round;stroke-miterlimit:10;" points="
				205.032,136.907 205.032,134.019 201.261,134.019 198.066,140.611 203.237,140.611 			"/>
			<polygon style="fill:#263238;stroke:#263238;stroke-linecap:round;stroke-linejoin:round;stroke-miterlimit:10;" points="
				187.043,134.019 181.871,134.019 178.676,140.611 183.848,140.611 			"/>
			<polygon style="fill:#263238;stroke:#263238;stroke-linecap:round;stroke-linejoin:round;stroke-miterlimit:10;" points="
				196.737,134.019 191.566,134.019 188.371,140.611 193.542,140.611 			"/>
		</g>
	</g>
	<g>
		
			<rect x="287.968" y="45.019" style="fill:#263238;stroke:#263238;stroke-linecap:round;stroke-linejoin:round;stroke-miterlimit:10;" width="36.065" height="35.963"/>
		<polygon style="fill:#FFFFFF;stroke:#263238;stroke-linecap:round;stroke-linejoin:round;stroke-miterlimit:10;" points="
			315.668,64.888 298.046,54.713 298.046,75.063 		"/>
		
			<rect x="287.968" y="45.019" style="fill:#FFFFFF;stroke:#263238;stroke-linecap:round;stroke-linejoin:round;stroke-miterlimit:10;" width="36.065" height="6.593"/>
		<g>
			<polygon style="fill:#263238;stroke:#263238;stroke-linecap:round;stroke-linejoin:round;stroke-miterlimit:10;" points="
				287.982,51.611 293.153,51.611 296.348,45.019 291.177,45.019 			"/>
			<polygon style="fill:#263238;stroke:#263238;stroke-linecap:round;stroke-linejoin:round;stroke-miterlimit:10;" points="
				324.032,47.907 324.032,45.019 320.261,45.019 317.066,51.611 322.237,51.611 			"/>
			<polygon style="fill:#263238;stroke:#263238;stroke-linecap:round;stroke-linejoin:round;stroke-miterlimit:10;" points="
				306.043,45.019 300.871,45.019 297.676,51.611 302.848,51.611 			"/>
			<polygon style="fill:#263238;stroke:#263238;stroke-linecap:round;stroke-linejoin:round;stroke-miterlimit:10;" points="
				315.737,45.019 310.566,45.019 307.371,51.611 312.542,51.611 			"/>
		</g>
	</g>
</g>
<g id="Window">
	<g>
		<g>
			<path style="fill:#FFFFFF;stroke:#263238;stroke-linecap:round;stroke-linejoin:round;stroke-miterlimit:10;" d="
				M448.398,419.256H247.333V152.231c0-6.061,4.914-10.975,10.975-10.975h179.115c6.061,0,10.975,4.914,10.975,10.975V419.256z"/>
			<path style="fill:#263238;stroke:#263238;stroke-linecap:round;stroke-linejoin:round;stroke-miterlimit:10;" d="
				M437.423,141.256H304.05v31.022h144.348v-20.047C448.398,146.17,443.485,141.256,437.423,141.256z"/>
			<path style="fill:#263238;stroke:#263238;stroke-linecap:round;stroke-linejoin:round;stroke-miterlimit:10;" d="
				M437.423,141.256H258.308c-6.061,0-10.975,4.914-10.975,10.975v7.966h201.065v-7.966
				C448.398,146.17,443.485,141.256,437.423,141.256z"/>
			
				<circle style="fill:#FFFFFF;stroke:#263238;stroke-linecap:round;stroke-linejoin:round;stroke-miterlimit:10;" cx="421.38" cy="151.05" r="2.999"/>
			
				<circle style="fill:#FFFFFF;stroke:#263238;stroke-linecap:round;stroke-linejoin:round;stroke-miterlimit:10;" cx="430.711" cy="151.05" r="2.999"/>
			
				<circle style="fill:#FFFFFF;stroke:#263238;stroke-linecap:round;stroke-linejoin:round;stroke-miterlimit:10;" cx="440.042" cy="151.05" r="2.999"/>
		</g>
		<g>
			
				<rect x="267.081" y="198.001" style="fill:#263238;stroke:#263238;stroke-linecap:round;stroke-linejoin:round;stroke-miterlimit:10;" width="88.805" height="57.505"/>
			
				<rect x="267.081" y="248.469" style="fill:#FFFFFF;stroke:#263238;stroke-linecap:round;stroke-linejoin:round;stroke-miterlimit:10;" width="88.805" height="7.037"/>
			<polygon style="fill:#FFFFFF;stroke:#263238;stroke-linecap:round;stroke-linejoin:round;stroke-miterlimit:10;" points="
				322.271,224.575 304.648,214.401 304.648,234.75 			"/>
			<g>
				<path style="fill:#263238;" d="M351.905,252.918h-80.942c-0.553,0-1-0.448-1-1s0.447-1,1-1h80.942c0.553,0,1,0.448,1,1
					S352.458,252.918,351.905,252.918z"/>
			</g>
		</g>
		<g>
			
				<rect x="267.081" y="270.337" style="fill:#263238;stroke:#263238;stroke-linecap:round;stroke-linejoin:round;stroke-miterlimit:10;" width="88.805" height="57.505"/>
			
				<rect x="267.081" y="320.805" style="fill:#FFFFFF;stroke:#263238;stroke-linecap:round;stroke-linejoin:round;stroke-miterlimit:10;" width="88.805" height="7.037"/>
			<polygon style="fill:#FFFFFF;stroke:#263238;stroke-linecap:round;stroke-linejoin:round;stroke-miterlimit:10;" points="
				322.271,296.912 304.648,286.737 304.648,307.086 			"/>
			<g>
				<path style="fill:#263238;" d="M351.905,325.254h-80.942c-0.553,0-1-0.448-1-1c0-0.552,0.447-1,1-1h80.942c0.553,0,1,0.448,1,1
					C352.905,324.806,352.458,325.254,351.905,325.254z"/>
			</g>
		</g>
		<g>
			
				<rect x="267.081" y="342.674" style="fill:#263238;stroke:#263238;stroke-linecap:round;stroke-linejoin:round;stroke-miterlimit:10;" width="88.805" height="57.505"/>
			
				<rect x="267.081" y="393.142" style="fill:#FFFFFF;stroke:#263238;stroke-linecap:round;stroke-linejoin:round;stroke-miterlimit:10;" width="88.805" height="7.037"/>
			<polygon style="fill:#FFFFFF;stroke:#263238;stroke-linecap:round;stroke-linejoin:round;stroke-miterlimit:10;" points="
				322.271,369.248 304.648,359.073 304.648,379.423 			"/>
			<g>
				<path style="fill:#263238;" d="M351.905,397.591h-80.942c-0.553,0-1-0.448-1-1c0-0.552,0.447-1,1-1h80.942c0.553,0,1,0.448,1,1
					C352.905,397.143,352.458,397.591,351.905,397.591z"/>
			</g>
		</g>
		<g>
			<rect x="360.5" y="203.59" style="fill:#CCCCCC;" width="55.5" height="6.5"/>
			<rect x="360.5" y="217.59" style="fill:#CCCCCC;" width="75.5" height="6.5"/>
			<rect x="360.5" y="231.59" style="fill:#CCCCCC;" width="75.5" height="6.5"/>
		</g>
		<g>
			<rect x="360.5" y="278.09" style="fill:#CCCCCC;" width="55.5" height="6.5"/>
			<rect x="360.5" y="292.09" style="fill:#CCCCCC;" width="75.5" height="6.5"/>
			<rect x="360.5" y="306.09" style="fill:#CCCCCC;" width="75.5" height="6.5"/>
		</g>
		<g>
			<rect x="360.5" y="352.59" style="fill:#CCCCCC;" width="55.5" height="6.5"/>
			<rect x="360.5" y="366.59" style="fill:#CCCCCC;" width="75.5" height="6.5"/>
			<rect x="360.5" y="380.59" style="fill:#CCCCCC;" width="75.5" height="6.5"/>
		</g>
	</g>
</g>
<g id="Character">
	<g>
		<g>
			<path style="fill:#92E3A9;stroke:#263238;stroke-linecap:round;stroke-linejoin:round;stroke-miterlimit:10;" d="
				M178.391,312.241c0,0,2.986,7.838,3.546,8.771c0.56,0.933-7.091,4.105-8.771,4.852c-1.679,0.747-4.479-8.771-4.479-8.771
				L178.391,312.241z"/>
			<path style="fill:#92E3A9;stroke:#263238;stroke-linecap:round;stroke-linejoin:round;stroke-miterlimit:10;" d="
				M155.831,233.497c0,0,6.25,0.5,8.25,8.5s4.75,28.75,4.75,33.5s5.25,23.5,8,27.25s3.75,10,1.5,11.75s-6.25,7-11.5,2
				s-11.75-21.75-12.25-26.75s1.75-13.75,2-17.25s-0.25-24.75-2.25-29.5s-3-8-3-8S152.331,232.997,155.831,233.497z"/>
			<g>
				<path style="fill:#263238;stroke:#263238;stroke-linecap:round;stroke-linejoin:round;stroke-miterlimit:10;" d="
					M177.084,332.955c0,0,1.866,3.546,1.493,4.479c-0.373,0.933-2.239,0.187-2.986,0.373c-0.746,0.187-1.306,2.613,0,3.359
					c1.306,0.746,2.239,3.172,4.106,2.613c1.866-0.56,2.613-5.225,2.613-8.398C182.31,332.208,178.764,330.342,177.084,332.955z"/>
				<path style="fill:#FFFFFF;stroke:#263238;stroke-linecap:round;stroke-linejoin:round;stroke-miterlimit:10;" d="
					M172.979,324.557c0,0-1.12,7.838-0.746,9.517c0.373,1.68,0.933,5.412,0.933,6.158s0,2.426,2.426,0.933
					c2.426-1.493,0.373-5.039,0.746-6.345c0.373-1.306,2.426-1.306,3.173-0.187c0.746,1.12,1.12,2.986,0.933,5.039
					c-0.187,2.053-3.172,4.479-2.426,5.225c0.747,0.746,2.239,0.933,3.919-1.12c1.679-2.053,2.613-6.531,2.239-9.331
					c-0.373-2.799-1.12-8.211-1.866-10.264c-0.747-2.053-1.68-3.546-1.68-3.546L172.979,324.557z"/>
			</g>
		</g>
		<g>
			<path style="fill:#263238;stroke:#263238;stroke-linecap:round;stroke-linejoin:round;stroke-miterlimit:10;" d="M131.07,214.548
				c0,0,1.681,12.776-0.168,15.298c-1.849,2.522-8.91,3.362-14.289,5.884c-5.38,2.522-4.875,6.052-4.875,10.759
				c0,4.707,9.414,31.605,8.91,36.48c-0.504,4.875-13.113,18.66-15.298,32.445c-2.186,13.785,10.591,53.627,12.272,60.015
				c1.681,6.388,3.194,10.423,1.345,16.475c-1.849,6.052-5.043,10.591-5.38,21.182c-0.336,10.591,7.733,38.833,8.237,41.523
				c0.504,2.69-3.194,11.095-4.203,15.466c-1.009,4.371,2.858,6.22,6.052,6.052c3.194-0.168,8.742-1.345,8.742-3.53
				c0-2.185-1.849-11.936-1.849-15.634s0.504-9.582,0.504-12.104c0-2.522,2.69-26.729,3.362-31.773
				c0.673-5.043,2.522-13.113,2.522-13.113s-0.504,25.721-1.177,32.781c-0.672,7.061-2.69,31.1-1.681,33.622
				c1.009,2.522,5.211,2.017,9.75,2.858c4.539,0.841,3.194,2.522,8.742,3.53c5.548,1.009,12.776,1.345,11.936-1.345
				c-0.84-2.69-6.724-6.22-9.75-10.423c-3.026-4.203-6.893-7.565-7.061-8.742c-0.168-1.177,0-4.035,0.336-6.388
				c0.336-2.354,5.043-12.608,6.724-19.837c1.681-7.229,1.177-8.91,1.681-20.005c0.504-11.095-2.354-16.811-0.504-23.872
				c1.849-7.061,8.237-30.092,10.087-43.204c1.849-13.112,2.73-25.151,1.544-30.953c-2.25-11-7.932-18.303-8.94-22.506
				c-1.009-4.203,3.698-11.6,5.884-22.19c2.186-10.591-1.849-19.669-4.035-24.712c-2.185-5.043-9.246-7.229-10.423-7.733
				c-1.177-0.504-2.185-6.052-2.354-9.582c-0.168-3.53-0.168-5.38-0.168-5.38L131.07,214.548z"/>
			<g>
				<path style="fill:#FFFFFF;stroke:#263238;stroke-linecap:round;stroke-linejoin:round;stroke-miterlimit:10;" d="
					M117.622,470.075c1.009-4.371,4.707-12.776,4.203-15.466c-0.215-1.147-1.805-6.942-3.532-14.028
					c3.397,0.979,8.037,1.439,13.159-0.516c-0.233,2.429-0.381,4.206-0.381,4.794c0,2.522-0.504,8.405-0.504,12.104
					s1.849,13.449,1.849,15.634c0,2.185-5.548,3.362-8.742,3.53C120.48,476.295,116.613,474.446,117.622,470.075z M164.524,471.42
					c-0.84-2.69-6.724-6.22-9.75-10.423s-6.893-7.565-7.061-8.742c-0.168-1.177,0-4.035,0.336-6.388
					c0.123-0.863,0.837-2.794,1.77-5.242c-6.381,2.575-12.147,0.4-14.658-0.871c-0.818,9.883-1.845,24.674-1.065,26.623
					c1.009,2.522,5.211,2.017,9.75,2.858c4.539,0.841,3.194,2.522,8.742,3.53C158.136,473.773,165.365,474.11,164.524,471.42z"/>
				<g>
					<path style="fill:#FFFFFF;stroke:#263238;stroke-linecap:round;stroke-linejoin:round;stroke-miterlimit:10;" d="
						M164.524,471.42c-0.84-2.69-6.724-6.22-9.75-10.423s-6.893-7.565-7.061-8.742c0,0-3.632,1.241-4.132,2.991s-1.25,3.5-1.25,3.5
						s-3.75,0.75-7-0.75c-0.517-0.239-0.965-0.456-1.363-0.657c-0.206,4.566-0.228,8.146,0.128,9.037
						c1.009,2.522,5.211,2.017,9.75,2.858c4.539,0.841,3.194,2.522,8.742,3.53C158.136,473.773,165.365,474.11,164.524,471.42z"/>
					<path style="fill:#92E3A9;stroke:#263238;stroke-linecap:round;stroke-linejoin:round;stroke-miterlimit:10;" d="
						M164.526,471.43c-8.037,1.346-15.148-2.271-19.535-4.078c-3.753-1.546-8.834-2.26-11.122-2.52
						c0.044,0.737,0.117,1.269,0.227,1.544c1.009,2.522,5.211,2.017,9.75,2.858c4.539,0.841,3.194,2.522,8.742,3.53
						C158.129,473.772,165.344,474.108,164.526,471.43z"/>
				</g>
				<g>
					<path style="fill:#FFFFFF;stroke:#263238;stroke-linecap:round;stroke-linejoin:round;stroke-miterlimit:10;" d="
						M130.57,456.428c-1-0.648-2.554-1.181-4.989-1.181c-1.659,0-2.868,0.286-3.763,0.7c-0.417,3.494-3.32,10.332-4.196,14.129
						c-1.009,4.371,2.858,6.22,6.052,6.052c3.194-0.168,8.742-1.345,8.742-3.53c0-2.185-1.849-11.936-1.849-15.634
						C130.566,456.79,130.568,456.609,130.57,456.428z"/>
					<path style="fill:#92E3A9;stroke:#263238;stroke-linecap:round;stroke-linejoin:round;stroke-miterlimit:10;" d="
						M132.415,472.597c0-0.535-0.112-1.528-0.279-2.77c-0.951,1.704-2.953,3.81-7.105,3.983c-7.045,0.293-7.045-4.99-7.045-4.99
						l-0.033-0.005c-0.127,0.445-0.242,0.871-0.332,1.26c-1.009,4.371,2.858,6.22,6.052,6.052
						C126.868,475.959,132.415,474.782,132.415,472.597z"/>
				</g>
			</g>
		</g>
		<path style="fill:#92E3A9;stroke:#263238;stroke-linecap:round;stroke-linejoin:round;stroke-miterlimit:10;" d="M158.641,285.491
			c-1.009-4.203,3.698-11.6,5.884-22.19c2.185-10.591-1.849-19.669-4.035-24.712c-2.185-5.043-9.246-7.229-10.423-7.733
			c-1.177-0.504-2.185-6.052-2.354-9.582c-0.168-3.53-0.168-5.38-0.168-5.38l-16.475-1.345c0,0,1.681,12.776-0.168,15.298
			c-1.849,2.522-8.91,3.362-14.289,5.884c-5.38,2.522-4.875,6.052-4.875,10.759c0,4.707,9.414,31.605,8.91,36.48
			c-0.504,4.875-13.113,18.66-15.298,32.445c-0.06,0.376-0.103,0.779-0.141,1.193c6.565,2.279,18.778,5.65,34.622,6.14
			c14.641,0.453,23.534-3.923,28.288-7.463c0.006-2.95-0.16-5.438-0.538-7.287C165.331,296.996,159.649,289.693,158.641,285.491z"/>
		<path style="fill:#FFFFFF;stroke:#263238;stroke-linecap:round;stroke-linejoin:round;stroke-miterlimit:10;" d="M150.067,230.855
			c-1.177-0.504-2.185-6.052-2.354-9.582c-0.168-3.53-0.168-5.38-0.168-5.38l-16.475-1.345c0,0,1.681,12.776-0.168,15.298
			c-1.127,1.537-4.193,2.45-7.631,3.499c0.794,1.037,6.471,7.753,18.895,5.579c5.835-1.021,9.769-3.561,12.355-6.11
			C152.482,231.709,150.621,231.092,150.067,230.855z"/>
		<path style="fill:#263238;stroke:#263238;stroke-linecap:round;stroke-linejoin:round;stroke-miterlimit:10;" d="M147.713,221.273
			c-0.168-3.53-0.168-5.38-0.168-5.38l-10.396-0.849l-0.901,1.952c0,0,4.986,5.232,11.695,6.849
			C147.831,222.941,147.751,222.056,147.713,221.273z"/>
		<g>
			<path style="fill:#263238;stroke:#263238;stroke-linecap:round;stroke-linejoin:round;stroke-miterlimit:10;" d="
				M134.852,216.933l-0.247,3.886c0,0-4.437,3.486-17.053-4.805c-12.616-8.291-10.356-35.417-0.025-44.136
				c10.331-8.718,25.644-6.895,29.978-4.511c4.334,2.383,7.619,0.797,9.341,7.59c1.722,6.792-1.266,10.056-1.266,10.056
				s-2.806-3.138-4.023-3.754c-1.217-0.615-6.023,0.201-7.941,2.86c-1.918,2.659-5.051,20.939-5.602,24.672
				C137.464,212.524,134.852,216.933,134.852,216.933z"/>
			<g>
				<path style="fill:#FFFFFF;stroke:#263238;stroke-linecap:round;stroke-linejoin:round;stroke-miterlimit:10;" d="
					M149.675,176.296c0,0,5.247,2.845,8.175,12.539c2.928,9.695,2.954,20.595,2.103,23.412c-0.852,2.816-3.224,4.864-5.743,5.691
					c-2.519,0.827-7.934,1.335-10.904,0.788c-2.97-0.547-8.453-1.792-8.453-1.792S137.404,176.01,149.675,176.296z"/>
				<path style="fill:none;stroke:#263238;stroke-linecap:round;stroke-linejoin:round;stroke-miterlimit:10;" d="M152.857,188.3
					c0,0-0.999,3.258-0.026,5.697c0.973,2.438,4.904,3.389,4.382,4.422c-0.523,1.033-4.055,3.399-4.055,3.399"/>
				<path style="fill:none;stroke:#263238;stroke-linecap:round;stroke-linejoin:round;stroke-miterlimit:10;" d="M155.47,205.713
					c0,0-1.459,1.858-7.253,0.484"/>
				<path style="fill:#263238;" d="M146.27,196.064c0.268,0.816,0.102,1.604-0.371,1.759c-0.473,0.155-1.073-0.381-1.341-1.197
					c-0.268-0.816-0.102-1.604,0.371-1.759C145.402,194.711,146.002,195.247,146.27,196.064z"/>
				<path style="fill:#263238;" d="M155.977,191.24c0.268,0.816,0.102,1.604-0.371,1.759c-0.473,0.155-1.073-0.381-1.341-1.197
					c-0.268-0.816-0.102-1.604,0.371-1.759C155.109,189.888,155.709,190.424,155.977,191.24z"/>
				<path style="fill:none;stroke:#263238;stroke-linecap:round;stroke-linejoin:round;stroke-miterlimit:10;" d="M140.507,193.732
					c0,0,0.53-2.587,4.109-3.762"/>
				<path style="fill:none;stroke:#263238;stroke-linecap:round;stroke-linejoin:round;stroke-miterlimit:10;" d="M152.604,187.004
					c0,0,2.545-1.697,4.141,0.537"/>
			</g>
		</g>
		<g>
			<path style="fill:#263238;stroke:#263238;stroke-linecap:round;stroke-linejoin:round;stroke-miterlimit:10;" d="
				M187.604,243.502l-9.074,0.2c-0.83,0.018-1.486-0.699-1.395-1.524l2.622-23.69c0.076-0.684,0.646-1.207,1.335-1.222l9.074-0.2
				c0.83-0.018,1.486,0.699,1.395,1.524l-2.622,23.69C188.862,242.964,188.292,243.486,187.604,243.502z"/>
			<g>
				<path style="fill:#FFFFFF;stroke:#263238;stroke-linecap:round;stroke-linejoin:round;stroke-miterlimit:10;" d="
					M168.559,247.33c0,0,2.185-8.742,2.522-10.927c0.336-2.185,1.177-3.698,2.522-3.867c1.345-0.168,2.858-0.504,2.858-0.504
					s7.733-4.035,10.423-4.371c2.69-0.336,3.698,0,2.858,1.009c-0.841,1.009-5.38,3.53-6.893,4.371
					c-1.513,0.84-3.53,2.017-3.53,2.858c0,0.84,2.69,0.504,3.362,0c0.672-0.504,5.548-3.362,7.397-3.194s0.336,2.858-1.513,3.698
					c-1.849,0.84-7.061,5.211-7.061,5.211s4.707-2.017,6.22-3.026c1.513-1.009,1.681-2.185,2.858-1.849
					c1.177,0.336,0.841,2.858-0.84,4.371c-1.681,1.513-3.194,4.539-5.211,5.884c-2.017,1.345-12.104,7.565-12.104,7.565
					l-5.211-6.556L168.559,247.33z"/>
				<path style="fill:none;stroke:#263238;stroke-linecap:round;stroke-linejoin:round;stroke-miterlimit:10;" d="M188.931,242.021
					c0,0-3.202,2.825-6.968,4.143"/>
				<path style="fill:none;stroke:#263238;stroke-linecap:round;stroke-linejoin:round;stroke-miterlimit:10;" d="M175.559,232.416
					c0,0-2.26,1.318-2.825,3.202"/>
			</g>
			<polygon style="fill:#92E3A9;stroke:#263238;stroke-linecap:round;stroke-linejoin:round;stroke-miterlimit:10;" points="
				167.886,245.649 175.956,255.399 168.391,259.938 162.003,251.028 			"/>
			<path style="fill:#92E3A9;stroke:#263238;stroke-linecap:round;stroke-linejoin:round;stroke-miterlimit:10;" d="
				M115.436,236.571c0,0-6.892,1.513-7.061,10.423c-0.168,8.91,12.608,40.178,14.289,42.027c1.681,1.849,6.388,0.504,7.901-0.336
				c1.513-0.841,32.781-20.509,35.807-23.199c0,0,2.69-2.522,2.858-4.371c0.168-1.849-4.707-8.069-4.707-8.069
				s-3.362-3.026-5.884-3.194c-2.522-0.168-26.561,18.996-26.561,18.996s-7.901-23.367-9.078-24.376"/>
		</g>
	</g>
</g>
<g id="Arrows">
	<g>
		<polyline style="fill:none;stroke:#263238;stroke-linecap:round;stroke-linejoin:round;stroke-miterlimit:10;" points="
			204.735,337.393 200.672,331.608 183.236,356.432 191.806,356.432 191.806,374.163 198.829,374.163 		"/>
		<polyline style="fill:none;stroke:#263238;stroke-linecap:round;stroke-linejoin:round;stroke-miterlimit:10;" points="
			202.546,374.163 209.538,374.163 209.538,356.432 218.108,356.432 206.149,339.406 		"/>
		<polygon style="fill:none;stroke:#263238;stroke-linecap:round;stroke-linejoin:round;stroke-miterlimit:10;" points="
			232.333,249.101 221.451,233.608 210.569,249.101 215.918,249.101 215.918,260.167 226.984,260.167 226.984,249.101 		"/>
		<polyline style="fill:none;stroke:#263238;stroke-linecap:round;stroke-linejoin:round;stroke-miterlimit:10;" points="
			397.211,80.391 403.333,71.674 397.984,71.674 397.984,60.608 386.918,60.608 386.918,71.674 381.569,71.674 392.451,87.167 
			395.11,83.382 		"/>
		<polyline style="fill:none;stroke:#263238;stroke-linecap:round;stroke-linejoin:round;stroke-miterlimit:10;" points="
			472.055,310.888 479,301 473.651,301 473.651,289.934 469.198,289.934 		"/>
		<polyline style="fill:none;stroke:#263238;stroke-linecap:round;stroke-linejoin:round;stroke-miterlimit:10;" points="
			465.753,289.934 462.585,289.934 462.585,301 457.236,301 468.118,316.493 470.05,313.743 		"/>
		<polyline style="fill:none;stroke:#263238;stroke-linecap:round;stroke-linejoin:round;stroke-miterlimit:10;" points="
			111.902,120.167 115.651,120.167 115.651,109.101 121,109.101 110.118,93.608 99.236,109.101 104.585,109.101 104.585,120.167 
			109.043,120.167 		"/>
	</g>
	<polygon style="fill:#92E3A9;stroke:#263238;stroke-linecap:round;stroke-linejoin:round;stroke-miterlimit:10;" points="
		205.384,80.754 187.948,55.93 170.512,80.754 179.082,80.754 179.082,98.485 196.814,98.485 196.814,80.754 	"/>
	<polygon style="fill:#92E3A9;stroke:#263238;stroke-linecap:round;stroke-linejoin:round;stroke-miterlimit:10;" points="
		287.847,138.006 305.283,162.831 322.719,138.006 314.149,138.006 314.149,120.275 296.418,120.275 296.418,138.006 	"/>
</g>
</svg>
