<?xml version="1.0" encoding="utf-8"?>
<!-- Generator: Adobe Illustrator 27.5.0, SVG Export Plug-In . SVG Version: 6.00 Build 0)  -->
<svg version="1.1" xmlns="http://www.w3.org/2000/svg" xmlns:xlink="http://www.w3.org/1999/xlink" x="0px" y="0px"
	 viewBox="0 0 500 500" style="enable-background:new 0 0 500 500;" xml:space="preserve">
<g id="Background_Simple_1_">
	<g id="Background_Simple">
		<path style="fill:#C6FF00;" d="M226.051,399.98c60.889,9.521,123.913-15.287,157.658-67.434
			c6.421-9.922,11.816-20.502,16.197-31.476c13.335-33.404,19.6-72.299,15.9-108.145c-3.915-37.93-17.749-79.286-50.343-101.924
			c-30.432-21.137-68.861-21.09-103.434-11.368c-26.269,7.387-49.199,20.927-71.194,36.741
			c-11.362,8.169-22.562,16.62-34.552,23.866c-12.071,7.294-25.131,11.945-37.726,18.004c-23.176,11.15-44.204,27.032-56.729,49.945
			c-14.155,25.895-11.445,58.667,1.21,84.572C91.994,352.032,163.162,390.146,226.051,399.98z"/>
		<path style="opacity:0.8;fill:#FFFFFF;" d="M226.051,400.015c60.889,9.521,123.913-15.287,157.658-67.434
			c6.421-9.922,11.816-20.502,16.197-31.476c13.335-33.404,19.6-72.299,15.9-108.145c-3.915-37.93-17.749-79.286-50.343-101.924
			c-30.432-21.137-68.861-21.09-103.434-11.368c-26.269,7.387-49.199,20.926-71.194,36.741
			c-11.362,8.169-22.562,16.62-34.552,23.866c-12.071,7.294-25.131,11.945-37.726,18.004c-23.176,11.15-44.204,27.032-56.729,49.945
			c-14.155,25.895-11.445,58.667,1.21,84.572C91.994,352.068,163.162,390.181,226.051,400.015z"/>
	</g>
</g>
<g id="Graphics">
	<g id="Background_details">
		<g>
			<g>
				<g>
					<path style="fill:#263238;" d="M427.857,228.554H276.185c-0.276,0-0.5-0.224-0.5-0.5V123.497c0-0.276,0.224-0.5,0.5-0.5
						h151.672c0.276,0,0.5,0.224,0.5,0.5v104.558C428.357,228.331,428.134,228.554,427.857,228.554z M276.685,227.554h150.672
						V123.997H276.685V227.554z"/>
				</g>
				<g>
					<g>
						<path style="fill:#263238;" d="M413.077,138.575c-2.14,0-3.881-1.741-3.881-3.882c0-2.14,1.741-3.881,3.881-3.881
							c2.141,0,3.882,1.741,3.882,3.881C416.959,136.833,415.218,138.575,413.077,138.575z M413.077,131.811
							c-1.589,0-2.881,1.293-2.881,2.881c0,1.589,1.292,2.882,2.881,2.882c1.589,0,2.882-1.293,2.882-2.882
							C415.959,133.104,414.666,131.811,413.077,131.811z"/>
					</g>
					<path style="fill:#263238;" d="M404.342,134.693c0,1.867-1.514,3.381-3.381,3.381c-1.868,0-3.381-1.514-3.381-3.381
						s1.514-3.382,3.381-3.382C402.828,131.312,404.342,132.826,404.342,134.693z"/>
					<path style="fill:#263238;" d="M392.224,134.693c0,1.867-1.514,3.381-3.381,3.381s-3.381-1.514-3.381-3.381
						s1.514-3.382,3.381-3.382S392.224,132.826,392.224,134.693z"/>
				</g>
				<g>
					<rect x="286.815" y="146.558" style="fill:#263238;" width="131.176" height="72.901"/>
				</g>
			</g>
			<g>
				<g>
					<g>
						<path style="fill:#FFFFFF;" d="M359.332,206.135c-0.053,0-0.104,0-0.155-0.001c-7.088-0.04-13.736-2.838-18.721-7.879
							c-4.984-5.041-7.706-11.72-7.666-18.809c0.04-7.088,2.838-13.737,7.879-18.721c5.004-4.947,11.623-7.666,18.653-7.666
							c0.053,0,0.103,0,0.155,0c14.632,0.083,26.469,12.055,26.387,26.688c-0.04,7.088-2.838,13.737-7.879,18.721
							C372.981,203.416,366.362,206.135,359.332,206.135z M359.323,154.06c-6.767,0-13.136,2.617-17.951,7.378
							c-4.851,4.796-7.544,11.194-7.582,18.015c-0.039,6.821,2.581,13.249,7.377,18.1c4.796,4.851,11.194,7.543,18.016,7.582
							c0.05,0.001,0.1,0.001,0.148,0.001c6.767,0,13.136-2.617,17.951-7.378c4.851-4.796,7.544-11.194,7.582-18.015
							c0.079-14.081-11.312-25.602-25.393-25.682C359.422,154.06,359.372,154.06,359.323,154.06z"/>
					</g>
					<polygon style="fill:#FFFFFF;" points="353.885,167.888 353.748,192.205 371.581,180.061 					"/>
				</g>
			</g>
		</g>
		<g id="Background_Details">
			<g>
				<g>
					<g>
						<g>
							<path style="fill:#263238;" d="M196.105,130.495H72.931c-0.276,0-0.5-0.224-0.5-0.5v-18.651c0-0.276,0.224-0.5,0.5-0.5
								h123.175c0.276,0,0.5,0.224,0.5,0.5v18.651C196.605,130.271,196.382,130.495,196.105,130.495z M73.431,129.495h122.175
								v-17.651H73.431V129.495z"/>
						</g>
						<g>
							<path style="fill:#263238;" d="M87.789,120.669c0,1.973-1.6,3.573-3.573,3.573c-1.973,0-3.573-1.6-3.573-3.573
								c0-1.973,1.6-3.573,3.573-3.573C86.19,117.096,87.789,118.696,87.789,120.669z"/>
							<path style="fill:#263238;" d="M103.584,120.669c0,1.973-1.6,3.573-3.573,3.573c-1.973,0-3.573-1.6-3.573-3.573
								c0-1.973,1.599-3.573,3.573-3.573C101.985,117.096,103.584,118.696,103.584,120.669z"/>
							<path style="fill:#263238;" d="M119.379,120.669c0,1.973-1.6,3.573-3.573,3.573c-1.973,0-3.573-1.6-3.573-3.573
								c0-1.973,1.6-3.573,3.573-3.573C117.78,117.096,119.379,118.696,119.379,120.669z"/>
						</g>
					</g>
					<g>
						<path style="fill:#263238;" d="M200.423,107.4h-8.354c-0.276,0-0.5-0.224-0.5-0.5c0-0.276,0.224-0.5,0.5-0.5h8.354
							c0.276,0,0.5,0.224,0.5,0.5C200.923,107.176,200.7,107.4,200.423,107.4z"/>
					</g>
					<g>
						<path style="fill:#263238;" d="M93.771,137.354H61.55c-0.276,0-0.5-0.224-0.5-0.5s0.224-0.5,0.5-0.5h32.221
							c0.276,0,0.5,0.224,0.5,0.5S94.048,137.354,93.771,137.354z"/>
					</g>
				</g>
			</g>
		</g>
	</g>
</g>
<g id="Plants_1_">
	<g id="Plants">
		<g>
			<g>
				<g>
					<path style="fill:#C6FF00;" d="M403.587,414.514c-0.203,0-0.395-0.125-0.47-0.327c-6.501-17.67,2.864-38.333,9.025-49.077
						c2.242-3.909,4.61-7.764,6.899-11.492c6.816-11.096,13.255-21.577,17.149-34.11c4.934-15.875,6.355-34.967,4.222-56.744
						c-0.026-0.275,0.175-0.52,0.449-0.547c0.275-0.011,0.521,0.175,0.547,0.449c2.145,21.911,0.711,41.136-4.263,57.139
						c-3.932,12.653-10.402,23.186-17.252,34.337c-2.286,3.722-4.649,7.57-6.885,11.467c-6.074,10.593-15.316,30.945-8.954,48.233
						c0.096,0.26-0.037,0.547-0.296,0.643C403.702,414.504,403.645,414.514,403.587,414.514z"/>
				</g>
				<path style="fill:#C6FF00;" d="M401.408,406.976c0,0,7.483-20.823,16.775-18.658c9.292,2.165-16.007,20.697-16.007,20.697
					L401.408,406.976z"/>
				<path style="fill:#C6FF00;" d="M404.942,380.917c-0.116-0.655,1.278-21.795-5.808-21.098s1.278,22.882,4.414,24.508
					L404.942,380.917z"/>
				<path style="fill:#C6FF00;" d="M400.672,403.123c0,0-5.435-18.058-11.136-16.691c-5.701,1.367,12.435,21.42,12.435,21.42
					L400.672,403.123z"/>
				<path style="fill:#C6FF00;" d="M403.921,385.142c0,0,21.727-9.267,21.609-16.343c-0.118-7.076-20.548,13.035-20.548,13.035
					L403.921,385.142z"/>
				<path style="fill:#C6FF00;" d="M410.821,368.543c0,0-6.564-22.527-0.773-25.487c5.791-2.96,2.529,22.303,2.529,22.303
					L410.821,368.543z"/>
				<path style="fill:#C6FF00;" d="M410.821,368.543c0,0,24.163-11.665,22.627-17.928c-1.536-6.264-19.956,13.516-19.956,13.516
					L410.821,368.543z"/>
				<path style="fill:#C6FF00;" d="M422.17,349.466c0,0-7.118-20.216-2.462-23.32c4.656-3.104,4.785,19.452,4.785,19.452
					L422.17,349.466z"/>
				<path style="fill:#C6FF00;" d="M422.17,349.466c0,0,18.101-7.542,17.713-14.138c-0.388-6.595-15.39,10.27-15.39,10.27
					L422.17,349.466z"/>
				<path style="fill:#C6FF00;" d="M430.919,333.866c0,0-6.701-16.35-3.646-19.623c3.055-3.274,5.019,16.737,5.019,16.737
					L430.919,333.866z"/>
				<path style="fill:#C6FF00;" d="M432.292,330.285c0,0,9.958-16.846,13.906-14.495c5.273,3.142-14.476,16.389-14.476,16.389
					L432.292,330.285z"/>
				<path style="fill:#C6FF00;" d="M437.492,316.853c0,0-9.583-16.144-5.77-18.79c3.813-2.646,6.751,14.983,6.751,14.983
					L437.492,316.853z"/>
				<path style="fill:#C6FF00;" d="M438.75,311.845c0.094-0.42,7.077-19.516,12.369-18.193c5.293,1.323-13.379,20.229-13.379,20.229
					L438.75,311.845z"/>
				<path style="fill:#C6FF00;" d="M441.034,297.792c0,0-2.476-15.754-7.516-15.166c-5.04,0.588,7.516,17.789,7.516,17.789V297.792z
					"/>
				<path style="fill:#C6FF00;" d="M441.558,291.512c0,0,4.415-15.944,9.708-15.797c5.293,0.147-9.976,19.408-9.976,19.408
					L441.558,291.512z"/>
				<path style="fill:#C6FF00;" d="M441.86,278.362c0,0-5.277-15.366-10.138-13.049c-4.861,2.316,10.138,17.297,10.138,17.297
					V278.362z"/>
				<path style="fill:#C6FF00;" d="M441.563,271.166c0,0-5.32-18.627-0.528-20.05C445.826,249.693,441.563,271.166,441.563,271.166z
					"/>
			</g>
			<g style="opacity:0.3;">
				<g>
					<path style="fill:#FFFFFF;" d="M403.587,414.514c-0.203,0-0.395-0.125-0.47-0.327c-6.501-17.67,2.864-38.333,9.025-49.077
						c2.242-3.909,4.61-7.764,6.899-11.492c6.816-11.096,13.255-21.577,17.149-34.11c4.934-15.875,6.355-34.967,4.222-56.744
						c-0.026-0.275,0.175-0.52,0.449-0.547c0.275-0.011,0.521,0.175,0.547,0.449c2.145,21.911,0.711,41.136-4.263,57.139
						c-3.932,12.653-10.402,23.186-17.252,34.337c-2.286,3.722-4.649,7.57-6.885,11.467c-6.074,10.593-15.316,30.945-8.954,48.233
						c0.096,0.26-0.037,0.547-0.296,0.643C403.702,414.504,403.645,414.514,403.587,414.514z"/>
				</g>
				<g>
					<path style="fill:#FFFFFF;" d="M401.408,406.976c0,0,7.483-20.823,16.775-18.658c9.292,2.165-16.007,20.697-16.007,20.697
						L401.408,406.976z"/>
					<path style="fill:#FFFFFF;" d="M404.942,380.917c-0.116-0.655,1.278-21.795-5.808-21.098s1.278,22.882,4.414,24.508
						L404.942,380.917z"/>
					<path style="fill:#FFFFFF;" d="M400.672,403.123c0,0-5.435-18.058-11.136-16.691c-5.701,1.367,12.435,21.42,12.435,21.42
						L400.672,403.123z"/>
					<path style="fill:#FFFFFF;" d="M403.921,385.142c0,0,21.727-9.267,21.609-16.343c-0.118-7.076-20.548,13.035-20.548,13.035
						L403.921,385.142z"/>
					<path style="fill:#FFFFFF;" d="M410.821,368.543c0,0-6.564-22.527-0.773-25.487c5.791-2.96,2.529,22.303,2.529,22.303
						L410.821,368.543z"/>
					<path style="fill:#FFFFFF;" d="M410.821,368.543c0,0,24.163-11.665,22.627-17.928c-1.536-6.264-19.956,13.516-19.956,13.516
						L410.821,368.543z"/>
					<path style="fill:#FFFFFF;" d="M422.17,349.466c0,0-7.118-20.216-2.462-23.32c4.656-3.104,4.785,19.452,4.785,19.452
						L422.17,349.466z"/>
					<path style="fill:#FFFFFF;" d="M422.17,349.466c0,0,18.101-7.542,17.713-14.138c-0.388-6.595-15.39,10.27-15.39,10.27
						L422.17,349.466z"/>
					<path style="fill:#FFFFFF;" d="M430.919,333.866c0,0-6.701-16.35-3.646-19.623c3.055-3.274,5.019,16.737,5.019,16.737
						L430.919,333.866z"/>
					<path style="fill:#FFFFFF;" d="M432.292,330.285c0,0,9.958-16.846,13.906-14.495c5.273,3.142-14.476,16.389-14.476,16.389
						L432.292,330.285z"/>
					<path style="fill:#FFFFFF;" d="M437.492,316.853c0,0-9.583-16.144-5.77-18.79c3.813-2.646,6.751,14.983,6.751,14.983
						L437.492,316.853z"/>
					<path style="fill:#FFFFFF;" d="M438.75,311.845c0.094-0.42,7.077-19.516,12.369-18.193
						c5.293,1.323-13.379,20.229-13.379,20.229L438.75,311.845z"/>
					<path style="fill:#FFFFFF;" d="M441.034,297.792c0,0-2.476-15.754-7.516-15.166c-5.04,0.588,7.516,17.789,7.516,17.789V297.792
						z"/>
					<path style="fill:#FFFFFF;" d="M441.558,291.512c0,0,4.415-15.944,9.708-15.797c5.293,0.147-9.976,19.408-9.976,19.408
						L441.558,291.512z"/>
					<path style="fill:#FFFFFF;" d="M441.86,278.362c0,0-5.277-15.366-10.138-13.049c-4.861,2.316,10.138,17.297,10.138,17.297
						V278.362z"/>
					<path style="fill:#FFFFFF;" d="M441.563,271.166c0,0-5.32-18.627-0.528-20.05C445.826,249.693,441.563,271.166,441.563,271.166
						z"/>
				</g>
			</g>
		</g>
		<g>
			<g>
				<g>
					<path style="fill:#C6FF00;" d="M156.966,415.219c-0.206,0-0.399-0.129-0.472-0.334c-6.214-17.657-3.436-38.174,7.251-53.542
						c0.157-0.228,0.468-0.283,0.696-0.125c0.227,0.157,0.283,0.469,0.125,0.695c-10.506,15.109-13.237,35.28-7.128,52.64
						c0.092,0.261-0.045,0.546-0.306,0.638C157.077,415.21,157.021,415.219,156.966,415.219z"/>
				</g>
				<path style="fill:#C6FF00;" d="M156.354,412.873c0,0,12.618-13.578,8.371-16.826S156.354,412.873,156.354,412.873z"/>
				<path style="fill:#C6FF00;" d="M154.721,406.292c0,0-5.111-18.74-10.108-14.742
					C139.616,395.547,154.721,406.292,154.721,406.292z"/>
				<path style="fill:#C6FF00;" d="M153.732,397.671c0,0,12.117-11.243,9.244-14.74
					C160.103,379.433,154.732,392.299,153.732,397.671z"/>
				<path style="fill:#C6FF00;" d="M154.175,388.173c0,0,1.906-20.608-5.015-19.608
					C142.239,369.564,154.175,388.173,154.175,388.173z"/>
				<path style="fill:#C6FF00;" d="M158.024,373.061c0,0,15.195-12.866,10.324-16.239
					C163.475,353.449,158.024,373.061,158.024,373.061z"/>
			</g>
			<g style="opacity:0.3;">
				<g>
					<path style="fill:#FFFFFF;" d="M156.944,415.219c-0.206,0-0.399-0.129-0.472-0.334c-6.214-17.657-3.436-38.174,7.25-53.542
						c0.158-0.228,0.468-0.283,0.696-0.125c0.227,0.157,0.283,0.469,0.125,0.695c-10.506,15.109-13.237,35.28-7.128,52.64
						c0.092,0.261-0.045,0.546-0.306,0.638C157.055,415.21,156.999,415.219,156.944,415.219z"/>
				</g>
				<g>
					<path style="fill:#FFFFFF;" d="M156.332,412.873c0,0,12.618-13.578,8.371-16.826
						C160.456,392.799,156.332,412.873,156.332,412.873z"/>
					<path style="fill:#FFFFFF;" d="M154.699,406.292c0,0-5.112-18.74-10.108-14.742
						C139.594,395.547,154.699,406.292,154.699,406.292z"/>
					<path style="fill:#FFFFFF;" d="M153.711,397.671c0,0,12.117-11.243,9.244-14.74
						C160.081,379.433,154.71,392.299,153.711,397.671z"/>
					<path style="fill:#FFFFFF;" d="M154.153,388.173c0,0,1.906-20.608-5.015-19.608
						C142.218,369.564,154.153,388.173,154.153,388.173z"/>
					<path style="fill:#FFFFFF;" d="M158.002,373.061c0,0,15.195-12.866,10.324-16.239S158.002,373.061,158.002,373.061z"/>
				</g>
			</g>
		</g>
		<g>
			<g>
				<g>
					<path style="fill:#C6FF00;" d="M133.373,414.558c-0.217,0-0.416-0.142-0.48-0.359c-4.706-16.106-10.039-34.361-22.684-47.209
						c-5.271-5.355-11.692-9.59-17.901-13.684c-5.287-3.487-10.754-7.092-15.538-11.396c-11.154-10.037-18.711-24.321-20.734-39.189
						c-0.037-0.273,0.155-0.525,0.428-0.563c0.277-0.044,0.526,0.154,0.563,0.428c1.991,14.638,9.431,28.699,20.412,38.58
						c4.727,4.254,10.163,7.838,15.419,11.305c6.252,4.123,12.718,8.386,18.063,13.817c12.822,13.027,18.192,31.41,22.931,47.629
						c0.078,0.266-0.075,0.543-0.34,0.62C133.466,414.551,133.419,414.558,133.373,414.558z"/>
				</g>
				<path style="fill:#C6FF00;" d="M132.181,410.008c0,0-9.122-18.046-15.961-12.993
					C109.381,402.067,132.181,410.008,132.181,410.008z"/>
				<path style="fill:#C6FF00;" d="M127.506,395.603c-0.119-0.324-2.951-17.821,4.675-19.915
					C139.808,373.595,127.506,395.603,127.506,395.603z"/>
				<path style="fill:#C6FF00;" d="M122.706,384.239c0,0-16.535-14.971-21.14-9.527C96.959,380.154,122.706,384.239,122.706,384.239
					z"/>
				<path style="fill:#C6FF00;" d="M116.704,374.026c0,0-10.952-20.669-3.415-23.042
					C120.826,348.611,116.704,374.026,116.704,374.026z"/>
				<path style="fill:#C6FF00;" d="M109.991,365.354c0,0-21.169-13.087-22.737-7.279
					C85.687,363.883,109.991,365.354,109.991,365.354z"/>
				<path style="fill:#C6FF00;" d="M100.648,358.356c0,0-13.04-18.972-7.951-21.112C100.648,333.9,100.648,358.356,100.648,358.356z
					"/>
				<path style="fill:#C6FF00;" d="M87.881,349.758c0,0-20.382-12.065-24.421-6.302C59.422,349.22,87.881,349.758,87.881,349.758z"
					/>
				<path style="fill:#C6FF00;" d="M77.104,341.538c0,0-10.268-21.217-4.719-22.198C80.96,317.822,77.104,341.538,77.104,341.538z"
					/>
				<path style="fill:#C6FF00;" d="M68.75,332.363c0,0-16.76-19.383-20.704-13.094S68.75,332.363,68.75,332.363z"/>
				<path style="fill:#C6FF00;" d="M60.097,316.595c0,0-9.945-19.856-3.566-21.524C62.911,293.402,60.097,316.595,60.097,316.595z"
					/>
			</g>
			<g style="opacity:0.3;">
				<g>
					<path style="fill:#FFFFFF;" d="M133.373,414.558c-0.217,0-0.416-0.142-0.48-0.359c-4.706-16.106-10.039-34.361-22.684-47.209
						c-5.271-5.355-11.692-9.59-17.901-13.684c-5.287-3.487-10.754-7.092-15.538-11.396c-11.154-10.037-18.711-24.321-20.734-39.189
						c-0.037-0.273,0.155-0.525,0.428-0.563c0.277-0.044,0.526,0.154,0.563,0.428c1.991,14.638,9.431,28.699,20.412,38.58
						c4.727,4.254,10.163,7.838,15.419,11.305c6.252,4.123,12.718,8.386,18.063,13.817c12.822,13.027,18.192,31.41,22.931,47.629
						c0.078,0.266-0.075,0.543-0.34,0.62C133.466,414.551,133.419,414.558,133.373,414.558z"/>
				</g>
				<path style="fill:#FFFFFF;" d="M132.181,410.008c0,0-9.122-18.046-15.961-12.993
					C109.381,402.067,132.181,410.008,132.181,410.008z"/>
				<path style="fill:#FFFFFF;" d="M127.506,395.603c-0.119-0.324-2.951-17.821,4.675-19.915
					C139.808,373.595,127.506,395.603,127.506,395.603z"/>
				<path style="fill:#FFFFFF;" d="M122.706,384.239c0,0-16.535-14.971-21.14-9.527C96.959,380.154,122.706,384.239,122.706,384.239
					z"/>
				<path style="fill:#FFFFFF;" d="M116.704,374.026c0,0-10.952-20.669-3.415-23.042
					C120.826,348.611,116.704,374.026,116.704,374.026z"/>
				<path style="fill:#FFFFFF;" d="M109.991,365.354c0,0-21.169-13.087-22.737-7.279
					C85.687,363.883,109.991,365.354,109.991,365.354z"/>
				<path style="fill:#FFFFFF;" d="M100.648,358.356c0,0-13.04-18.972-7.951-21.112C100.648,333.9,100.648,358.356,100.648,358.356z
					"/>
				<path style="fill:#FFFFFF;" d="M87.881,349.758c0,0-20.382-12.065-24.421-6.302C59.422,349.22,87.881,349.758,87.881,349.758z"
					/>
				<path style="fill:#FFFFFF;" d="M77.104,341.538c0,0-10.268-21.217-4.719-22.198C80.96,317.822,77.104,341.538,77.104,341.538z"
					/>
				<path style="fill:#FFFFFF;" d="M68.75,332.363c0,0-16.76-19.383-20.704-13.094S68.75,332.363,68.75,332.363z"/>
				<path style="fill:#FFFFFF;" d="M60.097,316.595c0,0-9.945-19.856-3.566-21.524C62.911,293.402,60.097,316.595,60.097,316.595z"
					/>
			</g>
		</g>
		<g>
			<g>
				<g>
					<path style="fill:#C6FF00;" d="M375.828,415.388c-0.149,0-0.297-0.066-0.396-0.194c-22.444-29.026,1.862-69.649,2.11-70.057
						c0.142-0.236,0.452-0.31,0.686-0.166c0.236,0.144,0.311,0.451,0.167,0.688c-0.244,0.4-24.193,40.444-2.173,68.924
						c0.169,0.219,0.129,0.532-0.09,0.701C376.043,415.353,375.935,415.388,375.828,415.388z"/>
				</g>
				<path style="fill:#C6FF00;" d="M370.428,405.885c0,0-13.35-17.468-18.118-14.632c-4.768,2.835,9.485,14.198,19.177,16.829
					L370.428,405.885z"/>
				<path style="fill:#C6FF00;" d="M367.75,397.992c0-0.387,3.118-21.302,8.402-19.627c5.284,1.676-7.733,22.111-7.733,22.111
					L367.75,397.992z"/>
				<path style="fill:#C6FF00;" d="M366.357,388.225c0,0-13.287-16.587-10.341-21.28c2.947-4.693,10.346,18.223,10.346,18.223
					L366.357,388.225z"/>
				<path style="fill:#C6FF00;" d="M367.145,378.27c0,0,14.516-10.233,11.679-13.725c-2.837-3.492-11.679,11.312-11.679,11.312
					V378.27z"/>
				<path style="fill:#C6FF00;" d="M369.011,367.109c0,0-6.922-18.546-2.654-22.3c4.269-3.754,3.768,18.528,3.768,18.528
					L369.011,367.109z"/>
				<path style="fill:#C6FF00;" d="M373.169,355.746c0,0,16.797-15.942,12.929-19.128
					C382.23,333.434,374.687,349.619,373.169,355.746z"/>
			</g>
			<g style="opacity:0.3;">
				<g>
					<path style="fill:#FFFFFF;" d="M375.828,415.388c-0.149,0-0.297-0.066-0.396-0.194c-22.444-29.026,1.862-69.649,2.11-70.057
						c0.142-0.236,0.452-0.31,0.686-0.166c0.236,0.144,0.311,0.451,0.167,0.688c-0.244,0.4-24.193,40.444-2.173,68.924
						c0.169,0.219,0.129,0.532-0.09,0.701C376.043,415.353,375.935,415.388,375.828,415.388z"/>
				</g>
				<g>
					<path style="fill:#FFFFFF;" d="M370.428,405.885c0,0-13.35-17.468-18.118-14.632c-4.768,2.835,9.485,14.198,19.177,16.829
						L370.428,405.885z"/>
					<path style="fill:#FFFFFF;" d="M367.75,397.992c0-0.387,3.118-21.302,8.402-19.627c5.284,1.676-7.733,22.111-7.733,22.111
						L367.75,397.992z"/>
					<path style="fill:#FFFFFF;" d="M366.357,388.225c0,0-13.287-16.587-10.341-21.28c2.947-4.693,10.346,18.223,10.346,18.223
						L366.357,388.225z"/>
					<path style="fill:#FFFFFF;" d="M367.145,378.27c0,0,14.516-10.233,11.679-13.725c-2.837-3.492-11.679,11.312-11.679,11.312
						V378.27z"/>
					<path style="fill:#FFFFFF;" d="M369.011,367.109c0,0-6.922-18.546-2.654-22.3c4.269-3.754,3.768,18.528,3.768,18.528
						L369.011,367.109z"/>
					<path style="fill:#FFFFFF;" d="M373.169,355.746c0,0,16.797-15.942,12.929-19.128
						C382.23,333.434,374.687,349.619,373.169,355.746z"/>
				</g>
			</g>
		</g>
	</g>
</g>
<g id="Character_1_">
	<g id="Character">
		<g>
			<g>
				<path style="fill:#263238;" d="M308.497,412.8c-1.082-19.233-1.821-32.546-1.821-32.546
					c-68.737,16.642-105.933-10.084-105.933-10.084s-3.009,18.928-6.819,42.63H308.497z"/>
				<path style="fill:#263238;" d="M308.497,413.3H193.924c-0.146,0-0.286-0.064-0.38-0.176c-0.095-0.111-0.137-0.259-0.113-0.403
					c3.811-23.702,6.819-42.629,6.819-42.629c0.027-0.172,0.141-0.316,0.301-0.383c0.161-0.068,0.343-0.045,0.484,0.055
					c0.371,0.266,37.827,26.393,105.524,10.004c0.143-0.032,0.297-0.003,0.415,0.085c0.119,0.089,0.193,0.226,0.201,0.374
					c0,0,0.739,13.313,1.821,32.545c0.008,0.138-0.041,0.271-0.136,0.372C308.766,413.243,308.635,413.3,308.497,413.3z
					 M194.511,412.3h113.457c-0.933-16.58-1.605-28.659-1.758-31.42c-62.894,15.041-99.785-6.457-105.095-9.863
					C200.521,374.749,197.829,391.658,194.511,412.3z"/>
			</g>
			<g style="opacity:0.6;">
				<path style="fill:#FFFFFF;" d="M308.497,412.8c-1.082-19.233-1.821-32.546-1.821-32.546
					c-68.737,16.642-105.933-10.084-105.933-10.084s-3.009,18.928-6.819,42.63H308.497z"/>
				<path style="fill:#263238;" d="M308.497,413.3H193.924c-0.146,0-0.286-0.064-0.38-0.176c-0.095-0.111-0.137-0.259-0.113-0.403
					c3.811-23.702,6.819-42.629,6.819-42.629c0.027-0.172,0.141-0.316,0.301-0.383c0.161-0.068,0.343-0.045,0.484,0.055
					c0.371,0.266,37.827,26.393,105.524,10.004c0.143-0.032,0.297-0.003,0.415,0.085c0.119,0.089,0.193,0.226,0.201,0.374
					c0,0,0.739,13.313,1.821,32.545c0.008,0.138-0.041,0.271-0.136,0.372C308.766,413.243,308.635,413.3,308.497,413.3z
					 M194.511,412.3h113.457c-0.933-16.58-1.605-28.659-1.758-31.42c-62.894,15.041-99.785-6.457-105.095-9.863
					C200.521,374.749,197.829,391.658,194.511,412.3z"/>
			</g>
		</g>
		<g>
			<g>
				<path style="fill:#FFFFFF;" d="M111.614,224.714c-0.103,3.101-2.117,5.905-2.181,9.008c-0.059,2.896,1.58,5.54,2.137,8.383
					c0.599,3.055-0.021,6.192,0.392,9.268c0.258,1.919,0.832,3.971,1.604,5.75c0.617,1.421,1.512,2.756,2.765,3.668
					c2.033,1.48,4.846,1.415,7.261,1.415c2.463,0,5.015-0.448,6.995-2.011c1.614-1.275,2.649-3.127,3.641-4.928
					c0.83-1.506,1.681-3.091,1.707-4.81c0.015-0.969-0.239-1.926-0.597-2.827c-1.955-4.91-6.993-8.413-7.84-13.629
					c-0.362-2.229,0.106-4.495,0.303-6.744c0.197-2.249,0.068-4.687-1.287-6.493c-2.258-3.011-7.522-3.631-11.027-3.619
					C110.426,217.162,111.737,220.984,111.614,224.714z"/>
				<path style="fill:#263238;" d="M122.949,262.706c-2.339,0-4.929-0.066-6.912-1.511c-1.21-0.882-2.196-2.185-2.929-3.874
					c-0.794-1.829-1.377-3.918-1.642-5.882c-0.194-1.449-0.165-2.915-0.138-4.333c0.032-1.624,0.065-3.304-0.249-4.906
					c-0.211-1.077-0.595-2.159-0.967-3.206c-0.599-1.687-1.218-3.431-1.18-5.283c0.034-1.647,0.585-3.202,1.12-4.705
					c0.521-1.466,1.013-2.851,1.061-4.309l0,0c0.022-0.679-0.004-1.371-0.03-2.04c-0.074-1.919-0.144-3.732,0.965-4.889
					c0.72-0.751,1.844-1.119,3.436-1.124c3.229,0.002,8.918,0.47,11.429,3.819c1.212,1.616,1.653,3.788,1.385,6.836
					c-0.049,0.558-0.114,1.116-0.18,1.675c-0.201,1.714-0.39,3.333-0.128,4.946c0.462,2.848,2.222,5.155,4.085,7.599
					c1.406,1.843,2.859,3.749,3.726,5.926c0.44,1.105,0.647,2.093,0.633,3.019c-0.028,1.883-0.953,3.562-1.769,5.043
					c-0.962,1.745-2.052,3.724-3.769,5.08c-1.805,1.425-4.194,2.118-7.305,2.118h-0.289
					C123.186,262.706,123.068,262.706,122.949,262.706z M112.113,224.731c-0.053,1.613-0.594,3.137-1.118,4.611
					c-0.531,1.494-1.032,2.905-1.062,4.391c-0.035,1.67,0.527,3.252,1.122,4.928c0.384,1.081,0.78,2.198,1.006,3.348
					c0.335,1.706,0.3,3.441,0.268,5.118c-0.027,1.38-0.055,2.808,0.129,4.181c0.252,1.875,0.809,3.869,1.567,5.616
					c0.662,1.523,1.536,2.689,2.601,3.464c1.82,1.325,4.4,1.322,6.677,1.318h0.29c2.877,0,5.063-0.622,6.685-1.903
					c1.559-1.23,2.597-3.115,3.513-4.777c0.76-1.379,1.621-2.941,1.645-4.576c0.012-0.792-0.172-1.654-0.562-2.634
					c-0.816-2.05-2.227-3.9-3.592-5.689c-1.856-2.434-3.775-4.95-4.278-8.045c-0.284-1.75-0.077-3.515,0.123-5.222
					c0.064-0.549,0.129-1.098,0.177-1.645c0.245-2.788-0.133-4.742-1.189-6.149c-2.333-3.111-8.213-3.397-10.625-3.419
					c-1.307,0.004-2.196,0.271-2.718,0.816c-0.816,0.851-0.757,2.384-0.688,4.159C112.11,223.306,112.137,224.016,112.113,224.731
					L112.113,224.731z"/>
			</g>
			<g>
				<path style="fill:#FFFFFF;" d="M118.096,261.65l3.34,26.509c0,0,18.884-4.641,24.457-12.087l-10.714-23.562"/>
				<path style="fill:#263238;" d="M121.435,288.658c-0.1,0-0.199-0.03-0.283-0.088c-0.118-0.081-0.195-0.208-0.213-0.35
					l-3.34-26.508c-0.035-0.274,0.16-0.524,0.434-0.559c0.277-0.04,0.524,0.16,0.559,0.434l3.269,25.943
					c3.085-0.818,18.382-5.137,23.453-11.527l-10.589-23.287c-0.114-0.251-0.003-0.548,0.248-0.662
					c0.254-0.113,0.548-0.004,0.662,0.248l10.714,23.562c0.076,0.166,0.055,0.36-0.055,0.507
					c-5.616,7.503-23.96,12.081-24.738,12.272C121.516,288.653,121.476,288.658,121.435,288.658z"/>
			</g>
			<g>
				<g>
					<path style="fill:#263238;" d="M152.533,277.897l5.976,13.398l61.763-36.338l11.695-15.606l8.109,19.669l-16.492,38.64
						c-12.79,9.046-26.512,17.034-40.514,24.025c-6.739,3.364-13.587,6.538-20.645,9.178c-6.737,2.52-13.739,4.239-20.68,6.087
						c-0.481,0.128-1.014,0.252-1.459,0.029c-0.318-0.159-0.448-0.542-0.725-0.765c-5.081-4.091-17.82-40.555-19.132-52.165
						L152.533,277.897z"/>
					<path style="fill:#263238;" d="M318.608,224.831l28.561,40.608c7.028,9.993,7.66,23.137,1.628,33.761
						c-11.017,19.4-28.588,49.031-37.753,57.557c0,0,4.278,8.765,3.628,12.017c-0.65,3.251-6.693,3.901-6.693,3.901l9.294,15.931
						c0,0-50.395,44.542-121.272-13.33l14.752-51.695l-7.809-5.566l31.331-104.652l32.192-3.464l9.795,25.923l10.57-12.496
						l10.608,12.496L318.608,224.831z"/>
				</g>
				<g>
					<g>
						<path style="fill:#FFFFFF;" d="M316.473,285.189c-0.208,0-0.402-0.131-0.474-0.339c-0.089-0.261,0.051-0.545,0.313-0.635
							c8.682-2.96,16.751-4.313,27.852-4.672c0.268,0.001,0.507,0.208,0.516,0.484c0.009,0.275-0.208,0.507-0.484,0.516
							c-10.994,0.354-18.979,1.692-27.561,4.619C316.581,285.18,316.526,285.189,316.473,285.189z"/>
					</g>
					<g>
						<path style="fill:#FFFFFF;" d="M290.202,381.676c-0.106,0-0.213-0.033-0.303-0.103c-0.22-0.167-0.263-0.481-0.095-0.7
							c4.997-6.555,11.643-11.727,19.223-14.959c0.255-0.109,0.548,0.011,0.656,0.264c0.108,0.254-0.01,0.548-0.264,0.656
							c-7.42,3.164-13.928,8.228-18.82,14.644C290.501,381.608,290.352,381.676,290.202,381.676z"/>
					</g>
					<g>
						<path style="fill:#FFFFFF;" d="M153.645,312.025c-0.064,0-0.13-0.013-0.193-0.039c-0.255-0.106-0.375-0.398-0.268-0.653
							c2.385-5.709,3.952-11.72,4.658-17.865c0.032-0.274,0.283-0.467,0.554-0.44c0.274,0.032,0.471,0.28,0.439,0.554
							c-0.716,6.239-2.308,12.342-4.729,18.137C154.027,311.91,153.841,312.025,153.645,312.025z"/>
					</g>
					<g>
						<path style="fill:#FFFFFF;" d="M164.65,306.218c-0.019,0-0.038-0.001-0.057-0.003c-0.274-0.031-0.472-0.279-0.44-0.554
							c0.464-4.071-0.602-8.341-2.926-11.716c-0.157-0.227-0.1-0.538,0.128-0.695c0.23-0.156,0.54-0.099,0.695,0.129
							c2.459,3.57,3.587,8.088,3.096,12.396C165.117,306.029,164.901,306.218,164.65,306.218z"/>
					</g>
					<g>
						<path style="fill:#FFFFFF;" d="M223.139,280.543c-0.055,0-0.111-0.009-0.166-0.028c-0.26-0.091-0.397-0.377-0.306-0.637
							c1.326-3.783,9.958-24.739,13.151-32.23c0.108-0.254,0.402-0.372,0.656-0.264c0.254,0.108,0.372,0.402,0.264,0.656
							c-3.105,7.284-11.836,28.482-13.128,32.168C223.539,280.414,223.346,280.543,223.139,280.543z"/>
					</g>
					<g>
						<path style="fill:#FFFFFF;" d="M286.827,336.172c-0.224,0-0.424-0.149-0.483-0.371l-3.349-12.505l-52.381-30.983
							c-0.238-0.141-0.316-0.447-0.176-0.685c0.141-0.236,0.449-0.316,0.685-0.176l52.558,31.088
							c0.112,0.067,0.194,0.175,0.228,0.302l2.418,9.031v-10.736c0-0.114,0.039-0.226,0.111-0.315l22.396-27.611
							c0.177-0.214,0.49-0.247,0.704-0.073c0.214,0.174,0.247,0.489,0.073,0.704l-22.285,27.474v14.358
							c0,0.251-0.185,0.463-0.435,0.496C286.87,336.171,286.849,336.172,286.827,336.172z"/>
					</g>
					<g>
						<path style="fill:#FFFFFF;" d="M289.288,370.67c-0.084,0-0.168-0.021-0.244-0.063l-60.767-33.962
							c-0.241-0.135-0.327-0.439-0.192-0.681c0.135-0.242,0.438-0.327,0.681-0.192l60.491,33.808l14.317-10.184
							c0.224-0.159,0.536-0.107,0.697,0.117c0.16,0.226,0.107,0.537-0.117,0.697l-14.575,10.367
							C289.491,370.639,289.39,370.67,289.288,370.67z"/>
					</g>
				</g>
			</g>
		</g>
		<g>
			<ellipse style="fill:#263238;" cx="178.236" cy="218.424" rx="56.855" ry="57.944"/>
			<g>
				<circle style="fill:#C6FF00;" cx="182.037" cy="214.805" r="54.865"/>
				<path style="fill:#263238;" d="M182.037,270.17c-30.529,0-55.366-24.837-55.366-55.365s24.837-55.365,55.366-55.365
					c30.528,0,55.365,24.837,55.365,55.365S212.565,270.17,182.037,270.17z M182.037,160.439c-29.977,0-54.366,24.388-54.366,54.365
					c0,29.977,24.388,54.365,54.366,54.365c29.977,0,54.365-24.388,54.365-54.365C236.402,184.828,212.014,160.439,182.037,160.439z
					"/>
			</g>
			<polygon style="fill:#FFFFFF;" points="160.327,193.785 177.373,241.802 211.765,203.705 			"/>
			<g>
				<g>
					<path style="fill:#FFFFFF;" d="M226.85,201.678c-0.227,0-0.432-0.155-0.486-0.385c-3.026-12.798-11.582-23.417-23.472-29.137
						c-0.249-0.12-0.354-0.419-0.234-0.667c0.121-0.248,0.421-0.353,0.667-0.234c12.164,5.851,20.915,16.715,24.012,29.808
						c0.063,0.269-0.103,0.538-0.372,0.602C226.926,201.673,226.888,201.678,226.85,201.678z"/>
				</g>
				<g>
					<path style="fill:#FFFFFF;" d="M198.252,170.22c-0.053,0-0.108-0.008-0.161-0.027c-3.172-1.08-6.478-1.789-9.827-2.109
						c-0.275-0.026-0.477-0.27-0.45-0.545c0.026-0.275,0.269-0.48,0.545-0.45c3.427,0.327,6.81,1.053,10.055,2.158
						c0.261,0.089,0.401,0.373,0.312,0.634C198.654,170.089,198.46,170.22,198.252,170.22z"/>
				</g>
			</g>
		</g>
		<g>
			<g>
				<path style="fill:#FFFFFF;" d="M222.214,288.669c0,0-10.557,21.914-18.495,24.306l-11.884-15.172l-9.995-12.78l-2.546-3.156
					c0,0,0,0-0.012-0.012l-0.06-0.108l-10.688-19.284l-1.208-2.176l-0.359-1.578l-0.849-3.718l-0.06-0.275l0.156-0.442l1.973-5.571
					l3.575-4.101l0.036-0.155l1.291-6.576l0.143-0.705l3.395-2.104c-0.012-0.012-0.012-0.024-0.012-0.048
					c-0.239-0.646-2.75-7.795-0.789-11.956c0.418-0.909,1.064-1.686,1.997-2.2c0.37-0.215,0.777-0.383,1.243-0.514
					c0,0,0.119-0.251,0.323-0.466c0.311-0.347,0.849-0.622,1.482,0.275v0.012c0.227,0.323,0.454,0.777,0.681,1.423
					c0.108,0.275,0.215,0.598,0.323,0.944c0.048,0.156,0.096,0.323,0.144,0.49c0.048,0.179,0.108,0.359,0.167,0.55
					c0.12,0.395,0.251,0.801,0.383,1.196c1.841,5.727,5.284,15.447,5.535,16.14c0,0.012,0,0.024,0.012,0.036l8.309,2.738l0.98,0.323
					l0.49,1.339l2.905,7.938l0.191,0.514l0.084,0.646l1.841,15.219l0.072,0.072l15.709,15.47L222.214,288.669z"/>
				<g>
					<path style="fill:#263238;" d="M223.139,289.887c-0.123,0-0.245-0.045-0.341-0.135c-14.059-13.144-20.186-19.688-20.247-19.752
						c-0.075-0.08-0.121-0.183-0.132-0.292l-0.944-9.632c-0.309-3.153-1.015-6.555-2.158-10.401
						c-0.72-2.426-1.694-4.193-2.977-5.402c-1.628-1.535-3.692-1.916-5.877-2.319c-0.812-0.15-1.652-0.305-2.472-0.524
						c-0.267-0.071-0.425-0.345-0.354-0.612c0.072-0.267,0.347-0.424,0.612-0.354c0.783,0.208,1.603,0.36,2.396,0.506
						c2.231,0.412,4.539,0.838,6.381,2.575c1.414,1.333,2.477,3.245,3.25,5.844c1.161,3.908,1.878,7.372,2.194,10.588l0.928,9.462
						c0.901,0.953,7.102,7.444,20.083,19.581c0.202,0.188,0.212,0.505,0.024,0.707C223.406,289.833,223.272,289.887,223.139,289.887
						z"/>
				</g>
				<g>
					<path style="fill:#263238;" d="M191.405,249.812c-0.197,0-0.383-0.117-0.463-0.311c-1.061-2.593-2.138-5.334-3.292-8.381
						l0.001-0.001c-0.005-0.014-0.011-0.027-0.015-0.041c-0.406-1.052-0.8-2.115-1.194-3.178c-1.635-4.388-3.044-8.821-4.348-12.984
						c-0.13-0.39-0.263-0.801-0.384-1.2l-0.044-0.137c-0.046-0.147-0.091-0.289-0.128-0.431l-0.518-1.602
						c-0.024-0.075-0.047-0.149-0.067-0.224c-0.079-0.226-0.221-0.593-0.433-0.805c-0.019-0.019-0.036-0.038-0.051-0.059
						c-0.237-0.208-0.469-0.259-0.919-0.107c-0.178,0.054-0.357,0.14-0.58,0.275c-0.312,0.192-0.577,0.389-0.808,0.6
						c-0.631,0.557-1.145,1.265-1.532,2.11l-0.103,0.227c-1.085,2.652-0.481,5.893-0.04,8.261c0.191,1.035,0.393,2.058,0.618,3.08
						c0,0.003,0.001,0.006,0.002,0.008c0.004,0.014,0.008,0.028,0.011,0.042c0.994,4.635,2.275,9.115,3.397,12.886
						c0.079,0.265-0.072,0.543-0.337,0.622c-0.264,0.079-0.543-0.072-0.621-0.337c-1.129-3.789-2.417-8.292-3.417-12.96
						c-0.005-0.016-0.009-0.031-0.012-0.046h-0.001c-0.229-1.034-0.433-2.068-0.625-3.114c-0.463-2.488-1.098-5.896,0.101-8.828
						l0.112-0.249c0.45-0.983,1.046-1.803,1.778-2.448c0.271-0.248,0.585-0.482,0.953-0.708c0.189-0.115,0.476-0.279,0.8-0.376
						c0.155-0.052,0.417-0.128,0.717-0.128c0.487,0,0.912,0.178,1.262,0.529c0.024,0.024,0.046,0.051,0.065,0.08
						c0.314,0.346,0.494,0.793,0.616,1.151l0.589,1.837c0.041,0.154,0.082,0.28,0.123,0.411l0.046,0.146
						c0.119,0.394,0.249,0.796,0.38,1.186c1.302,4.159,2.708,8.577,4.334,12.943c0.394,1.063,0.788,2.124,1.193,3.174
						c0.004,0.012,0.009,0.023,0.012,0.036c0.001,0.001,0.001,0.002,0.002,0.003c1.15,3.039,2.225,5.773,3.283,8.357
						c0.105,0.255-0.018,0.547-0.273,0.652C191.532,249.8,191.468,249.812,191.405,249.812z"/>
				</g>
				<g>
					<path style="fill:#263238;" d="M173.005,251.629c-0.217,0-0.417-0.143-0.48-0.361c-0.72-2.491-1.132-4.778-1.227-6.798
						c-0.133-2.656,0.289-4.857,1.29-6.727c0.042-0.077,0.061-0.113,0.085-0.15c0.62-1.05,1.879-1.913,3.438-2.343
						c0.268-0.07,0.542,0.083,0.615,0.349c0.074,0.267-0.083,0.542-0.349,0.615c-1.312,0.362-2.355,1.06-2.859,1.913
						c-0.03,0.058-0.049,0.093-0.073,0.129c-0.89,1.665-1.273,3.696-1.149,6.167c0.09,1.944,0.49,4.153,1.188,6.569
						c0.077,0.266-0.076,0.542-0.342,0.619C173.098,251.623,173.051,251.629,173.005,251.629z"/>
				</g>
				<g>
					<path style="fill:#263238;" d="M202.942,311.682c-0.146,0-0.291-0.063-0.39-0.187l-23.648-29.315
						c-0.036-0.035-0.043-0.049-0.066-0.094c-0.105-0.175-6.784-10.657-10.76-19.416c-0.657-1.433-1.175-2.673-1.581-3.79
						c-0.412-1.111-0.724-2.122-0.926-3c-0.01-0.045-0.014-0.09-0.012-0.136c0.013-0.277,0.026-0.543,0.064-0.822
						c0.024-0.237,0.05-0.491,0.101-0.745c0.29-1.927,0.993-3.913,2.029-5.723c1.09-1.905,2.417-3.422,3.738-4.273
						c0.233-0.148,0.542-0.082,0.691,0.149c0.149,0.232,0.082,0.542-0.149,0.691c-1.171,0.754-2.415,2.186-3.412,3.929
						c-0.976,1.704-1.637,3.57-1.913,5.397c-0.048,0.245-0.07,0.468-0.092,0.689c-0.033,0.244-0.044,0.462-0.055,0.685
						c0.193,0.821,0.487,1.768,0.875,2.813c0.399,1.095,0.906,2.311,1.552,3.72c3.885,8.558,10.588,19.119,10.655,19.223
						c0.034,0.057,0.053,0.09,0.065,0.114l23.622,29.276c0.173,0.215,0.14,0.529-0.075,0.703
						C203.164,311.646,203.052,311.682,202.942,311.682z"/>
				</g>
			</g>
			<g>
				<g>
					<g>
						<path style="fill:#FFFFFF;" d="M226.984,286.493c-1.184,3.455-2.989,6.934-5.105,10.258
							c-7.556,11.932-18.772,24.6-18.772,24.6c-7.149-6.528-17.061-21.661-17.061-21.661c4.914-3.037,12.771-11.726,17.195-17.321
							c4.244-5.368,7.305-9.935,7.305-9.935L226.984,286.493z"/>
						<path style="fill:#263238;" d="M203.108,321.852c-0.124,0-0.245-0.047-0.337-0.131c-7.114-6.496-17.044-21.605-17.143-21.757
							c-0.074-0.113-0.099-0.251-0.07-0.383c0.029-0.132,0.111-0.246,0.226-0.317c4.966-3.068,12.926-11.97,17.065-17.205
							c4.182-5.289,7.251-9.857,7.281-9.903c0.08-0.118,0.206-0.197,0.348-0.217c0.143-0.017,0.284,0.022,0.393,0.115l16.439,14.06
							c0.156,0.133,0.214,0.348,0.148,0.542c-1.115,3.256-2.85,6.743-5.156,10.364c-7.49,11.828-18.707,24.536-18.819,24.663
							c-0.089,0.101-0.214,0.161-0.348,0.168C203.125,321.852,203.117,321.852,203.108,321.852z M186.744,299.837
							c1.627,2.441,10.009,14.844,16.327,20.798c1.926-2.211,11.669-13.544,18.386-24.151c2.188-3.436,3.85-6.742,4.943-9.832
							l-15.755-13.475c-0.891,1.3-3.579,5.16-7.012,9.503C199.568,287.821,191.835,296.476,186.744,299.837z"/>
					</g>
				</g>
				<path style="opacity:0.1;" d="M226.984,286.493c-1.184,3.455-5.328,9.378-7.444,12.702l-17.459-15.25
					c4.244-5.368,8.464-11.512,8.464-11.512L226.984,286.493z"/>
			</g>
		</g>
		<g>
			<g>
				<g>
					<path style="fill:#FFFFFF;" d="M111.55,221.463c-0.105-1.501-0.136-3.282,0.359-3.894c0.495-0.612,1.213-0.992,1.911-1.356
						c6.853-3.571,13.712-7.145,20.785-10.259c0.627-0.276,1.404-0.535,1.951-0.121c0.466,0.352,0.521,1.03,0.447,1.609
						c-0.232,1.818-1.306,3.419-2.517,4.794c-1.743,1.98-3.836,3.651-6.153,4.912c-0.778,0.424-1.585,0.804-2.305,1.321
						c-0.973,0.7-1.755,1.627-2.597,2.48c-0.628,0.636-1.294,1.234-1.994,1.791"/>
					<path style="fill:#263238;" d="M121.437,223.24c-0.147,0-0.293-0.064-0.392-0.188c-0.172-0.216-0.136-0.531,0.08-0.703
						c0.683-0.544,1.339-1.133,1.949-1.751c0.203-0.204,0.401-0.414,0.6-0.624c0.632-0.665,1.286-1.354,2.061-1.912
						c0.573-0.412,1.194-0.739,1.795-1.055l0.562-0.299c2.278-1.24,4.303-2.856,6.017-4.804c1.451-1.648,2.213-3.086,2.397-4.527
						c0.034-0.262,0.076-0.898-0.252-1.146c-0.342-0.258-0.99-0.021-1.448,0.18c-7.06,3.107-14.022,6.736-20.755,10.245
						c-0.647,0.337-1.316,0.686-1.754,1.227c-0.171,0.211-0.43,0.953-0.249,3.545c0.019,0.275-0.188,0.514-0.464,0.533
						c-0.278,0.015-0.514-0.188-0.533-0.464c-0.164-2.332-0.019-3.64,0.469-4.243c0.568-0.703,1.366-1.118,2.069-1.485
						c6.748-3.517,13.725-7.152,20.814-10.273c0.747-0.328,1.701-0.632,2.454-0.063c0.532,0.402,0.76,1.138,0.642,2.071
						c-0.211,1.649-1.049,3.257-2.639,5.062c-1.792,2.035-3.908,3.725-6.289,5.02l-0.575,0.306c-0.597,0.314-1.16,0.611-1.677,0.982
						c-0.699,0.502-1.292,1.127-1.92,1.788c-0.203,0.214-0.407,0.428-0.613,0.638c-0.639,0.646-1.325,1.263-2.039,1.831
						C121.656,223.205,121.546,223.24,121.437,223.24z"/>
				</g>
				<g>
					<path style="fill:#FFFFFF;" d="M117.497,221.531c0.511-0.256,1.028-0.463,1.527-0.613c5.02-1.511,10.448-1.147,15.494-2.568
						c2.555-0.719,5.046-1.9,7.7-1.884c0.804,0.005,1.89,0.33,1.799,1.333c-0.078,0.865-0.778,1.402-1.305,1.992
						c-0.621,0.695-1.176,1.408-1.878,2.032c-1.386,1.232-3.001,2.198-4.715,2.901c-2.504,1.026-5.166,1.336-7.8,1.844
						c-2.558,0.493-5.01,1.283-7.511,2.003c-0.613,0.176-1.245,0.341-1.886,0.468"/>
					<path style="fill:#263238;" d="M118.92,229.539c-0.233,0-0.442-0.165-0.49-0.402c-0.054-0.271,0.122-0.534,0.393-0.588
						c0.559-0.112,1.146-0.257,1.846-0.458l1.517-0.444c1.955-0.576,3.976-1.172,6.037-1.569c0.567-0.109,1.135-0.21,1.703-0.31
						c2.1-0.371,4.084-0.72,6.002-1.506c1.734-0.711,3.273-1.657,4.573-2.812c0.488-0.434,0.901-0.913,1.339-1.421
						c0.164-0.19,0.329-0.381,0.499-0.571c0.105-0.118,0.218-0.235,0.331-0.352c0.412-0.426,0.801-0.828,0.848-1.352
						c0.016-0.172-0.023-0.303-0.123-0.413c-0.204-0.225-0.668-0.372-1.181-0.375c-1.818-0.019-3.573,0.571-5.416,1.186
						c-0.713,0.238-1.427,0.477-2.146,0.679c-2.501,0.704-5.117,0.98-7.645,1.245c-2.612,0.275-5.313,0.559-7.841,1.32
						c-0.476,0.143-0.963,0.339-1.447,0.581c-0.246,0.124-0.547,0.024-0.671-0.223c-0.124-0.247-0.024-0.547,0.223-0.671
						c0.535-0.269,1.076-0.486,1.607-0.646c2.617-0.788,5.366-1.078,8.024-1.357c2.487-0.262,5.059-0.532,7.478-1.214
						c0.704-0.198,1.402-0.431,2.1-0.665c1.839-0.615,3.716-1.244,5.738-1.238c0.386,0.003,1.346,0.076,1.915,0.703
						c0.288,0.318,0.42,0.724,0.379,1.175c-0.08,0.875-0.635,1.449-1.125,1.957c-0.104,0.107-0.208,0.214-0.305,0.323
						c-0.166,0.186-0.327,0.372-0.487,0.558c-0.44,0.51-0.895,1.038-1.433,1.515c-1.385,1.23-3.019,2.236-4.858,2.99
						c-2.018,0.827-4.147,1.203-6.208,1.566c-0.563,0.1-1.126,0.199-1.687,0.307c-2.015,0.389-4.012,0.978-5.944,1.547l-1.523,0.446
						c-0.717,0.206-1.348,0.363-1.927,0.478C118.985,229.536,118.952,229.539,118.92,229.539z"/>
				</g>
				<g>
					<path style="fill:#FFFFFF;" d="M116.541,228.556c1.096-0.861,2.414-1.496,3.48-1.71c2.385-0.477,4.847-0.162,7.271,0.031
						c4.23,0.338,8.49,0.302,12.713-0.108c0.691-0.067,1.401-0.143,2.068,0.047c3.928,1.117-1.374,4.933-2.858,5.575
						c-5.83,2.523-12.731,2.651-18.974,2.497"/>
					<path style="fill:#263238;" d="M123.352,235.431c-1.045,0-2.087-0.017-3.122-0.042c-0.276-0.007-0.495-0.236-0.488-0.512
						c0.007-0.276,0.233-0.472,0.512-0.488c6.428,0.157,13.155-0.028,18.763-2.456c1.192-0.516,4.053-2.669,3.977-3.836
						c-0.022-0.337-0.378-0.606-1.057-0.799c-0.561-0.16-1.182-0.1-1.837-0.035c-4.29,0.416-8.598,0.453-12.848,0.113l-0.952-0.08
						c-2.053-0.178-4.177-0.36-6.181,0.04c-1.007,0.201-2.259,0.819-3.269,1.612c-0.218,0.171-0.531,0.133-0.702-0.084
						c-0.171-0.217-0.133-0.532,0.084-0.702c1.143-0.898,2.522-1.573,3.691-1.807c2.146-0.428,4.341-0.24,6.463-0.057l0.946,0.08
						c4.192,0.336,8.44,0.3,12.625-0.107c0.765-0.075,1.51-0.148,2.253,0.064c1.406,0.4,1.745,1.143,1.781,1.695
						c0.134,2.042-3.737,4.456-4.577,4.82C134.544,234.959,128.915,235.431,123.352,235.431z"/>
				</g>
				<g>
					<path style="fill:#FFFFFF;" d="M123.847,235.214c0,0,8.322,10.954,2.259,21.488"/>
					<path style="fill:#263238;" d="M126.106,257.202c-0.084,0-0.17-0.021-0.249-0.066c-0.239-0.138-0.322-0.443-0.184-0.683
						c5.822-10.118-2.143-20.83-2.225-20.937c-0.167-0.22-0.124-0.534,0.096-0.7c0.22-0.167,0.534-0.125,0.7,0.096
						c0.086,0.112,8.452,11.341,2.295,22.04C126.448,257.112,126.279,257.202,126.106,257.202z"/>
				</g>
			</g>
			<g>
				<g>
					<path style="fill:#FFFFFF;" d="M155.216,281.855c0,0-3.288,5.344-13.713,9.505c-4.938,1.973-11.489,3.67-20.061,4.4
						l-3.061-21.496c0,0,6.695,1.207,16.451-2.929c3.156-1.339,6.635-3.24,10.318-5.93L155.216,281.855z"/>
					<path style="fill:#263238;" d="M121.441,296.259c-0.247,0-0.459-0.182-0.495-0.43l-3.061-21.496
						c-0.022-0.158,0.033-0.318,0.148-0.43c0.116-0.111,0.279-0.157,0.436-0.133c0.065,0.011,6.684,1.124,16.167-2.897
						c3.445-1.462,6.883-3.438,10.218-5.873c0.113-0.083,0.255-0.116,0.392-0.087c0.137,0.027,0.256,0.11,0.329,0.229l10.067,16.45
						c0.099,0.16,0.098,0.362,0,0.522c-0.138,0.225-3.495,5.534-13.954,9.708c-5.728,2.288-12.525,3.779-20.204,4.433
						C121.469,296.258,121.455,296.259,121.441,296.259z M118.969,274.843l2.901,20.377c7.388-0.666,13.929-2.12,19.447-4.324
						c8.861-3.536,12.511-7.975,13.303-9.058l-9.615-15.712c-3.259,2.335-6.613,4.241-9.977,5.668
						C126.903,275.238,120.919,275.039,118.969,274.843z"/>
				</g>
				<path style="opacity:0.1;" d="M155.216,281.855c0,0-3.288,5.344-13.713,9.505l-6.671-20.026c3.156-1.339,6.635-3.24,10.318-5.93
					L155.216,281.855z"/>
			</g>
		</g>
		<g>
			<path style="fill:#FFFFFF;" d="M308.582,169.844c0,0,2.436,1.218,4.872-2.923c2.436-4.141,4.541-15.48-0.799-16.447
				c-7.24-3.529-9.676,1.587-9.676,1.587l-4.385-15.835c0,0-1.218-14.616-10.475-13.398c-9.257,1.218-14.617,11.45-14.617,11.45
				l-25.091,0.975l-0.731,14.129c0,0-4.141-2.923-5.359,0.731c-1.218,3.654-1.218,15.835,9.014,19.732
				c0,0,4.018,18.147,16.26,28.075l6.014,0.346l-1.323,14.21c0,0,3.898,9.257,14.129,12.424
				c10.231,3.167,19.698-16.763,19.698-16.763S306.324,183.474,308.582,169.844z"/>
			<g>
				<path style="fill:#C6FF00;" d="M255.811,137.501c4.51,2.691,9.33,5.041,14.514,5.883c5.184,0.842,10.808,0.03,15.015-3.114
					c0,3.373,0.049,7.098,0.969,10.343c0.92,3.245,2.888,6.346,5.902,7.862c0.324,4.034,0.696,8.049,1.02,12.083
					c0.273,3.394,0.423,7.782-0.922,10.91c-1.648,3.832-3.795,6.902-7.148,9.382c-3.304,2.445-6.031,3.351-10.845,6.53
					c-0.344,0.227-0.172,1.06,0.111,0.759c0,0,6.266-0.141,12.744-5.055c0,0,8.265,16.084,8.489,28.37l10.452-13.318
					c0,0-0.622-28.402,2.952-38.482c0,0,5.138,0.197,6.478-9.409c1.34-9.606-4.468-10.499-4.468-10.499
					s-19.882-29.264-24.796-26.583C281.363,125.845,255.811,137.501,255.811,137.501z"/>
				<path style="opacity:0.5;fill:#FFFFFF;" d="M255.811,137.501c4.51,2.691,9.33,5.041,14.514,5.883
					c5.184,0.842,10.808,0.03,15.015-3.114c0,3.373,0.049,7.098,0.969,10.343c0.92,3.245,2.888,6.346,5.902,7.862
					c0.324,4.034,0.696,8.049,1.02,12.083c0.273,3.394,0.423,7.782-0.922,10.91c-1.648,3.832-3.795,6.902-7.148,9.382
					c-3.304,2.445-6.031,3.351-10.845,6.53c-0.344,0.227-0.172,1.06,0.111,0.759c0,0,6.266-0.141,12.744-5.055
					c0,0,8.265,16.084,8.489,28.37l10.452-13.318c0,0-0.622-28.402,2.952-38.482c0,0,5.138,0.197,6.478-9.409
					c1.34-9.606-4.468-10.499-4.468-10.499s-19.882-29.264-24.796-26.583C281.363,125.845,255.811,137.501,255.811,137.501z"/>
			</g>
			<g>
				<path style="fill:#263238;" d="M250.536,169.294c-0.038,0-0.076-0.004-0.114-0.013c-4.676-1.088-7.89-4.616-9.049-9.932
					c-1.061-4.867-0.118-10.175,1.371-11.326c0.53-0.41,1.137-0.561,1.808-0.446c2.226,0.38,4.417,3.732,4.509,3.875
					c0.15,0.232,0.083,0.541-0.148,0.691c-0.231,0.15-0.542,0.084-0.691-0.148c-0.563-0.869-2.35-3.179-3.838-3.433
					c-0.388-0.066-0.723,0.016-1.027,0.251c-0.979,0.757-2.051,5.522-1.005,10.322c0.759,3.479,2.814,7.894,8.298,9.171
					c0.269,0.063,0.436,0.331,0.374,0.6C250.969,169.139,250.763,169.294,250.536,169.294z"/>
			</g>
			<g>
				<g>
					<path style="fill:#FFFFFF;" d="M318.222,227.589c-0.012,0.06-0.024,0.096-0.024,0.096c-2.248,3.001-4.734,5.715-7.245,8.13
						v0.012c-0.406,0.395-0.825,0.777-1.231,1.148c-8.548,7.879-17.144,12.326-18.316,12.9c-0.096,0.06-0.144,0.084-0.144,0.084
						l-4.435-26.637c0,0,0.012-0.012,0.048-0.024c9.983-5.966,14.092-11.195,16.662-14.053l0.327-0.348
						c0.682-0.753,1.865-1.837,2.223-2.399c1.219-1.889,0.981-1.074,0.981-1.074l-0.801-3.79l-0.418-1.937
						c0.155,0.072,0.311,0.143,0.454,0.215C318.247,208.579,318.485,226.046,318.222,227.589z"/>
					<g>
						<path style="fill:#263238;" d="M291.265,250.456c-0.079,0-0.157-0.018-0.228-0.055c-0.141-0.072-0.241-0.205-0.267-0.361
							l-4.435-26.637c-0.026-0.156,0.023-0.314,0.133-0.428c0.057-0.06,0.176-0.128,0.254-0.153
							c0.753-0.413,9.916-6.851,15.84-13.263c0.36-0.389,0.738-0.791,1.122-1.201c1.537-1.636,3.125-3.327,4.161-4.779
							c0.16-0.225,0.474-0.277,0.697-0.116c0.226,0.16,0.277,0.473,0.117,0.697c-1.075,1.506-2.688,3.223-4.246,4.882
							c-0.383,0.408-0.759,0.808-1.117,1.195c-5.616,6.079-14.149,12.204-15.918,13.338l4.258,25.572
							c3.016-1.85,11.146-6.993,17.766-12.558c0.417-0.346,0.831-0.701,1.233-1.056c3.584-3.132,5.979-5.849,7.119-8.079
							c0.405-1.634-1.186-18.265-11.346-26.961c-0.21-0.18-0.234-0.495-0.055-0.705c0.181-0.21,0.496-0.233,0.705-0.055
							c10.684,9.145,12.104,26.194,11.649,27.977c-0.003,0.01-0.03,0.116-0.033,0.126c-1.229,2.416-3.702,5.233-7.38,8.447
							c-0.408,0.361-0.83,0.723-1.254,1.073c-7.073,5.947-15.853,11.41-18.374,12.942c-0.118,0.074-0.18,0.104-0.18,0.104
							C291.417,250.439,291.341,250.456,291.265,250.456z"/>
					</g>
				</g>
				<g>
					<path style="fill:#FFFFFF;" d="M286.831,223.325l-11.768,26.636c0,0-12.405-16.604-12.759-30.412
						c1.797-7.449,3.737-11.6,11.424-16.109l-0.865,5.369C272.864,208.809,274.277,221.537,286.831,223.325z"/>
					<g>
						<path style="fill:#263238;" d="M275.064,250.461c-0.164,0-0.319-0.081-0.413-0.218c-0.114-0.167-11.467-16.889-12.844-30.645
							c-0.005-0.047-0.003-0.094,0.006-0.141c2.54-13.715,11.069-15.984,11.432-16.074c0.264-0.064,0.537,0.096,0.605,0.364
							c0.067,0.268-0.096,0.539-0.362,0.607c-0.083,0.021-8.246,2.233-10.678,15.215c1.215,11.836,9.968,25.961,12.168,29.352
							l11.232-25.425c-1.638-1.188-8.804-6.696-14.62-16.065c-0.146-0.234-0.073-0.543,0.161-0.688
							c0.233-0.144,0.543-0.074,0.689,0.161c6.458,10.403,14.591,15.951,14.672,16.006c0.201,0.135,0.276,0.395,0.178,0.617
							l-11.768,26.636c-0.073,0.166-0.23,0.279-0.411,0.296C275.094,250.46,275.079,250.461,275.064,250.461z"/>
					</g>
				</g>
				<path style="opacity:0.12;" d="M318.222,227.471c-0.012,0.06-0.024,0.096-0.024,0.096c-1.291,2.523-4.005,5.404-7.233,8.225
					c0-0.024-0.012-0.06-0.012-0.084v-0.012c-1.518-13.163-8.026-25.799-8.026-25.799l3.883-4.5l-0.508-5.604
					C316.776,209.42,318.485,225.929,318.222,227.471z"/>
			</g>
			<g>
				<path style="fill:#263238;" d="M272.987,209.079c-0.044,0-0.088-0.006-0.133-0.018c-0.267-0.073-0.423-0.349-0.35-0.615
					c1.322-4.797,0.614-10.059,0.607-10.112c-0.038-0.273,0.152-0.526,0.426-0.564c0.265-0.041,0.525,0.152,0.564,0.426
					c0.031,0.223,0.744,5.514-0.633,10.515C273.408,208.933,273.207,209.079,272.987,209.079z"/>
			</g>
			<g>
				<path style="fill:#263238;" d="M306.535,206.493c-0.266,0-0.486-0.209-0.499-0.476c-1.104-23.065,2.509-36.363,2.546-36.495
					c0.074-0.265,0.35-0.423,0.615-0.348c0.267,0.074,0.422,0.349,0.348,0.615c-0.036,0.13-3.605,13.292-2.511,36.179
					c0.014,0.276-0.199,0.51-0.476,0.523C306.551,206.493,306.543,206.493,306.535,206.493z"/>
			</g>
			<g>
				<g>
					<path style="fill:#263238;" d="M268.834,172.62c-0.59,0-1.2-0.113-1.797-0.253c-1.648-0.387-3.628-1.059-4.304-2.838
						c-0.466-1.224-0.144-2.751,0.883-4.187c0.35-0.489,0.745-0.941,1.128-1.378c0.492-0.563,0.958-1.094,1.327-1.694
						c1.59-2.582,1.139-5.859,0.488-9.272c-0.052-0.271,0.126-0.533,0.397-0.585c0.276-0.052,0.533,0.126,0.585,0.397
						c0.661,3.47,1.157,7.1-0.619,9.984c-0.413,0.672-0.929,1.26-1.427,1.829c-0.384,0.438-0.745,0.851-1.065,1.3
						c-0.393,0.549-1.252,1.964-0.762,3.251c0.508,1.339,2.189,1.89,3.597,2.22c0.927,0.218,1.98,0.41,2.742-0.064
						c0.233-0.144,0.542-0.074,0.689,0.161c0.146,0.235,0.073,0.543-0.161,0.688C270.013,172.503,269.434,172.62,268.834,172.62z"/>
				</g>
				<path style="fill:#263238;" d="M262.353,154.747c0.083,1.87-0.666,3.422-1.673,3.467c-1.007,0.045-1.89-1.435-1.973-3.305
					c-0.083-1.87,0.666-3.422,1.673-3.467C261.387,151.398,262.27,152.878,262.353,154.747z"/>
				<path style="fill:#263238;" d="M282.914,154.256c0.083,1.87-0.666,3.422-1.673,3.467c-1.007,0.045-1.891-1.435-1.973-3.305
					c-0.083-1.87,0.666-3.422,1.673-3.467C281.947,150.906,282.831,152.386,282.914,154.256z"/>
				<g>
					<path style="fill:#263238;" d="M273.531,179.971c-2.733,0-4.902-0.796-5.358-1.105c-0.229-0.154-0.288-0.463-0.135-0.692
						c0.154-0.229,0.465-0.29,0.693-0.137c0.255,0.171,3.537,1.457,7.251,0.69c2.832-0.584,5.124-2.198,6.813-4.796
						c0.151-0.232,0.461-0.296,0.691-0.147c0.232,0.15,0.297,0.46,0.146,0.692c-1.846,2.841-4.362,4.603-7.481,5.237
						C275.247,179.897,274.363,179.971,273.531,179.971z"/>
				</g>
				<g>
					<path style="fill:#263238;" d="M273.891,144.262c-0.153,0-0.305-0.071-0.403-0.204c-0.163-0.223-0.115-0.535,0.107-0.699
						c4.363-3.206,7.354-3.33,11.857-0.491c0.233,0.147,0.304,0.456,0.156,0.689c-0.147,0.235-0.457,0.303-0.689,0.156
						c-4.172-2.63-6.681-2.525-10.732,0.451C274.098,144.23,273.994,144.262,273.891,144.262z"/>
				</g>
				<g>
					<path style="fill:#263238;" d="M255.485,146.05c-0.114,0-0.229-0.039-0.322-0.118c-0.211-0.178-0.238-0.493-0.061-0.705
						c2.196-2.606,6.414-3.164,9.213-1.218c0.228,0.158,0.283,0.47,0.125,0.696c-0.157,0.227-0.47,0.283-0.695,0.125
						c-2.392-1.663-5.998-1.188-7.877,1.041C255.769,145.989,255.627,146.05,255.485,146.05z"/>
				</g>
				<g>
					<path style="fill:#263238;" d="M270.579,198.588c-1.825,0.001-2.963-0.16-3.058-0.174c-0.085-0.012-0.165-0.046-0.233-0.099
						c-0.272-0.21-6.748-5.277-11.93-15.782c-8.817-17.872-7.126-43.701-7.107-43.96c0.019-0.275,0.255-0.489,0.533-0.464
						c0.276,0.019,0.483,0.258,0.464,0.533c-0.018,0.256-1.689,25.821,7.006,43.448c4.723,9.573,10.689,14.654,11.542,15.35
						c0.797,0.094,5.147,0.514,10.434-0.777c6.466-1.579,12.604-6.642,16.615-10.611c0.196-0.194,0.514-0.193,0.707,0.004
						c0.194,0.196,0.192,0.513-0.004,0.707c-4.101,4.058-10.393,9.238-17.082,10.871C275.334,198.4,272.555,198.588,270.579,198.588
						z"/>
				</g>
				<g>
					<path style="fill:#263238;" d="M295.197,186.909c-0.083,0-0.167-0.021-0.244-0.064c-0.24-0.134-0.327-0.439-0.192-0.68
						c4.947-8.863,6.042-14.534,6.053-14.59c0.051-0.272,0.316-0.452,0.582-0.4c0.272,0.05,0.451,0.311,0.4,0.582
						c-0.043,0.236-1.125,5.871-6.162,14.895C295.542,186.816,295.372,186.909,295.197,186.909z"/>
				</g>
			</g>
			<g>
				<path style="fill:#263238;" d="M308.495,170.182c-2.831,0-3.804-1.71-3.852-1.798c-0.133-0.243-0.043-0.546,0.199-0.679
					c0.242-0.132,0.545-0.043,0.678,0.199c0.044,0.076,1.17,1.948,4.91,1.017c2.322-0.581,5.053-6.934,5.126-11.926
					c0.028-1.928-0.329-5.277-3.038-6.038c-6.198-1.742-9.455,7.374-9.487,7.466c-0.091,0.261-0.379,0.4-0.637,0.308
					c-0.261-0.091-0.398-0.376-0.309-0.636c0.035-0.102,3.601-10.093,10.704-8.1c2.484,0.699,3.822,3.19,3.767,7.016
					c-0.075,5.155-2.805,12.111-5.884,12.881C309.849,170.097,309.125,170.182,308.495,170.182z"/>
			</g>
			<path style="fill:#263238;" d="M303.972,156.23c-0.76,1.613-3.72,0.188-4.811-1.222c-1.091-1.409-1.082-3.564,0.021-4.964
				c-2.31-0.673-4.908-1.719-5.906-3.908c-0.491-1.076-0.507-2.304-0.431-3.484c0.205-3.211,1.016-6.411,0.663-9.609
				c-0.353-3.198-2.311-6.558-5.473-7.148c0,0-10.985,19.698-31.751,11.748c0,0-9.255,4.417-13.462-3.155
				c-4.207-7.572,1.472-15.565,13.252-20.614c0,0-7.362-0.21-7.152-3.996c0.21-3.786,18.09-4.838,30.71-2.104
				c0,0-1.489-6.637,14.077-4.744c15.565,1.893,20.609,6.283,22.523,17.154c11.406,6.219-1.412,31.854-1.412,31.854
				S308.787,146.007,303.972,156.23z"/>
			<path style="fill:#263238;" d="M247.173,134.816c0,0-3.967,6.103-1.221,13.58l3.204,5.035l-0.495-16.993L247.173,134.816z"/>
			<g>
				<path style="fill:#263238;" d="M315.244,122.197c-0.052,0-0.103-0.008-0.155-0.025c-0.263-0.086-0.406-0.368-0.32-0.63
					c4.238-12.951-4.807-19.043-5.194-19.296c-0.23-0.151-0.296-0.46-0.146-0.692c0.151-0.23,0.458-0.298,0.691-0.146
					c0.102,0.066,10.082,6.746,5.6,20.445C315.65,122.063,315.455,122.197,315.244,122.197z"/>
			</g>
			<g>
				<path style="fill:#FFFFFF;" d="M252.75,132.278c-3.195,0-6.133-0.901-8.345-2.635c-0.217-0.171-0.255-0.485-0.085-0.702
					c0.17-0.217,0.484-0.255,0.702-0.085c3.094,2.426,7.771,3.078,12.506,1.741c4.102-1.157,7.817-3.528,11.41-5.822l0.482-0.307
					c4.002-2.551,7.958-4.92,12.355-5.868c5.37-1.161,11.083-0.081,15.664,2.96c2.232,1.482,3.405,3.138,3.486,4.919
					c0.013,0.276-0.2,0.51-0.477,0.522c-0.305,0.033-0.51-0.202-0.522-0.477c-0.066-1.445-1.089-2.835-3.041-4.132
					c-4.295-2.85-9.865-3.903-14.9-2.816c-4.241,0.915-7.957,3.138-12.029,5.733l-0.481,0.307
					c-3.654,2.332-7.434,4.744-11.677,5.942C256.092,132.042,254.387,132.278,252.75,132.278z"/>
			</g>
			<g>
				<path style="fill:#FFFFFF;" d="M304.569,120.758c-0.219,0-0.42-0.144-0.481-0.365c-0.97-3.458-4.009-6.48-7.933-7.888
					c-3.441-1.236-7.601-1.396-12.711-0.493c-1.984,0.351-3.986,0.826-5.922,1.285c-2.255,0.535-4.586,1.088-6.923,1.455
					c-3.484,0.546-8.157,0.53-10.612-2.655c-0.168-0.219-0.127-0.533,0.091-0.701c0.221-0.17,0.532-0.128,0.702,0.091
					c2.154,2.797,6.445,2.782,9.665,2.277c2.299-0.36,4.61-0.909,6.847-1.439c1.949-0.463,3.966-0.941,5.979-1.297
					c5.287-0.935,9.613-0.76,13.223,0.536c4.223,1.515,7.502,4.795,8.558,8.56c0.074,0.266-0.081,0.542-0.347,0.616
					C304.659,120.752,304.613,120.758,304.569,120.758z"/>
			</g>
		</g>
	</g>
</g>
<g id="Progess_Bar">
	<g id="Progress_Bar">
		<path style="fill:#263238;" d="M418.6,418.57H80.26c-1.895,0-3.431-1.536-3.431-3.431l0,0c0-1.895,1.536-3.431,3.431-3.431H418.6
			c1.895,0,3.431,1.536,3.431,3.431l0,0C422.03,417.034,420.494,418.57,418.6,418.57z"/>
		<g>
			<path style="fill:#FFFFFF;" d="M416.72,415.64H80.729c-0.276,0-0.5-0.224-0.5-0.5c0-0.276,0.224-0.5,0.5-0.5h335.99
				c0.276,0,0.5,0.224,0.5,0.5C417.22,415.416,416.996,415.64,416.72,415.64z"/>
		</g>
		<g>
			<g>
				
					<ellipse transform="matrix(0.6785 -0.7346 0.7346 0.6785 -271.5785 206.7583)" style="fill:#FFFFFF;" cx="100.443" cy="413.672" rx="12.981" ry="12.981"/>
				<path style="fill:#263238;" d="M100.443,427.153c-7.434,0-13.481-6.048-13.481-13.481s6.048-13.48,13.481-13.48
					c7.434,0,13.481,6.047,13.481,13.48S107.877,427.153,100.443,427.153z M100.443,401.191c-6.882,0-12.481,5.599-12.481,12.48
					c0,6.882,5.599,12.481,12.481,12.481c6.882,0,12.481-5.6,12.481-12.481C112.924,406.79,107.325,401.191,100.443,401.191z"/>
			</g>
			<g>
				<path style="fill:#C6FF00;" d="M107.305,413.672c0,3.79-3.072,6.862-6.861,6.862s-6.862-3.072-6.862-6.862
					c0-3.789,3.072-6.862,6.862-6.862S107.305,409.883,107.305,413.672z"/>
				<path style="fill:#263238;" d="M100.443,421.034c-4.059,0-7.362-3.303-7.362-7.362c0-4.059,3.303-7.361,7.362-7.361
					c4.059,0,7.361,3.303,7.361,7.361C107.805,417.731,104.502,421.034,100.443,421.034z M100.443,407.31
					c-3.508,0-6.362,2.854-6.362,6.361c0,3.508,2.854,6.362,6.362,6.362c3.508,0,6.361-2.855,6.361-6.362
					C106.805,410.164,103.951,407.31,100.443,407.31z"/>
			</g>
		</g>
	</g>
</g>
</svg>
